<svg id="svg" version="1.1" xmlns="http://www.w3.org/2000/svg" xmlns:xlink="http://www.w3.org/1999/xlink" width="400" height="400" viewBox="0, 0, 400,400"><g id="svgg"><path id="path0" d="M212.800 87.600 L 212.800 150.400 294.000 150.400 L 375.200 150.400 375.200 149.493 C 375.200 148.610,373.437 146.159,370.596 143.093 C 369.828 142.265,369.200 141.431,369.200 141.242 C 369.200 141.052,368.480 140.155,367.600 139.248 C 366.720 138.341,366.000 137.441,366.000 137.248 C 366.000 137.055,365.280 136.155,364.400 135.248 C 363.520 134.341,362.800 133.428,362.800 133.219 C 362.800 133.011,362.485 132.656,362.100 132.432 C 361.715 132.208,361.554 132.019,361.742 132.012 C 361.931 132.005,361.526 131.478,360.842 130.840 C 360.159 130.201,359.600 129.496,359.600 129.273 C 359.600 129.049,359.465 128.807,359.300 128.733 C 359.135 128.660,358.288 127.655,357.418 126.500 C 356.548 125.345,355.693 124.400,355.518 124.400 C 355.343 124.400,355.200 124.149,355.200 123.843 C 355.200 123.536,354.930 123.182,354.599 123.055 C 354.269 122.928,353.699 122.197,353.333 121.429 C 352.968 120.662,352.518 120.127,352.334 120.241 C 352.150 120.354,352.000 120.206,352.000 119.912 C 352.000 119.617,351.640 119.117,351.200 118.800 C 350.760 118.483,350.400 118.015,350.400 117.760 C 350.400 117.505,349.680 116.555,348.800 115.648 C 347.920 114.741,347.200 113.911,347.200 113.804 C 347.200 113.565,346.108 112.218,344.900 110.968 C 344.405 110.456,344.000 109.920,344.000 109.779 C 344.000 109.637,343.490 109.044,342.867 108.460 C 342.243 107.877,341.509 106.980,341.234 106.466 C 340.672 105.414,339.349 103.781,338.300 102.846 C 337.915 102.503,337.600 102.002,337.600 101.734 C 337.600 101.465,337.200 100.965,336.711 100.623 C 336.222 100.280,335.980 100.000,336.172 100.000 C 336.365 100.000,336.171 99.685,335.742 99.300 C 335.313 98.915,334.529 97.970,334.000 97.200 C 333.471 96.430,332.714 95.509,332.319 95.153 C 331.924 94.797,331.600 94.378,331.600 94.222 C 331.600 94.065,330.880 93.246,330.000 92.400 C 329.120 91.554,328.400 90.651,328.400 90.392 C 328.400 90.133,327.850 89.407,327.178 88.780 L 325.956 87.638 327.178 86.360 C 327.850 85.657,328.400 84.878,328.400 84.629 C 328.400 84.380,328.760 83.917,329.200 83.600 C 329.640 83.283,330.000 82.836,330.000 82.608 C 330.000 82.379,330.360 81.968,330.800 81.693 C 331.240 81.418,331.600 81.015,331.600 80.797 C 331.600 80.580,332.320 79.637,333.200 78.703 C 334.080 77.769,334.800 76.862,334.800 76.689 C 334.800 76.515,335.385 75.766,336.100 75.023 C 337.587 73.479,339.400 71.234,340.805 69.200 C 341.336 68.430,341.913 67.740,342.086 67.667 C 342.258 67.593,342.400 67.268,342.400 66.943 C 342.400 66.618,342.553 66.447,342.740 66.563 C 342.927 66.678,343.332 66.289,343.640 65.697 C 343.948 65.105,344.875 63.920,345.700 63.062 C 346.525 62.205,347.200 61.337,347.200 61.134 C 347.200 60.930,347.605 60.335,348.100 59.812 C 349.582 58.244,352.559 54.744,353.178 53.842 C 353.495 53.379,354.080 52.709,354.478 52.353 C 354.875 51.997,355.200 51.517,355.200 51.286 C 355.200 51.056,355.338 50.807,355.507 50.733 C 355.676 50.660,356.501 49.655,357.341 48.500 C 358.181 47.345,359.033 46.400,359.234 46.400 C 359.435 46.400,359.600 46.116,359.600 45.769 C 359.600 45.421,360.320 44.446,361.200 43.600 C 362.080 42.754,362.801 41.914,362.803 41.731 C 362.804 41.549,363.516 40.680,364.383 39.800 C 365.251 38.920,365.970 38.041,365.980 37.847 C 365.991 37.653,366.324 37.203,366.719 36.847 C 367.114 36.491,367.878 35.570,368.416 34.800 C 368.954 34.030,369.980 32.777,370.697 32.017 C 371.414 31.256,372.000 30.518,372.000 30.378 C 372.000 30.237,372.371 29.690,372.824 29.161 C 373.278 28.633,373.998 27.794,374.424 27.297 C 374.851 26.800,375.200 26.035,375.200 25.597 C 375.200 24.804,374.830 24.800,294.000 24.800 L 212.800 24.800 212.800 87.600 M99.697 274.700 L 99.800 299.800 200.000 299.800 L 300.200 299.800 300.303 274.700 L 300.406 249.600 256.609 249.600 L 212.811 249.600 212.706 262.300 L 212.600 275.000 200.000 275.000 L 187.400 275.000 187.294 262.300 L 187.189 249.600 143.391 249.600 L 99.594 249.600 99.697 274.700 M0.000 374.900 L 0.000 400.000 200.000 400.000 L 400.000 400.000 400.000 374.900 L 400.000 349.800 200.000 349.800 L 0.000 349.800 0.000 374.900 " stroke="none" fill="#ccfc64" fill-rule="evenodd"></path><path id="path1" d="M187.299 137.500 L 187.400 275.000 200.000 275.000 L 212.600 275.000 212.701 137.500 L 212.801 0.000 200.000 0.000 L 187.199 0.000 187.299 137.500 M49.697 324.800 L 49.800 349.800 200.000 349.800 L 350.200 349.800 350.303 324.800 L 350.406 299.800 200.000 299.800 L 49.594 299.800 49.697 324.800 " stroke="none" fill="#3fdf04" fill-rule="evenodd"></path><path id="path2" d="" stroke="none" fill="#d0e434" fill-rule="evenodd"></path><path id="path3" d="" stroke="none" fill="#d0e434" fill-rule="evenodd"></path><path id="path4" d="" stroke="none" fill="#d0e434" fill-rule="evenodd"></path></g></svg>