<svg id="svg" version="1.1" xmlns="http://www.w3.org/2000/svg" xmlns:xlink="http://www.w3.org/1999/xlink" width="400" height="400" viewBox="0, 0, 400,400"><g id="svgg"><path id="path0" d="M168.432 62.562 C 168.232 62.803,167.074 62.975,165.860 62.944 C 164.418 62.907,163.585 63.061,163.460 63.388 C 163.340 63.701,162.623 63.855,161.534 63.800 C 160.580 63.752,159.665 63.912,159.500 64.156 C 159.289 64.469,159.096 64.439,158.848 64.055 C 158.598 63.667,158.452 63.645,158.340 63.979 C 158.254 64.237,157.558 64.464,156.792 64.482 C 156.026 64.501,155.277 64.706,155.127 64.938 C 154.977 65.170,154.212 65.342,153.428 65.320 C 152.643 65.297,152.102 65.441,152.224 65.640 C 152.415 65.948,151.244 66.196,150.300 66.047 C 150.135 66.021,150.000 66.180,150.000 66.400 C 150.000 66.620,149.460 66.800,148.800 66.800 C 148.140 66.800,147.600 66.980,147.600 67.200 C 147.600 67.420,146.959 67.600,146.176 67.600 C 145.329 67.600,144.853 67.762,145.000 68.000 C 145.141 68.228,144.791 68.400,144.185 68.400 C 143.601 68.400,142.644 68.741,142.058 69.159 C 141.472 69.576,140.545 69.981,139.997 70.059 C 139.448 70.136,138.910 70.290,138.800 70.400 C 138.322 70.878,136.761 71.600,136.205 71.600 C 135.872 71.600,135.600 71.780,135.600 72.000 C 135.600 72.220,135.152 72.400,134.603 72.400 C 134.040 72.400,133.390 72.748,133.107 73.200 C 132.832 73.640,132.190 74.000,131.680 74.000 C 131.170 74.000,130.851 74.160,130.972 74.355 C 131.172 74.679,130.039 75.245,128.954 75.364 C 128.709 75.390,128.214 75.656,127.854 75.955 C 127.494 76.254,127.200 76.387,127.200 76.252 C 127.200 76.116,126.795 76.357,126.300 76.788 C 125.805 77.218,125.262 77.573,125.092 77.577 C 124.923 77.580,124.401 77.941,123.932 78.378 C 123.463 78.815,122.926 79.078,122.739 78.963 C 122.553 78.847,122.400 78.973,122.400 79.243 C 122.400 79.513,122.283 79.616,122.140 79.473 C 121.997 79.330,121.456 79.670,120.938 80.229 C 120.420 80.788,119.817 81.134,119.598 80.999 C 119.379 80.864,119.200 81.014,119.200 81.334 C 119.200 81.952,118.129 82.579,117.300 82.446 C 117.025 82.401,116.800 82.603,116.800 82.894 C 116.800 83.583,115.368 84.800,114.558 84.800 C 114.210 84.800,113.831 85.160,113.716 85.600 C 113.590 86.082,113.167 86.402,112.653 86.406 C 111.956 86.411,111.910 86.483,112.400 86.800 C 112.885 87.114,112.828 87.189,112.100 87.194 C 111.554 87.198,111.200 87.445,111.200 87.824 C 111.200 88.167,111.033 88.344,110.829 88.218 C 110.625 88.092,110.343 88.351,110.202 88.794 C 110.061 89.237,109.733 89.621,109.473 89.647 C 109.213 89.673,108.910 89.703,108.800 89.714 C 108.538 89.739,106.773 91.600,107.012 91.600 C 107.112 91.600,106.809 92.044,106.337 92.586 C 105.865 93.129,105.299 93.461,105.078 93.325 C 104.857 93.188,104.795 93.268,104.939 93.502 C 105.202 93.926,103.069 96.000,102.369 96.000 C 102.166 96.000,102.000 96.206,102.000 96.457 C 102.000 96.708,101.476 97.414,100.836 98.026 C 100.196 98.638,99.776 99.242,99.903 99.369 C 100.029 99.496,99.833 99.600,99.467 99.600 C 99.080 99.600,98.800 99.917,98.800 100.353 C 98.800 100.794,98.433 101.203,97.917 101.337 C 97.432 101.464,97.154 101.688,97.300 101.834 C 97.672 102.205,95.593 104.843,95.146 104.566 C 94.945 104.442,94.806 104.489,94.837 104.670 C 95.012 105.678,94.708 106.375,93.994 106.602 C 93.551 106.743,93.279 107.004,93.390 107.183 C 93.501 107.363,93.323 107.732,92.996 108.004 C 92.668 108.276,92.400 108.752,92.400 109.062 C 92.400 109.371,92.130 109.729,91.800 109.855 C 91.470 109.982,91.200 110.328,91.200 110.624 C 91.200 111.393,90.329 113.202,90.042 113.029 C 89.909 112.949,89.568 113.135,89.284 113.442 C 89.001 113.749,88.939 114.000,89.147 114.000 C 89.362 114.000,89.325 114.430,89.062 114.997 C 88.808 115.545,88.465 115.995,88.300 115.997 C 88.135 115.999,88.000 116.281,88.000 116.624 C 88.000 116.967,87.857 117.159,87.683 117.051 C 87.509 116.944,87.337 117.245,87.301 117.722 C 87.265 118.198,87.048 118.651,86.818 118.727 C 86.588 118.804,86.400 119.122,86.400 119.433 C 86.400 119.745,86.209 120.000,85.976 120.000 C 85.743 120.000,85.652 120.161,85.774 120.358 C 85.896 120.555,85.708 120.827,85.356 120.961 C 84.999 121.099,84.816 121.464,84.942 121.792 C 85.065 122.114,84.904 122.639,84.583 122.960 C 84.262 123.281,84.000 123.826,84.000 124.171 C 84.000 124.517,83.809 124.800,83.576 124.800 C 83.343 124.800,83.256 124.968,83.383 125.172 C 83.509 125.377,83.427 125.660,83.200 125.800 C 82.973 125.940,82.891 126.223,83.017 126.428 C 83.144 126.632,83.057 126.800,82.824 126.800 C 82.591 126.800,82.400 127.261,82.400 127.824 C 82.400 128.404,82.227 128.740,82.000 128.600 C 81.772 128.459,81.600 128.804,81.600 129.400 C 81.600 129.976,81.445 130.351,81.255 130.234 C 81.066 130.117,80.908 130.421,80.904 130.911 C 80.891 132.578,80.800 132.847,80.346 132.567 C 80.032 132.373,79.949 132.673,80.077 133.543 C 80.205 134.413,80.098 134.800,79.731 134.800 C 79.389 134.800,79.200 135.307,79.200 136.224 C 79.200 137.139,79.046 137.552,78.769 137.381 C 78.484 137.204,78.404 137.527,78.532 138.340 C 78.646 139.066,78.516 139.738,78.212 139.990 C 77.931 140.224,77.700 140.899,77.700 141.491 C 77.700 142.083,77.532 142.623,77.328 142.691 C 77.123 142.759,76.995 143.395,77.044 144.104 C 77.094 144.814,76.943 145.512,76.710 145.656 C 76.477 145.800,76.236 147.042,76.174 148.416 C 76.112 149.791,75.894 151.024,75.689 151.157 C 75.485 151.291,75.336 152.418,75.359 153.662 C 75.381 154.906,75.261 155.838,75.090 155.732 C 74.920 155.627,74.794 161.494,74.811 168.770 C 74.827 176.047,74.967 182.000,75.120 182.000 C 75.274 182.000,75.385 182.900,75.367 184.000 C 75.348 185.100,75.494 186.000,75.690 186.000 C 75.887 186.000,75.936 186.180,75.800 186.400 C 75.664 186.620,75.714 186.800,75.910 186.800 C 76.107 186.800,76.244 187.629,76.214 188.643 C 76.178 189.884,76.341 190.556,76.714 190.699 C 77.171 190.875,77.175 190.970,76.734 191.250 C 76.392 191.466,76.367 191.590,76.662 191.594 C 77.075 191.599,77.883 195.282,77.661 196.142 C 77.612 196.330,77.803 196.770,78.086 197.119 C 78.519 197.653,78.505 197.698,78.000 197.400 C 77.525 197.120,77.489 197.166,77.828 197.623 C 78.063 197.940,78.508 199.010,78.816 200.000 C 79.124 200.990,79.599 202.030,79.871 202.312 C 80.143 202.593,80.271 203.072,80.154 203.375 C 80.037 203.679,80.232 204.489,80.587 205.176 C 80.942 205.862,81.125 206.598,80.993 206.812 C 80.861 207.025,80.943 207.200,81.176 207.200 C 81.409 207.200,81.600 207.635,81.600 208.167 C 81.600 208.698,81.788 209.196,82.018 209.273 C 82.248 209.349,82.465 209.809,82.502 210.295 C 82.539 210.781,82.819 211.275,83.126 211.393 C 83.435 211.512,83.578 211.881,83.446 212.224 C 83.311 212.577,83.378 212.737,83.605 212.597 C 83.822 212.463,84.000 212.713,84.000 213.153 C 84.000 213.593,84.180 214.064,84.400 214.200 C 84.620 214.336,84.800 214.797,84.800 215.224 C 84.800 215.651,84.968 216.000,85.174 216.000 C 85.380 216.000,85.776 216.630,86.054 217.400 C 86.333 218.170,86.705 218.800,86.880 218.800 C 87.056 218.800,87.200 219.160,87.200 219.600 C 87.200 220.040,87.351 220.400,87.536 220.400 C 87.721 220.400,88.108 221.114,88.396 221.987 C 88.684 222.859,89.072 223.479,89.260 223.363 C 89.447 223.247,89.600 223.444,89.600 223.800 C 89.600 224.156,89.780 224.336,90.000 224.200 C 90.220 224.064,90.400 224.323,90.400 224.776 C 90.400 225.229,90.580 225.600,90.800 225.600 C 91.020 225.600,91.200 225.920,91.200 226.312 C 91.200 226.703,91.560 227.283,92.000 227.600 C 92.440 227.917,92.800 228.507,92.800 228.912 C 92.800 229.316,92.960 229.549,93.155 229.428 C 93.471 229.233,93.824 229.960,93.901 230.964 C 93.916 231.164,94.214 231.488,94.564 231.684 C 94.914 231.880,95.200 232.271,95.200 232.554 C 95.200 232.836,95.695 233.536,96.300 234.109 C 97.828 235.555,98.386 236.280,98.152 236.515 C 98.042 236.625,98.402 237.165,98.952 237.715 C 99.502 238.265,100.052 238.614,100.176 238.491 C 100.299 238.368,100.400 238.577,100.400 238.957 C 100.400 239.337,100.580 239.536,100.800 239.400 C 101.020 239.264,101.200 239.444,101.200 239.800 C 101.200 240.156,101.380 240.336,101.600 240.200 C 101.822 240.063,102.003 240.364,102.006 240.876 C 102.011 241.619,102.088 241.683,102.400 241.200 C 102.733 240.685,102.789 240.697,102.794 241.286 C 102.797 241.663,103.160 242.165,103.600 242.400 C 104.040 242.635,104.400 243.092,104.400 243.414 C 104.400 243.943,104.880 244.177,105.700 244.047 C 105.865 244.021,105.979 244.135,105.953 244.300 C 105.823 245.120,106.057 245.600,106.586 245.600 C 106.908 245.600,107.365 245.960,107.600 246.400 C 107.835 246.840,108.337 247.203,108.714 247.206 C 109.303 247.211,109.315 247.267,108.800 247.600 C 108.309 247.917,108.355 247.989,109.051 247.994 C 109.966 248.000,110.962 248.905,110.530 249.337 C 110.385 249.482,110.522 249.601,110.833 249.601 C 111.145 249.602,111.760 250.141,112.200 250.800 C 112.640 251.459,113.270 252.000,113.600 252.003 C 113.930 252.006,114.807 252.633,115.549 253.397 C 116.292 254.161,117.044 254.696,117.222 254.586 C 117.400 254.477,117.831 254.795,118.180 255.293 C 118.530 255.792,118.857 256.129,118.908 256.041 C 118.958 255.954,119.408 256.012,119.906 256.170 C 120.404 256.328,120.708 256.625,120.582 256.829 C 120.456 257.033,120.599 257.200,120.901 257.200 C 121.202 257.200,121.836 257.560,122.308 258.000 C 122.780 258.440,123.494 258.800,123.895 258.800 C 124.296 258.800,124.883 259.160,125.200 259.600 C 125.517 260.040,126.054 260.400,126.392 260.400 C 126.731 260.400,127.232 260.760,127.507 261.200 C 127.782 261.640,128.365 262.000,128.803 262.000 C 129.242 262.000,129.600 262.180,129.600 262.400 C 129.600 262.620,129.926 262.800,130.325 262.800 C 130.723 262.800,131.436 263.160,131.908 263.600 C 132.380 264.040,133.029 264.400,133.350 264.400 C 133.671 264.400,133.993 264.578,134.067 264.797 C 134.140 265.015,134.682 265.233,135.271 265.281 C 135.860 265.330,136.255 265.512,136.148 265.685 C 136.040 265.858,136.334 266.000,136.800 266.000 C 137.266 266.000,137.536 266.180,137.400 266.400 C 137.264 266.620,137.523 266.800,137.976 266.800 C 138.429 266.800,138.800 266.950,138.800 267.133 C 138.800 267.317,139.070 267.497,139.400 267.533 C 139.730 267.570,140.270 267.630,140.600 267.667 C 140.930 267.703,141.200 267.883,141.200 268.067 C 141.200 268.250,141.335 268.379,141.500 268.353 C 142.482 268.198,143.215 268.453,142.962 268.862 C 142.784 269.149,142.852 269.215,143.142 269.036 C 143.759 268.655,145.277 269.152,144.977 269.637 C 144.846 269.850,145.245 269.979,145.883 269.930 C 146.510 269.882,147.288 270.008,147.611 270.210 C 147.935 270.412,148.520 270.627,148.911 270.688 C 149.302 270.748,150.292 271.092,151.111 271.451 C 151.930 271.810,153.050 272.129,153.600 272.160 C 154.150 272.190,155.022 272.452,155.537 272.742 C 156.053 273.031,156.893 273.163,157.404 273.035 C 157.943 272.899,158.398 272.995,158.487 273.261 C 158.575 273.526,159.566 273.738,160.820 273.761 C 162.019 273.782,163.270 273.976,163.600 274.191 C 163.930 274.406,165.190 274.607,166.400 274.638 C 167.610 274.669,168.907 274.824,169.283 274.983 C 169.658 275.142,176.048 275.170,183.483 275.045 C 199.468 274.777,198.800 274.806,198.800 274.370 C 198.800 274.180,199.070 274.129,199.400 274.255 C 199.730 274.382,200.000 274.319,200.000 274.114 C 200.000 273.910,200.595 273.773,201.322 273.809 C 202.050 273.845,203.085 273.699,203.622 273.483 C 204.160 273.267,204.932 273.054,205.337 273.010 C 205.742 272.965,206.234 272.674,206.431 272.364 C 206.716 271.913,206.789 271.946,206.794 272.529 C 206.799 273.166,206.873 273.184,207.381 272.676 C 207.701 272.356,208.503 272.141,209.164 272.197 C 209.884 272.258,210.333 272.119,210.283 271.850 C 210.234 271.584,210.725 271.423,211.486 271.457 C 212.260 271.492,212.737 271.333,212.686 271.057 C 212.634 270.783,213.118 270.619,213.891 270.648 C 214.601 270.674,215.086 270.539,214.968 270.348 C 214.750 269.996,215.586 269.843,216.944 269.986 C 217.388 270.033,217.580 269.891,217.420 269.633 C 217.177 269.240,218.675 268.959,219.800 269.186 C 220.020 269.230,220.068 269.134,219.906 268.973 C 219.550 268.617,221.089 267.776,222.771 267.406 C 223.444 267.259,224.171 266.837,224.385 266.469 C 224.704 265.923,224.779 265.910,224.794 266.400 C 224.805 266.756,224.932 266.836,225.106 266.597 C 225.268 266.376,227.020 265.386,229.000 264.397 C 230.980 263.409,232.660 262.465,232.733 262.300 C 232.807 262.135,233.122 262.000,233.433 262.000 C 233.745 262.000,234.000 261.820,234.000 261.600 C 234.000 261.380,234.570 261.200,235.267 261.200 C 235.963 261.200,236.416 261.082,236.272 260.939 C 235.917 260.583,238.387 258.800,239.235 258.800 C 239.609 258.800,240.018 258.530,240.145 258.200 C 240.271 257.870,240.631 257.600,240.945 257.600 C 241.258 257.600,241.624 257.315,241.757 256.967 C 241.991 256.358,244.735 257.558,245.118 258.437 C 245.412 259.112,250.777 264.289,250.977 264.090 C 251.099 263.967,251.200 264.083,251.200 264.347 C 251.200 264.972,253.847 267.620,254.160 267.307 C 254.292 267.175,254.400 267.251,254.400 267.475 C 254.400 268.044,257.888 271.579,258.170 271.297 C 258.297 271.170,258.400 271.250,258.400 271.474 C 258.400 272.046,260.709 274.400,261.270 274.400 C 261.525 274.400,261.627 274.506,261.497 274.636 C 261.223 274.910,263.889 277.600,264.434 277.600 C 264.635 277.600,264.800 277.767,264.800 277.971 C 264.800 278.456,271.544 285.200,272.029 285.200 C 272.233 285.200,272.400 285.365,272.400 285.566 C 272.400 286.111,275.090 288.777,275.364 288.503 C 275.494 288.373,275.600 288.449,275.600 288.672 C 275.600 289.269,277.018 290.800,277.571 290.800 C 277.833 290.800,277.936 290.980,277.800 291.200 C 277.664 291.420,277.863 291.600,278.243 291.600 C 278.623 291.600,278.830 291.703,278.703 291.830 C 278.421 292.112,281.956 295.600,282.525 295.600 C 282.749 295.600,282.825 295.708,282.693 295.840 C 282.380 296.153,285.028 298.800,285.653 298.800 C 285.917 298.800,286.033 298.901,285.910 299.023 C 285.787 299.146,286.972 300.491,288.543 302.012 C 290.114 303.532,291.519 304.916,291.665 305.088 C 292.008 305.493,294.507 307.992,294.912 308.335 C 295.084 308.481,296.468 309.886,297.988 311.457 C 299.509 313.028,300.854 314.213,300.977 314.090 C 301.099 313.967,301.200 314.083,301.200 314.347 C 301.200 314.972,303.847 317.620,304.160 317.307 C 304.292 317.175,304.400 317.251,304.400 317.475 C 304.400 318.044,307.888 321.579,308.170 321.297 C 308.297 321.170,308.400 321.250,308.400 321.474 C 308.400 322.046,310.709 324.400,311.270 324.400 C 311.525 324.400,311.627 324.506,311.497 324.636 C 311.223 324.910,313.889 327.600,314.434 327.600 C 314.635 327.600,314.800 327.756,314.800 327.947 C 314.800 328.826,320.444 334.000,321.403 334.000 C 321.951 334.000,322.400 334.180,322.400 334.400 C 322.400 334.620,322.591 334.800,322.824 334.800 C 323.057 334.800,323.112 334.575,322.947 334.300 C 322.731 333.941,322.831 333.950,323.303 334.332 C 324.054 334.941,326.220 334.851,327.400 334.162 C 327.840 333.905,328.560 333.725,329.000 333.761 C 329.794 333.827,333.287 330.620,332.872 330.206 C 332.759 330.092,332.942 330.000,333.279 330.000 C 333.670 330.000,333.863 329.675,333.814 329.100 C 333.771 328.605,333.973 327.806,334.261 327.324 C 334.837 326.365,334.906 322.400,334.348 322.400 C 334.156 322.400,334.000 322.042,334.000 321.605 C 334.000 321.167,333.685 320.418,333.300 319.941 C 332.096 318.447,328.292 314.800,327.938 314.800 C 327.752 314.800,327.600 314.635,327.600 314.434 C 327.600 313.889,324.910 311.223,324.636 311.497 C 324.506 311.627,324.400 311.525,324.400 311.270 C 324.400 310.709,322.046 308.400,321.474 308.400 C 321.250 308.400,321.170 308.297,321.297 308.170 C 321.579 307.888,318.044 304.400,317.475 304.400 C 317.251 304.400,317.175 304.292,317.307 304.160 C 317.620 303.847,314.972 301.200,314.347 301.200 C 314.083 301.200,313.967 301.099,314.090 300.977 C 314.213 300.854,313.028 299.509,311.457 297.988 C 309.886 296.468,308.450 295.053,308.268 294.844 C 307.837 294.353,305.647 292.163,305.156 291.732 C 304.947 291.550,303.532 290.114,302.012 288.543 C 300.491 286.972,299.146 285.787,299.023 285.910 C 298.901 286.033,298.800 285.917,298.800 285.653 C 298.800 285.028,296.153 282.380,295.840 282.693 C 295.708 282.825,295.600 282.749,295.600 282.525 C 295.600 281.956,292.112 278.421,291.830 278.703 C 291.703 278.830,291.600 278.623,291.600 278.243 C 291.600 277.863,291.420 277.664,291.200 277.800 C 290.980 277.936,290.800 277.833,290.800 277.571 C 290.800 277.018,289.269 275.600,288.672 275.600 C 288.449 275.600,288.373 275.494,288.503 275.364 C 288.777 275.090,286.111 272.400,285.566 272.400 C 285.365 272.400,285.200 272.233,285.200 272.029 C 285.200 271.544,278.456 264.800,277.971 264.800 C 277.767 264.800,277.600 264.635,277.600 264.434 C 277.600 263.889,274.910 261.223,274.636 261.497 C 274.506 261.627,274.400 261.525,274.400 261.270 C 274.400 260.709,272.046 258.400,271.474 258.400 C 271.250 258.400,271.170 258.297,271.297 258.170 C 271.579 257.888,268.044 254.400,267.475 254.400 C 267.251 254.400,267.175 254.292,267.307 254.160 C 267.620 253.847,264.972 251.200,264.347 251.200 C 264.083 251.200,263.967 251.099,264.090 250.977 C 264.305 250.762,259.771 246.141,257.931 244.700 C 257.328 244.228,257.226 243.998,257.619 243.994 C 258.115 243.989,258.112 243.931,257.600 243.600 C 257.014 243.221,257.437 242.999,258.471 243.143 C 258.620 243.164,258.973 242.658,259.256 242.019 C 259.538 241.380,259.912 240.945,260.085 241.052 C 260.258 241.160,260.400 240.979,260.400 240.651 C 260.400 240.322,260.760 239.940,261.200 239.800 C 261.640 239.660,262.000 239.278,262.000 238.949 C 262.000 238.621,262.135 238.435,262.300 238.534 C 262.691 238.771,263.626 237.760,263.309 237.443 C 263.176 237.309,263.367 237.200,263.733 237.200 C 264.100 237.200,264.400 236.930,264.400 236.600 C 264.400 236.270,264.591 236.000,264.824 236.000 C 265.057 236.000,265.143 235.831,265.015 235.624 C 264.887 235.417,265.011 235.054,265.291 234.817 C 265.571 234.579,266.176 234.074,266.636 233.693 C 267.096 233.312,267.594 232.505,267.744 231.900 C 267.893 231.294,268.292 230.800,268.631 230.800 C 268.970 230.800,269.136 230.620,269.000 230.400 C 268.864 230.180,268.954 230.000,269.200 230.000 C 269.446 230.000,269.556 229.853,269.445 229.673 C 269.334 229.493,269.584 229.100,270.000 228.800 C 270.416 228.500,270.666 228.107,270.555 227.927 C 270.444 227.747,270.554 227.600,270.800 227.600 C 271.046 227.600,271.136 227.420,271.000 227.200 C 270.864 226.980,270.954 226.800,271.200 226.800 C 271.446 226.800,271.543 226.631,271.415 226.425 C 271.288 226.218,271.502 225.864,271.892 225.637 C 272.281 225.410,272.420 225.216,272.200 225.206 C 271.980 225.196,272.068 225.018,272.397 224.811 C 272.725 224.603,272.995 224.111,272.997 223.717 C 272.999 223.288,273.241 223.054,273.600 223.133 C 273.930 223.207,274.065 223.131,273.899 222.966 C 273.734 222.800,273.914 222.304,274.299 221.864 C 274.801 221.289,274.830 221.158,274.400 221.400 C 273.969 221.642,273.997 221.512,274.500 220.937 C 274.885 220.497,275.200 219.826,275.200 219.445 C 275.200 219.064,275.343 218.841,275.517 218.949 C 275.691 219.056,275.862 218.768,275.897 218.308 C 275.932 217.848,276.104 217.366,276.280 217.236 C 276.758 216.883,277.599 215.283,277.609 214.705 C 277.614 214.427,277.970 213.750,278.400 213.200 C 278.830 212.650,279.186 211.784,279.191 211.276 C 279.196 210.764,279.378 210.463,279.600 210.600 C 279.827 210.740,280.000 210.404,280.000 209.824 C 280.000 209.261,280.135 208.799,280.300 208.797 C 280.701 208.793,281.600 206.819,281.600 205.944 C 281.600 205.561,281.780 205.136,282.000 205.000 C 282.220 204.864,282.400 204.223,282.400 203.576 C 282.400 202.929,282.580 202.400,282.800 202.400 C 283.020 202.400,283.200 201.950,283.200 201.400 C 283.200 200.850,283.388 200.400,283.618 200.400 C 283.847 200.400,284.006 200.175,283.970 199.900 C 283.819 198.733,284.026 197.569,284.349 197.769 C 284.542 197.888,284.716 197.147,284.736 196.124 C 284.757 195.101,284.914 194.159,285.087 194.032 C 285.259 193.904,285.449 193.358,285.510 192.817 C 285.570 192.277,285.750 191.737,285.910 191.617 C 286.069 191.498,286.236 190.860,286.280 190.200 C 286.465 187.419,286.614 186.402,286.835 186.401 C 286.965 186.400,287.095 185.725,287.126 184.900 C 287.157 184.075,287.295 182.882,287.434 182.250 C 287.629 181.360,287.563 181.163,287.143 181.380 C 286.844 181.533,286.900 181.412,287.267 181.110 C 287.944 180.552,288.317 158.065,287.667 157.000 C 287.336 156.458,287.229 155.754,287.121 153.400 C 287.071 152.300,286.909 151.310,286.761 151.200 C 286.614 151.090,286.409 150.261,286.306 149.357 C 286.203 148.454,286.001 147.524,285.857 147.292 C 285.713 147.059,285.821 146.785,286.098 146.684 C 286.500 146.537,286.500 146.394,286.100 145.970 C 285.825 145.679,285.600 144.861,285.600 144.153 C 285.600 143.446,285.426 142.807,285.213 142.733 C 285.000 142.660,284.781 142.015,284.728 141.300 C 284.674 140.585,284.488 140.000,284.315 140.000 C 284.142 140.000,284.000 139.565,284.000 139.033 C 284.000 138.502,283.828 138.007,283.618 137.933 C 283.407 137.860,283.191 137.137,283.137 136.326 C 283.084 135.515,282.896 134.941,282.720 135.049 C 282.544 135.158,282.400 134.686,282.400 134.000 C 282.400 133.270,282.234 132.855,282.000 133.000 C 281.774 133.140,281.600 132.812,281.600 132.247 C 281.600 131.697,281.420 131.136,281.200 131.000 C 280.980 130.864,280.800 130.349,280.800 129.856 C 280.800 129.363,280.642 128.789,280.448 128.580 C 280.255 128.371,279.869 127.480,279.590 126.600 C 279.312 125.720,278.972 124.910,278.834 124.800 C 278.696 124.690,277.958 123.340,277.194 121.800 C 276.429 120.260,275.668 118.940,275.502 118.867 C 275.336 118.793,275.200 118.298,275.200 117.767 C 275.200 117.235,275.009 116.800,274.776 116.800 C 274.543 116.800,274.457 116.631,274.585 116.425 C 274.712 116.218,274.534 115.891,274.189 115.698 C 273.844 115.505,273.532 114.954,273.496 114.473 C 273.459 113.993,273.277 113.600,273.091 113.600 C 272.905 113.600,272.867 113.416,273.006 113.190 C 273.145 112.965,273.029 112.830,272.748 112.890 C 272.467 112.951,272.228 112.781,272.218 112.513 C 272.208 112.245,271.900 111.675,271.533 111.247 C 271.166 110.818,270.967 110.367,271.090 110.243 C 271.214 110.120,271.020 109.906,270.660 109.768 C 270.299 109.629,270.105 109.354,270.228 109.155 C 270.350 108.957,270.170 108.687,269.828 108.555 C 269.485 108.424,269.293 108.174,269.400 108.000 C 269.507 107.826,269.326 107.581,268.998 107.454 C 268.669 107.328,268.400 106.949,268.400 106.613 C 268.400 106.276,268.136 106.000,267.813 106.000 C 267.455 106.000,267.315 105.765,267.455 105.400 C 267.582 105.070,267.486 104.800,267.243 104.800 C 266.999 104.800,266.800 104.623,266.800 104.407 C 266.800 104.191,266.169 103.365,265.399 102.571 C 264.628 101.778,264.117 100.919,264.263 100.664 C 264.409 100.409,264.398 100.316,264.240 100.458 C 263.988 100.682,262.000 99.034,262.000 98.601 C 262.000 98.512,261.325 97.778,260.500 96.972 C 259.675 96.165,259.046 95.344,259.102 95.147 C 259.158 94.951,258.645 94.450,257.962 94.035 C 257.279 93.620,256.380 92.721,255.965 92.038 C 255.550 91.355,255.049 90.842,254.853 90.898 C 254.656 90.954,253.835 90.325,253.028 89.500 C 252.222 88.675,251.488 88.000,251.399 88.000 C 250.981 88.000,249.315 86.018,249.542 85.791 C 249.684 85.649,249.620 85.586,249.400 85.650 C 249.180 85.715,248.460 85.467,247.800 85.100 C 247.140 84.733,246.748 84.425,246.929 84.416 C 247.545 84.386,246.059 83.200,245.405 83.200 C 245.046 83.200,244.864 83.020,245.000 82.800 C 245.136 82.580,245.006 82.400,244.712 82.400 C 244.417 82.400,243.924 82.050,243.615 81.621 C 243.307 81.193,242.907 80.934,242.727 81.045 C 242.547 81.156,242.400 81.046,242.400 80.800 C 242.400 80.554,242.239 80.452,242.042 80.574 C 241.845 80.696,241.580 80.525,241.453 80.194 C 241.326 79.863,241.079 79.639,240.903 79.696 C 240.728 79.753,240.156 79.401,239.632 78.914 C 239.108 78.426,238.526 78.122,238.339 78.237 C 238.153 78.353,238.000 78.246,238.000 78.000 C 238.000 77.754,237.820 77.664,237.600 77.800 C 237.380 77.936,237.200 77.756,237.200 77.400 C 237.200 77.044,237.020 76.864,236.800 77.000 C 236.580 77.136,236.400 77.057,236.400 76.824 C 236.400 76.591,236.265 76.421,236.100 76.447 C 235.385 76.560,234.865 76.350,234.000 75.600 C 233.493 75.160,232.645 74.800,232.115 74.800 C 231.575 74.800,231.261 74.624,231.400 74.400 C 231.536 74.180,231.277 74.000,230.824 74.000 C 230.371 74.000,230.000 73.820,230.000 73.600 C 230.000 73.380,229.712 73.200,229.360 73.200 C 229.009 73.200,227.590 72.579,226.208 71.819 C 224.826 71.060,223.584 70.550,223.448 70.686 C 223.311 70.822,223.200 70.723,223.200 70.467 C 223.200 70.210,222.930 70.000,222.600 70.000 C 222.270 70.000,222.000 69.820,222.000 69.600 C 222.000 69.380,221.565 69.200,221.033 69.200 C 220.501 69.200,219.226 68.840,218.200 68.400 C 217.174 67.960,215.978 67.600,215.543 67.600 C 215.085 67.600,214.864 67.421,215.017 67.173 C 215.162 66.939,215.037 66.780,214.740 66.821 C 213.491 66.992,212.370 66.772,212.600 66.400 C 212.744 66.167,212.345 66.000,211.647 66.000 C 210.987 66.000,210.336 65.820,210.200 65.600 C 210.064 65.380,209.333 65.200,208.576 65.200 C 207.819 65.200,207.200 65.028,207.200 64.817 C 207.200 64.606,206.576 64.483,205.814 64.543 C 204.953 64.611,204.352 64.453,204.227 64.126 C 204.116 63.837,203.794 63.603,203.513 63.606 C 203.154 63.610,203.180 63.729,203.600 64.000 C 203.961 64.233,204.010 64.390,203.724 64.394 C 203.462 64.397,203.149 64.241,203.029 64.047 C 202.909 63.853,202.090 63.685,201.208 63.672 C 200.326 63.660,199.402 63.525,199.154 63.372 C 198.739 63.115,195.973 62.765,194.291 62.755 C 193.902 62.753,193.672 62.607,193.782 62.429 C 194.102 61.912,168.862 62.044,168.432 62.562 M179.451 75.517 C 179.344 75.691,179.646 75.863,180.123 75.899 C 180.810 75.951,180.866 75.886,180.395 75.588 C 179.941 75.301,180.066 75.211,180.924 75.206 C 181.572 75.203,181.943 75.369,181.800 75.600 C 181.664 75.820,181.743 76.000,181.976 76.000 C 182.209 76.000,182.400 75.843,182.400 75.650 C 182.400 75.458,182.850 75.300,183.400 75.300 C 183.950 75.300,184.400 75.437,184.400 75.604 C 184.400 75.771,186.409 75.937,188.863 75.973 C 191.318 76.010,193.646 76.211,194.037 76.420 C 194.428 76.629,195.490 76.800,196.397 76.800 C 197.395 76.800,197.950 76.958,197.800 77.200 C 197.647 77.448,198.396 77.600,199.776 77.600 C 200.999 77.600,202.000 77.780,202.000 78.000 C 202.000 78.220,202.510 78.400,203.133 78.400 C 203.757 78.400,204.391 78.525,204.544 78.677 C 204.696 78.829,205.221 79.009,205.710 79.076 C 207.359 79.303,210.000 80.172,210.000 80.487 C 210.000 80.659,210.551 80.800,211.224 80.800 C 211.897 80.800,212.364 80.935,212.262 81.100 C 212.160 81.265,212.534 81.427,213.092 81.461 C 213.650 81.495,214.488 81.703,214.953 81.925 C 215.795 82.325,217.126 82.854,217.700 83.015 C 217.865 83.062,218.135 83.144,218.300 83.197 C 218.465 83.251,218.735 83.273,218.900 83.247 C 219.065 83.221,219.200 83.380,219.200 83.600 C 219.200 83.820,219.470 84.000,219.800 84.000 C 220.130 84.000,220.400 84.180,220.400 84.400 C 220.400 84.620,220.649 84.800,220.954 84.800 C 221.832 84.800,223.619 85.848,223.294 86.173 C 223.132 86.334,223.180 86.430,223.400 86.386 C 224.334 86.197,225.103 86.450,225.925 87.216 C 226.406 87.664,226.803 87.889,226.806 87.716 C 226.809 87.542,226.963 87.637,227.146 87.927 C 227.330 88.216,227.822 88.510,228.240 88.580 C 228.658 88.649,228.952 88.916,228.894 89.172 C 228.835 89.428,229.016 89.585,229.296 89.521 C 229.576 89.457,230.222 89.822,230.733 90.333 C 231.244 90.844,231.917 91.164,232.228 91.044 C 232.548 90.922,233.486 91.475,234.382 92.314 C 235.255 93.131,236.197 93.859,236.477 93.931 C 236.757 94.003,237.664 94.754,238.493 95.599 C 239.322 96.445,240.000 96.957,240.000 96.737 C 240.000 96.517,240.727 97.071,241.615 97.968 C 242.504 98.866,243.394 99.600,243.593 99.600 C 243.792 99.600,244.268 100.130,244.651 100.778 C 245.034 101.426,245.494 101.866,245.673 101.755 C 245.853 101.644,246.000 101.833,246.000 102.176 C 246.000 102.519,246.270 102.800,246.600 102.800 C 246.930 102.800,247.200 103.070,247.200 103.400 C 247.200 103.730,247.481 104.000,247.824 104.000 C 248.167 104.000,248.336 104.180,248.200 104.400 C 248.064 104.620,248.221 104.800,248.549 104.800 C 248.878 104.800,249.261 105.163,249.402 105.606 C 249.543 106.049,249.825 106.308,250.029 106.182 C 250.233 106.056,250.400 106.136,250.400 106.361 C 250.400 106.585,251.134 107.496,252.032 108.385 C 252.929 109.273,253.424 110.003,253.132 110.006 C 252.724 110.011,252.736 110.098,253.181 110.380 C 253.500 110.582,253.905 110.658,254.081 110.550 C 254.256 110.442,254.400 110.599,254.400 110.901 C 254.400 111.202,254.756 111.831,255.191 112.299 C 255.627 112.766,256.032 113.375,256.091 113.653 C 256.151 113.931,256.695 114.589,257.300 115.115 C 257.905 115.641,258.400 116.325,258.400 116.636 C 258.400 116.946,258.574 117.200,258.787 117.200 C 259.001 117.200,259.087 117.430,258.979 117.711 C 258.871 117.993,259.057 118.578,259.392 119.011 C 259.998 119.794,260.000 119.794,259.773 119.000 C 259.603 118.403,259.693 118.448,260.129 119.180 C 260.451 119.719,260.621 120.401,260.508 120.696 C 260.390 121.003,260.529 121.183,260.833 121.116 C 261.125 121.052,261.372 121.232,261.382 121.515 C 261.392 121.798,261.648 122.182,261.951 122.370 C 262.254 122.557,262.379 122.911,262.228 123.155 C 262.076 123.400,262.143 123.600,262.376 123.600 C 262.609 123.600,262.800 123.855,262.800 124.167 C 262.800 124.478,262.988 124.796,263.218 124.873 C 263.448 124.949,263.665 125.406,263.702 125.889 C 263.738 126.371,263.847 126.686,263.944 126.589 C 264.181 126.352,265.200 128.346,265.200 129.046 C 265.200 129.351,265.341 129.600,265.512 129.600 C 265.780 129.600,266.819 131.665,266.955 132.467 C 266.980 132.613,267.135 132.868,267.300 133.033 C 267.465 133.198,267.600 133.843,267.600 134.467 C 267.600 135.090,267.780 135.600,268.000 135.600 C 268.220 135.600,268.400 135.960,268.400 136.400 C 268.400 136.840,268.625 137.203,268.900 137.206 C 269.233 137.210,269.200 137.342,268.800 137.600 C 268.400 137.858,268.367 137.990,268.700 137.994 C 268.975 137.997,269.200 138.439,269.200 138.976 C 269.200 139.513,269.380 140.064,269.600 140.200 C 269.820 140.336,270.000 140.797,270.000 141.224 C 270.000 141.651,270.180 142.000,270.400 142.000 C 270.620 142.000,270.800 142.615,270.800 143.367 C 270.800 144.118,270.982 144.794,271.204 144.868 C 271.427 144.942,271.645 145.844,271.690 146.872 C 271.735 147.900,271.913 148.654,272.086 148.547 C 272.259 148.440,272.400 148.957,272.400 149.696 C 272.400 150.435,272.570 151.211,272.777 151.420 C 272.984 151.629,273.195 152.835,273.245 154.100 C 273.296 155.365,273.486 156.400,273.668 156.400 C 273.851 156.400,274.000 158.391,274.000 160.824 C 274.000 163.257,274.141 165.160,274.314 165.053 C 274.487 164.946,274.629 165.192,274.629 165.600 C 274.629 166.008,274.518 166.273,274.382 166.189 C 274.246 166.105,274.111 169.119,274.081 172.886 C 274.051 176.654,273.880 179.840,273.701 179.968 C 273.521 180.096,273.321 181.458,273.257 182.996 C 273.192 184.533,272.981 185.982,272.787 186.215 C 272.594 186.448,272.392 187.293,272.338 188.093 C 272.284 188.894,272.096 189.459,271.920 189.351 C 271.744 189.242,271.600 189.963,271.600 190.953 C 271.600 191.943,271.420 192.864,271.200 193.000 C 270.980 193.136,270.800 193.597,270.800 194.024 C 270.800 194.451,270.659 194.800,270.487 194.800 C 270.315 194.800,270.134 195.285,270.085 195.878 C 270.036 196.470,269.772 197.098,269.498 197.271 C 269.122 197.510,269.142 197.589,269.580 197.594 C 270.031 197.599,270.053 197.707,269.680 198.080 C 269.416 198.344,269.200 198.884,269.200 199.280 C 269.200 199.676,268.975 200.003,268.700 200.006 C 268.367 200.010,268.400 200.142,268.800 200.400 C 269.200 200.658,269.233 200.790,268.900 200.794 C 268.625 200.797,268.400 201.171,268.400 201.624 C 268.400 202.146,268.230 202.342,267.937 202.161 C 267.622 201.966,267.544 202.142,267.693 202.712 C 267.831 203.241,267.692 203.632,267.314 203.778 C 266.986 203.904,266.809 204.246,266.921 204.539 C 267.159 205.158,266.065 207.600,265.550 207.600 C 265.358 207.600,265.200 208.151,265.200 208.824 C 265.200 209.537,265.033 209.944,264.800 209.800 C 264.440 209.578,264.227 210.103,264.353 210.900 C 264.379 211.065,264.220 211.200,264.000 211.200 C 263.780 211.200,263.600 211.481,263.600 211.824 C 263.600 212.167,263.408 212.329,263.173 212.183 C 262.939 212.038,262.787 212.163,262.836 212.460 C 262.970 213.264,262.380 214.481,261.338 215.548 C 260.829 216.070,260.511 216.656,260.632 216.851 C 260.752 217.046,260.569 217.314,260.225 217.446 C 259.881 217.578,259.600 217.857,259.600 218.066 C 259.600 218.276,259.825 218.316,260.100 218.155 C 260.375 217.994,260.105 218.367,259.500 218.985 C 258.467 220.040,258.225 220.539,258.363 221.330 C 258.394 221.511,258.235 221.545,258.010 221.406 C 257.784 221.267,257.600 221.406,257.600 221.714 C 257.600 222.023,257.240 222.602,256.800 223.000 C 256.360 223.398,256.000 223.915,256.000 224.149 C 256.000 224.383,255.522 224.985,254.938 225.487 C 254.354 225.989,254.034 226.400,254.227 226.400 C 254.420 226.400,254.178 226.680,253.689 227.023 C 253.200 227.365,252.800 227.887,252.800 228.183 C 252.800 228.479,252.275 229.054,251.632 229.461 C 250.990 229.867,250.405 230.380,250.332 230.600 C 250.260 230.820,250.065 230.955,249.900 230.900 C 249.620 230.807,249.444 231.414,249.553 232.100 C 249.579 232.265,249.375 232.355,249.100 232.300 C 248.825 232.245,248.645 232.425,248.700 232.700 C 248.787 233.133,248.248 233.393,247.871 233.100 C 247.634 232.916,246.400 234.337,246.400 234.795 C 246.400 235.044,246.220 235.136,246.000 235.000 C 245.780 234.864,245.586 235.168,245.568 235.676 C 245.551 236.184,245.448 236.380,245.339 236.111 C 245.146 235.635,243.200 237.206,243.200 237.839 C 243.200 238.180,241.205 240.040,240.169 240.663 C 239.746 240.917,239.445 241.322,239.500 241.563 C 239.555 241.803,239.358 242.000,239.062 242.000 C 238.766 242.000,238.209 242.348,237.824 242.773 C 237.440 243.198,236.872 243.449,236.562 243.330 C 236.223 243.200,236.000 243.369,236.000 243.757 C 236.000 244.111,235.865 244.355,235.700 244.301 C 235.214 244.140,232.400 245.934,232.400 246.404 C 232.400 246.641,232.175 246.799,231.900 246.754 C 231.129 246.630,229.978 247.241,230.226 247.642 C 230.348 247.839,230.167 248.000,229.824 248.000 C 229.481 248.000,228.840 248.360,228.400 248.800 C 227.960 249.240,227.317 249.600,226.971 249.600 C 226.302 249.600,225.116 250.582,225.419 250.886 C 225.519 250.985,225.375 251.084,225.100 251.104 C 224.213 251.171,221.379 252.363,222.000 252.409 C 222.330 252.433,221.648 252.764,220.485 253.144 C 219.321 253.525,218.496 253.963,218.651 254.118 C 218.916 254.383,217.604 254.573,216.500 254.430 C 216.225 254.394,216.000 254.553,216.000 254.782 C 216.000 255.012,215.629 255.200,215.176 255.200 C 214.723 255.200,214.464 255.380,214.600 255.600 C 214.740 255.827,214.404 256.000,213.824 256.000 C 213.261 256.000,212.800 256.142,212.800 256.315 C 212.800 256.488,212.260 256.671,211.601 256.721 C 210.942 256.771,209.766 257.170,208.989 257.606 C 208.212 258.043,207.052 258.400,206.411 258.400 C 205.771 258.400,205.149 258.559,205.029 258.753 C 204.909 258.947,204.075 259.116,203.176 259.128 C 202.277 259.141,201.316 259.338,201.041 259.566 C 200.766 259.794,200.140 259.904,199.650 259.810 C 199.155 259.714,198.673 259.866,198.563 260.151 C 198.427 260.506,197.577 260.642,195.804 260.590 C 194.205 260.543,193.176 260.685,193.068 260.967 C 192.952 261.270,191.306 261.409,188.053 261.389 C 185.390 261.373,183.425 261.492,183.686 261.653 C 183.947 261.814,183.521 261.896,182.740 261.834 C 181.958 261.772,181.125 261.601,180.887 261.454 C 180.650 261.307,180.342 261.370,180.204 261.593 C 180.066 261.817,179.558 261.987,179.076 261.972 C 178.231 261.945,178.229 261.931,179.000 261.600 C 179.763 261.272,179.759 261.255,178.900 261.228 C 178.405 261.213,178.000 261.380,178.000 261.600 C 178.000 261.820,177.730 262.000,177.400 262.000 C 177.070 262.000,176.800 261.865,176.800 261.700 C 176.800 261.535,175.765 261.407,174.500 261.415 C 173.235 261.423,171.480 261.281,170.600 261.099 C 169.720 260.917,168.170 260.712,167.155 260.642 C 166.141 260.573,165.061 260.359,164.755 260.168 C 164.450 259.977,163.480 259.800,162.600 259.775 C 160.238 259.708,159.929 259.638,160.182 259.228 C 160.311 259.020,159.887 258.923,159.217 259.008 C 158.560 259.091,157.916 258.988,157.787 258.780 C 157.658 258.571,157.059 258.400,156.456 258.400 C 155.853 258.400,155.118 258.175,154.821 257.900 C 154.390 257.499,154.340 257.501,154.571 257.910 C 154.733 258.196,154.226 258.064,153.418 257.610 C 152.625 257.164,151.567 256.800,151.068 256.800 C 150.024 256.800,148.008 255.945,148.003 255.500 C 148.001 255.335,147.460 255.200,146.800 255.200 C 146.140 255.200,145.600 255.020,145.600 254.800 C 145.600 254.580,145.366 254.400,145.080 254.400 C 144.320 254.400,142.407 253.454,142.403 253.076 C 142.401 252.898,142.232 252.856,142.028 252.983 C 141.823 253.109,141.547 253.038,141.415 252.824 C 141.283 252.610,140.865 252.546,140.487 252.681 C 140.109 252.817,139.926 252.787,140.081 252.616 C 140.393 252.270,139.427 251.142,138.921 251.263 C 138.410 251.385,136.400 250.308,136.400 249.912 C 136.400 249.715,136.211 249.670,135.979 249.813 C 135.748 249.956,135.111 249.590,134.564 248.999 C 133.979 248.368,133.323 248.021,132.970 248.156 C 132.636 248.284,132.269 248.123,132.142 247.793 C 132.017 247.467,131.653 247.200,131.334 247.200 C 131.014 247.200,130.864 247.020,131.000 246.800 C 131.136 246.580,130.967 246.400,130.624 246.400 C 130.281 246.400,130.000 246.201,130.000 245.957 C 130.000 245.714,129.721 245.622,129.379 245.753 C 129.038 245.884,128.860 245.826,128.985 245.624 C 129.110 245.422,128.842 245.199,128.390 245.129 C 127.938 245.058,127.551 244.820,127.530 244.600 C 127.473 243.999,126.056 243.118,125.599 243.400 C 125.380 243.536,125.200 243.487,125.200 243.291 C 125.200 243.095,124.756 242.698,124.214 242.407 C 123.671 242.117,123.322 241.727,123.437 241.540 C 123.553 241.353,123.476 241.200,123.266 241.200 C 123.056 241.200,122.336 240.688,121.666 240.061 C 120.995 239.435,119.986 238.621,119.423 238.252 C 118.860 237.883,118.400 237.305,118.400 236.967 C 118.400 236.629,118.220 236.464,118.000 236.600 C 117.780 236.736,117.597 236.522,117.594 236.124 C 117.590 235.675,117.476 235.570,117.294 235.847 C 117.104 236.135,116.398 235.685,115.304 234.579 C 114.226 233.489,113.789 232.791,114.104 232.664 C 114.387 232.549,114.289 232.450,113.876 232.432 C 113.478 232.414,113.264 232.220,113.400 232.000 C 113.536 231.780,113.371 231.600,113.033 231.600 C 112.695 231.600,112.117 231.140,111.748 230.577 C 111.379 230.014,110.565 229.005,109.939 228.334 C 109.312 227.664,108.800 226.944,108.800 226.734 C 108.800 226.524,108.620 226.464,108.400 226.600 C 108.180 226.736,108.000 226.556,108.000 226.200 C 108.000 225.844,107.820 225.664,107.600 225.800 C 107.380 225.936,107.200 225.767,107.200 225.424 C 107.200 225.081,107.009 224.800,106.776 224.800 C 106.543 224.800,106.460 224.627,106.590 224.416 C 106.905 223.907,105.943 222.400,105.304 222.400 C 105.027 222.400,104.800 222.029,104.800 221.576 C 104.800 221.056,104.630 220.858,104.338 221.038 C 104.041 221.222,103.985 221.147,104.182 220.830 C 104.367 220.530,104.156 220.105,103.643 219.745 C 103.180 219.420,102.800 218.914,102.800 218.620 C 102.800 218.326,102.533 217.983,102.207 217.858 C 101.880 217.733,101.712 217.373,101.833 217.059 C 101.953 216.745,101.580 216.017,101.004 215.441 C 100.428 214.865,100.067 214.215,100.202 213.997 C 100.337 213.778,100.287 213.600,100.091 213.600 C 99.895 213.600,99.480 213.105,99.168 212.500 C 98.856 211.895,98.421 211.268,98.201 211.106 C 97.960 210.930,98.025 210.810,98.361 210.806 C 98.768 210.802,98.713 210.607,98.160 210.100 C 97.129 209.152,96.089 207.780,96.663 208.124 C 97.013 208.334,97.013 208.158,96.663 207.404 C 96.408 206.855,96.065 206.405,95.900 206.403 C 95.735 206.401,95.596 205.905,95.591 205.300 C 95.586 204.695,95.230 203.750,94.800 203.200 C 94.370 202.650,94.014 201.795,94.009 201.300 C 94.004 200.805,93.820 200.400,93.600 200.400 C 93.380 200.400,93.200 199.986,93.200 199.480 C 93.200 198.974,92.975 198.318,92.700 198.021 C 92.294 197.584,92.312 197.542,92.800 197.800 C 93.288 198.058,93.306 198.016,92.900 197.579 C 92.625 197.282,92.400 196.716,92.400 196.320 C 92.400 195.924,92.250 195.600,92.067 195.600 C 91.723 195.600,91.700 195.493,91.561 193.314 C 91.516 192.606,91.327 192.122,91.140 192.237 C 90.954 192.352,90.869 191.851,90.952 191.123 C 91.035 190.395,90.888 189.350,90.626 188.800 C 90.363 188.250,90.171 187.350,90.199 186.800 C 90.226 186.250,90.086 185.581,89.887 185.313 C 89.687 185.046,89.496 184.011,89.462 183.013 C 89.428 182.016,89.246 181.200,89.057 181.200 C 88.869 181.200,88.818 180.930,88.945 180.600 C 89.071 180.270,89.046 180.000,88.887 180.000 C 88.729 180.000,88.603 177.675,88.607 174.834 C 88.610 171.993,88.514 169.730,88.391 169.805 C 88.269 169.881,88.141 168.920,88.107 167.671 C 88.067 166.199,88.157 165.681,88.363 166.200 C 88.546 166.659,88.669 165.001,88.653 162.307 C 88.634 159.118,88.781 157.459,89.113 157.127 C 89.381 156.859,89.597 156.451,89.594 156.220 C 89.591 155.989,89.413 156.070,89.200 156.400 C 88.869 156.913,88.811 156.898,88.806 156.300 C 88.803 155.915,88.954 155.600,89.143 155.600 C 89.332 155.600,89.446 154.880,89.396 154.000 C 89.347 153.120,89.456 152.400,89.640 152.400 C 89.824 152.400,89.871 152.130,89.745 151.800 C 89.618 151.470,89.702 151.200,89.931 151.200 C 90.160 151.200,90.268 150.762,90.170 150.226 C 90.073 149.690,90.182 149.134,90.413 148.992 C 90.644 148.849,90.728 148.403,90.600 148.000 C 90.472 147.597,90.562 147.147,90.800 147.000 C 91.038 146.853,91.123 146.388,90.989 145.966 C 90.853 145.538,90.934 145.200,91.173 145.200 C 91.408 145.200,91.600 144.570,91.600 143.800 C 91.600 143.030,91.780 142.400,92.000 142.400 C 92.220 142.400,92.400 141.871,92.400 141.224 C 92.400 140.577,92.580 139.936,92.800 139.800 C 93.020 139.664,93.200 139.103,93.200 138.553 C 93.200 137.988,93.374 137.660,93.600 137.800 C 93.826 137.940,94.000 137.610,94.000 137.042 C 94.000 135.871,94.777 134.000,95.264 134.000 C 95.449 134.000,95.600 133.460,95.600 132.800 C 95.600 132.140,95.780 131.600,96.000 131.600 C 96.220 131.600,96.400 131.347,96.400 131.038 C 96.400 130.372,98.068 127.059,98.500 126.867 C 98.665 126.793,98.800 126.422,98.800 126.042 C 98.800 125.662,99.124 125.002,99.520 124.575 C 100.451 123.573,101.047 122.256,101.150 120.976 C 101.178 120.633,101.380 120.464,101.600 120.600 C 101.820 120.736,102.000 120.487,102.000 120.047 C 102.000 119.607,102.208 119.119,102.462 118.962 C 102.771 118.771,102.818 118.862,102.603 119.238 C 102.374 119.639,102.411 119.683,102.731 119.390 C 102.978 119.165,103.434 118.265,103.746 117.390 C 104.058 116.516,104.526 115.849,104.786 115.910 C 105.046 115.970,105.172 115.878,105.065 115.705 C 104.857 115.369,105.770 113.929,106.164 113.973 C 106.294 113.988,106.355 113.929,106.300 113.842 C 106.245 113.755,106.543 113.305,106.962 112.842 C 107.381 112.379,107.584 112.000,107.413 112.000 C 107.242 112.000,107.324 111.732,107.596 111.404 C 107.868 111.077,108.250 110.907,108.445 111.028 C 108.640 111.149,108.800 110.949,108.800 110.584 C 108.800 109.754,111.379 107.124,111.811 107.513 C 111.985 107.671,112.013 107.598,111.872 107.352 C 111.575 106.831,112.866 105.200,113.575 105.200 C 114.357 105.200,115.295 104.101,114.696 103.887 C 114.423 103.789,114.830 103.412,115.600 103.049 C 116.370 102.685,116.640 102.492,116.200 102.619 C 115.450 102.835,115.455 102.798,116.283 102.025 C 116.769 101.571,117.365 101.200,117.607 101.200 C 117.849 101.200,117.944 101.033,117.818 100.829 C 117.692 100.625,117.954 100.342,118.400 100.200 C 118.846 100.058,119.094 99.752,118.950 99.519 C 118.801 99.277,118.925 99.175,119.241 99.280 C 119.545 99.382,119.990 99.090,120.230 98.632 C 120.469 98.175,120.865 97.841,121.108 97.892 C 121.352 97.942,121.661 97.639,121.795 97.217 C 121.928 96.796,122.434 96.390,122.919 96.316 C 123.404 96.242,123.755 95.960,123.700 95.691 C 123.645 95.421,123.825 95.197,124.100 95.193 C 124.375 95.189,125.024 94.739,125.542 94.193 C 126.060 93.647,126.669 93.200,126.895 93.200 C 127.121 93.200,127.597 92.869,127.953 92.464 C 128.309 92.059,129.102 91.604,129.716 91.452 C 130.401 91.283,130.725 91.002,130.555 90.726 C 130.385 90.453,130.456 90.388,130.735 90.560 C 130.987 90.716,131.510 90.640,131.897 90.391 C 132.561 89.965,132.560 89.952,131.879 90.165 C 131.459 90.297,131.260 90.226,131.403 89.995 C 131.537 89.778,131.885 89.600,132.175 89.600 C 132.465 89.600,132.933 89.322,133.215 88.982 C 133.497 88.642,133.976 88.459,134.279 88.575 C 134.582 88.691,134.933 88.520,135.058 88.193 C 135.183 87.867,135.523 87.600,135.814 87.600 C 136.105 87.600,136.626 87.317,136.971 86.971 C 137.392 86.551,137.600 86.505,137.600 86.833 C 137.600 87.102,137.936 86.935,138.347 86.461 C 138.758 85.988,139.398 85.600,139.771 85.600 C 140.143 85.600,140.336 85.420,140.200 85.200 C 140.059 84.972,140.401 84.800,140.993 84.800 C 141.565 84.800,142.420 84.440,142.892 84.000 C 143.364 83.560,144.041 83.200,144.395 83.200 C 144.750 83.200,145.282 82.975,145.579 82.700 C 146.010 82.300,146.061 82.300,145.835 82.700 C 145.680 82.975,145.743 83.200,145.976 83.200 C 146.209 83.200,146.400 83.020,146.400 82.800 C 146.400 82.580,146.771 82.400,147.224 82.400 C 147.677 82.400,147.948 82.240,147.828 82.045 C 147.621 81.711,148.419 81.470,151.500 80.937 C 152.215 80.814,152.800 80.552,152.800 80.356 C 152.800 80.160,153.325 80.000,153.967 80.000 C 154.608 80.000,155.196 79.812,155.273 79.582 C 155.349 79.352,155.814 79.134,156.306 79.097 C 156.798 79.060,157.200 78.926,157.200 78.800 C 157.200 78.674,157.785 78.526,158.500 78.472 C 159.215 78.419,159.860 78.200,159.933 77.987 C 160.007 77.774,160.242 77.600,160.457 77.600 C 160.672 77.600,160.736 77.780,160.600 78.000 C 160.464 78.220,160.528 78.400,160.743 78.400 C 160.958 78.400,161.193 78.232,161.267 78.027 C 161.340 77.822,162.163 77.584,163.095 77.499 C 164.027 77.413,164.912 77.221,165.062 77.072 C 165.211 76.922,165.855 76.800,166.493 76.800 C 167.131 76.800,167.982 76.624,168.384 76.409 C 168.786 76.193,170.945 75.995,173.181 75.968 C 175.417 75.941,177.731 75.772,178.324 75.593 C 178.916 75.415,179.456 75.253,179.524 75.234 C 179.592 75.215,179.559 75.343,179.451 75.517 " stroke="none" fill="#949494" fill-rule="evenodd"></path><path id="path1" d="M167.877 62.764 C 167.487 63.246,167.509 63.287,168.000 62.987 C 168.330 62.785,169.047 62.559,169.593 62.484 C 171.093 62.278,171.142 61.961,169.656 62.074 C 168.940 62.129,168.139 62.439,167.877 62.764 M198.600 63.200 C 199.701 63.673,200.092 63.673,199.800 63.200 C 199.664 62.980,199.158 62.813,198.676 62.828 C 197.831 62.855,197.829 62.869,198.600 63.200 M178.400 75.631 C 177.754 75.808,178.139 75.880,179.486 75.833 C 180.634 75.793,181.707 75.626,181.871 75.462 C 182.218 75.115,179.863 75.230,178.400 75.631 M182.400 75.650 C 182.400 75.843,182.850 76.000,183.400 76.000 C 183.950 76.000,184.400 75.843,184.400 75.650 C 184.400 75.458,183.950 75.300,183.400 75.300 C 182.850 75.300,182.400 75.458,182.400 75.650 M168.400 76.400 C 167.912 76.715,167.964 76.789,168.676 76.794 C 169.158 76.797,169.664 76.620,169.800 76.400 C 170.115 75.891,169.188 75.891,168.400 76.400 M232.400 91.127 C 232.400 91.316,232.850 91.677,233.400 91.927 C 233.950 92.178,234.400 92.317,234.400 92.237 C 234.400 92.157,233.950 91.797,233.400 91.437 C 232.850 91.076,232.400 90.937,232.400 91.127 M104.537 93.858 C 103.623 94.816,103.001 95.600,103.156 95.600 C 103.547 95.600,106.588 92.449,106.374 92.266 C 106.278 92.184,105.452 92.900,104.537 93.858 M256.260 92.611 C 256.389 92.947,256.878 93.422,257.347 93.665 C 258.132 94.073,258.122 94.024,257.230 93.054 C 256.115 91.842,255.932 91.758,256.260 92.611 M244.075 100.600 C 244.553 101.150,245.006 101.600,245.081 101.600 C 245.157 101.600,244.924 101.150,244.563 100.600 C 244.203 100.050,243.750 99.600,243.557 99.600 C 243.363 99.600,243.597 100.050,244.075 100.600 M116.200 102.057 L 115.400 102.867 116.500 102.369 C 117.105 102.096,117.600 101.720,117.600 101.536 C 117.600 100.989,117.054 101.193,116.200 102.057 M112.600 105.720 C 111.296 107.318,111.190 107.654,112.315 106.625 C 113.022 105.979,113.600 105.394,113.600 105.325 C 113.600 105.022,112.965 105.274,112.600 105.720 M90.263 112.083 C 89.938 113.325,90.185 113.389,90.726 112.202 C 90.977 111.651,91.028 111.200,90.838 111.200 C 90.648 111.200,90.389 111.597,90.263 112.083 M105.000 115.124 C 103.968 116.478,103.521 117.600,104.013 117.600 C 104.226 117.600,104.400 117.330,104.400 117.000 C 104.400 116.670,104.771 116.029,105.225 115.575 C 105.679 115.121,105.994 114.598,105.925 114.412 C 105.856 114.226,105.440 114.546,105.000 115.124 M88.038 167.000 C 88.027 168.220,88.116 168.442,88.412 167.935 C 88.657 167.516,88.662 166.925,88.426 166.335 C 88.098 165.517,88.049 165.601,88.038 167.000 M272.692 185.042 C 272.531 185.202,272.400 185.609,272.400 185.947 C 272.400 186.397,272.518 186.442,272.845 186.115 C 273.090 185.870,273.221 185.463,273.137 185.210 C 273.052 184.957,272.852 184.881,272.692 185.042 M76.800 192.910 C 76.800 193.703,76.991 194.471,77.226 194.616 C 77.515 194.795,77.562 194.388,77.372 193.339 C 77.003 191.297,76.800 191.145,76.800 192.910 M273.398 222.802 C 272.998 223.244,272.766 223.699,272.882 223.815 C 272.997 223.930,273.390 223.569,273.755 223.012 C 274.552 221.796,274.393 221.702,273.398 222.802 M115.272 234.553 C 116.222 235.517,117.049 236.263,117.109 236.210 C 117.391 235.964,116.673 234.832,116.358 235.026 C 116.161 235.148,116.000 234.967,116.000 234.624 C 116.000 234.281,115.719 234.000,115.376 234.000 C 115.033 234.000,114.852 233.839,114.974 233.642 C 115.162 233.338,114.373 232.800,113.739 232.800 C 113.632 232.800,114.322 233.589,115.272 234.553 M119.261 256.218 C 119.624 256.589,120.140 256.820,120.406 256.731 C 120.673 256.642,120.375 256.339,119.745 256.056 C 118.673 255.576,118.642 255.586,119.261 256.218 M160.176 259.420 C 161.036 260.062,161.768 260.196,161.430 259.648 C 161.310 259.455,160.805 259.194,160.306 259.068 C 159.432 258.848,159.427 258.860,160.176 259.420 M197.600 260.190 C 196.638 260.731,196.634 260.750,197.490 260.692 C 197.979 260.659,198.468 260.399,198.577 260.116 C 198.816 259.494,198.843 259.492,197.600 260.190 M176.800 261.600 C 176.800 261.820,177.070 262.000,177.400 262.000 C 177.730 262.000,178.000 261.820,178.000 261.600 C 178.000 261.380,177.730 261.200,177.400 261.200 C 177.070 261.200,176.800 261.380,176.800 261.600 M179.000 261.600 C 178.229 261.931,178.231 261.945,179.076 261.972 C 179.558 261.987,180.064 261.820,180.200 261.600 C 180.492 261.127,180.101 261.127,179.000 261.600 M182.084 261.539 C 181.753 261.750,182.008 261.867,182.800 261.867 C 183.592 261.867,183.847 261.750,183.516 261.539 C 183.232 261.359,182.910 261.212,182.800 261.212 C 182.690 261.212,182.368 261.359,182.084 261.539 " stroke="none" fill="#989494" fill-rule="evenodd"></path><path id="path2" d="M167.877 62.764 C 167.487 63.246,167.509 63.287,168.000 62.987 C 168.330 62.785,169.047 62.559,169.593 62.484 C 171.093 62.278,171.142 61.961,169.656 62.074 C 168.940 62.129,168.139 62.439,167.877 62.764 M198.600 63.200 C 199.701 63.673,200.092 63.673,199.800 63.200 C 199.664 62.980,199.158 62.813,198.676 62.828 C 197.831 62.855,197.829 62.869,198.600 63.200 M178.400 75.631 C 177.754 75.808,178.139 75.880,179.486 75.833 C 180.634 75.793,181.707 75.626,181.871 75.462 C 182.218 75.115,179.863 75.230,178.400 75.631 M182.400 75.650 C 182.400 75.843,182.850 76.000,183.400 76.000 C 183.950 76.000,184.400 75.843,184.400 75.650 C 184.400 75.458,183.950 75.300,183.400 75.300 C 182.850 75.300,182.400 75.458,182.400 75.650 M168.400 76.400 C 167.912 76.715,167.964 76.789,168.676 76.794 C 169.158 76.797,169.664 76.620,169.800 76.400 C 170.115 75.891,169.188 75.891,168.400 76.400 M232.400 91.127 C 232.400 91.316,232.850 91.677,233.400 91.927 C 233.950 92.178,234.400 92.317,234.400 92.237 C 234.400 92.157,233.950 91.797,233.400 91.437 C 232.850 91.076,232.400 90.937,232.400 91.127 M104.537 93.858 C 103.623 94.816,103.001 95.600,103.156 95.600 C 103.547 95.600,106.588 92.449,106.374 92.266 C 106.278 92.184,105.452 92.900,104.537 93.858 M256.260 92.611 C 256.389 92.947,256.878 93.422,257.347 93.665 C 258.132 94.073,258.122 94.024,257.230 93.054 C 256.115 91.842,255.932 91.758,256.260 92.611 M244.075 100.600 C 244.553 101.150,245.006 101.600,245.081 101.600 C 245.157 101.600,244.924 101.150,244.563 100.600 C 244.203 100.050,243.750 99.600,243.557 99.600 C 243.363 99.600,243.597 100.050,244.075 100.600 M116.200 102.057 L 115.400 102.867 116.500 102.369 C 117.105 102.096,117.600 101.720,117.600 101.536 C 117.600 100.989,117.054 101.193,116.200 102.057 M112.600 105.720 C 111.296 107.318,111.190 107.654,112.315 106.625 C 113.022 105.979,113.600 105.394,113.600 105.325 C 113.600 105.022,112.965 105.274,112.600 105.720 M90.263 112.083 C 89.938 113.325,90.185 113.389,90.726 112.202 C 90.977 111.651,91.028 111.200,90.838 111.200 C 90.648 111.200,90.389 111.597,90.263 112.083 M105.000 115.124 C 103.968 116.478,103.521 117.600,104.013 117.600 C 104.226 117.600,104.400 117.330,104.400 117.000 C 104.400 116.670,104.771 116.029,105.225 115.575 C 105.679 115.121,105.994 114.598,105.925 114.412 C 105.856 114.226,105.440 114.546,105.000 115.124 M88.038 167.000 C 88.027 168.220,88.116 168.442,88.412 167.935 C 88.657 167.516,88.662 166.925,88.426 166.335 C 88.098 165.517,88.049 165.601,88.038 167.000 M272.692 185.042 C 272.531 185.202,272.400 185.609,272.400 185.947 C 272.400 186.397,272.518 186.442,272.845 186.115 C 273.090 185.870,273.221 185.463,273.137 185.210 C 273.052 184.957,272.852 184.881,272.692 185.042 M76.800 192.910 C 76.800 193.703,76.991 194.471,77.226 194.616 C 77.515 194.795,77.562 194.388,77.372 193.339 C 77.003 191.297,76.800 191.145,76.800 192.910 M273.398 222.802 C 272.998 223.244,272.766 223.699,272.882 223.815 C 272.997 223.930,273.390 223.569,273.755 223.012 C 274.552 221.796,274.393 221.702,273.398 222.802 M115.272 234.553 C 116.222 235.517,117.049 236.263,117.109 236.210 C 117.391 235.964,116.673 234.832,116.358 235.026 C 116.161 235.148,116.000 234.967,116.000 234.624 C 116.000 234.281,115.719 234.000,115.376 234.000 C 115.033 234.000,114.852 233.839,114.974 233.642 C 115.162 233.338,114.373 232.800,113.739 232.800 C 113.632 232.800,114.322 233.589,115.272 234.553 M119.261 256.218 C 119.624 256.589,120.140 256.820,120.406 256.731 C 120.673 256.642,120.375 256.339,119.745 256.056 C 118.673 255.576,118.642 255.586,119.261 256.218 M160.176 259.420 C 161.036 260.062,161.768 260.196,161.430 259.648 C 161.310 259.455,160.805 259.194,160.306 259.068 C 159.432 258.848,159.427 258.860,160.176 259.420 M197.600 260.190 C 196.638 260.731,196.634 260.750,197.490 260.692 C 197.979 260.659,198.468 260.399,198.577 260.116 C 198.816 259.494,198.843 259.492,197.600 260.190 M176.800 261.600 C 176.800 261.820,177.070 262.000,177.400 262.000 C 177.730 262.000,178.000 261.820,178.000 261.600 C 178.000 261.380,177.730 261.200,177.400 261.200 C 177.070 261.200,176.800 261.380,176.800 261.600 M179.000 261.600 C 178.229 261.931,178.231 261.945,179.076 261.972 C 179.558 261.987,180.064 261.820,180.200 261.600 C 180.492 261.127,180.101 261.127,179.000 261.600 M182.084 261.539 C 181.753 261.750,182.008 261.867,182.800 261.867 C 183.592 261.867,183.847 261.750,183.516 261.539 C 183.232 261.359,182.910 261.212,182.800 261.212 C 182.690 261.212,182.368 261.359,182.084 261.539 " stroke="none" fill="#989494" fill-rule="evenodd"></path><path id="path3" d="M167.877 62.764 C 167.487 63.246,167.509 63.287,168.000 62.987 C 168.330 62.785,169.047 62.559,169.593 62.484 C 171.093 62.278,171.142 61.961,169.656 62.074 C 168.940 62.129,168.139 62.439,167.877 62.764 M198.600 63.200 C 199.701 63.673,200.092 63.673,199.800 63.200 C 199.664 62.980,199.158 62.813,198.676 62.828 C 197.831 62.855,197.829 62.869,198.600 63.200 M178.400 75.631 C 177.754 75.808,178.139 75.880,179.486 75.833 C 180.634 75.793,181.707 75.626,181.871 75.462 C 182.218 75.115,179.863 75.230,178.400 75.631 M182.400 75.650 C 182.400 75.843,182.850 76.000,183.400 76.000 C 183.950 76.000,184.400 75.843,184.400 75.650 C 184.400 75.458,183.950 75.300,183.400 75.300 C 182.850 75.300,182.400 75.458,182.400 75.650 M168.400 76.400 C 167.912 76.715,167.964 76.789,168.676 76.794 C 169.158 76.797,169.664 76.620,169.800 76.400 C 170.115 75.891,169.188 75.891,168.400 76.400 M232.400 91.127 C 232.400 91.316,232.850 91.677,233.400 91.927 C 233.950 92.178,234.400 92.317,234.400 92.237 C 234.400 92.157,233.950 91.797,233.400 91.437 C 232.850 91.076,232.400 90.937,232.400 91.127 M104.537 93.858 C 103.623 94.816,103.001 95.600,103.156 95.600 C 103.547 95.600,106.588 92.449,106.374 92.266 C 106.278 92.184,105.452 92.900,104.537 93.858 M256.260 92.611 C 256.389 92.947,256.878 93.422,257.347 93.665 C 258.132 94.073,258.122 94.024,257.230 93.054 C 256.115 91.842,255.932 91.758,256.260 92.611 M244.075 100.600 C 244.553 101.150,245.006 101.600,245.081 101.600 C 245.157 101.600,244.924 101.150,244.563 100.600 C 244.203 100.050,243.750 99.600,243.557 99.600 C 243.363 99.600,243.597 100.050,244.075 100.600 M116.200 102.057 L 115.400 102.867 116.500 102.369 C 117.105 102.096,117.600 101.720,117.600 101.536 C 117.600 100.989,117.054 101.193,116.200 102.057 M112.600 105.720 C 111.296 107.318,111.190 107.654,112.315 106.625 C 113.022 105.979,113.600 105.394,113.600 105.325 C 113.600 105.022,112.965 105.274,112.600 105.720 M90.263 112.083 C 89.938 113.325,90.185 113.389,90.726 112.202 C 90.977 111.651,91.028 111.200,90.838 111.200 C 90.648 111.200,90.389 111.597,90.263 112.083 M105.000 115.124 C 103.968 116.478,103.521 117.600,104.013 117.600 C 104.226 117.600,104.400 117.330,104.400 117.000 C 104.400 116.670,104.771 116.029,105.225 115.575 C 105.679 115.121,105.994 114.598,105.925 114.412 C 105.856 114.226,105.440 114.546,105.000 115.124 M88.038 167.000 C 88.027 168.220,88.116 168.442,88.412 167.935 C 88.657 167.516,88.662 166.925,88.426 166.335 C 88.098 165.517,88.049 165.601,88.038 167.000 M272.692 185.042 C 272.531 185.202,272.400 185.609,272.400 185.947 C 272.400 186.397,272.518 186.442,272.845 186.115 C 273.090 185.870,273.221 185.463,273.137 185.210 C 273.052 184.957,272.852 184.881,272.692 185.042 M76.800 192.910 C 76.800 193.703,76.991 194.471,77.226 194.616 C 77.515 194.795,77.562 194.388,77.372 193.339 C 77.003 191.297,76.800 191.145,76.800 192.910 M273.398 222.802 C 272.998 223.244,272.766 223.699,272.882 223.815 C 272.997 223.930,273.390 223.569,273.755 223.012 C 274.552 221.796,274.393 221.702,273.398 222.802 M115.272 234.553 C 116.222 235.517,117.049 236.263,117.109 236.210 C 117.391 235.964,116.673 234.832,116.358 235.026 C 116.161 235.148,116.000 234.967,116.000 234.624 C 116.000 234.281,115.719 234.000,115.376 234.000 C 115.033 234.000,114.852 233.839,114.974 233.642 C 115.162 233.338,114.373 232.800,113.739 232.800 C 113.632 232.800,114.322 233.589,115.272 234.553 M119.261 256.218 C 119.624 256.589,120.140 256.820,120.406 256.731 C 120.673 256.642,120.375 256.339,119.745 256.056 C 118.673 255.576,118.642 255.586,119.261 256.218 M160.176 259.420 C 161.036 260.062,161.768 260.196,161.430 259.648 C 161.310 259.455,160.805 259.194,160.306 259.068 C 159.432 258.848,159.427 258.860,160.176 259.420 M197.600 260.190 C 196.638 260.731,196.634 260.750,197.490 260.692 C 197.979 260.659,198.468 260.399,198.577 260.116 C 198.816 259.494,198.843 259.492,197.600 260.190 M176.800 261.600 C 176.800 261.820,177.070 262.000,177.400 262.000 C 177.730 262.000,178.000 261.820,178.000 261.600 C 178.000 261.380,177.730 261.200,177.400 261.200 C 177.070 261.200,176.800 261.380,176.800 261.600 M179.000 261.600 C 178.229 261.931,178.231 261.945,179.076 261.972 C 179.558 261.987,180.064 261.820,180.200 261.600 C 180.492 261.127,180.101 261.127,179.000 261.600 M182.084 261.539 C 181.753 261.750,182.008 261.867,182.800 261.867 C 183.592 261.867,183.847 261.750,183.516 261.539 C 183.232 261.359,182.910 261.212,182.800 261.212 C 182.690 261.212,182.368 261.359,182.084 261.539 " stroke="none" fill="#989494" fill-rule="evenodd"></path><path id="path4" d="M167.877 62.764 C 167.487 63.246,167.509 63.287,168.000 62.987 C 168.330 62.785,169.047 62.559,169.593 62.484 C 171.093 62.278,171.142 61.961,169.656 62.074 C 168.940 62.129,168.139 62.439,167.877 62.764 M198.600 63.200 C 199.701 63.673,200.092 63.673,199.800 63.200 C 199.664 62.980,199.158 62.813,198.676 62.828 C 197.831 62.855,197.829 62.869,198.600 63.200 M178.400 75.631 C 177.754 75.808,178.139 75.880,179.486 75.833 C 180.634 75.793,181.707 75.626,181.871 75.462 C 182.218 75.115,179.863 75.230,178.400 75.631 M182.400 75.650 C 182.400 75.843,182.850 76.000,183.400 76.000 C 183.950 76.000,184.400 75.843,184.400 75.650 C 184.400 75.458,183.950 75.300,183.400 75.300 C 182.850 75.300,182.400 75.458,182.400 75.650 M168.400 76.400 C 167.912 76.715,167.964 76.789,168.676 76.794 C 169.158 76.797,169.664 76.620,169.800 76.400 C 170.115 75.891,169.188 75.891,168.400 76.400 M232.400 91.127 C 232.400 91.316,232.850 91.677,233.400 91.927 C 233.950 92.178,234.400 92.317,234.400 92.237 C 234.400 92.157,233.950 91.797,233.400 91.437 C 232.850 91.076,232.400 90.937,232.400 91.127 M104.537 93.858 C 103.623 94.816,103.001 95.600,103.156 95.600 C 103.547 95.600,106.588 92.449,106.374 92.266 C 106.278 92.184,105.452 92.900,104.537 93.858 M256.260 92.611 C 256.389 92.947,256.878 93.422,257.347 93.665 C 258.132 94.073,258.122 94.024,257.230 93.054 C 256.115 91.842,255.932 91.758,256.260 92.611 M244.075 100.600 C 244.553 101.150,245.006 101.600,245.081 101.600 C 245.157 101.600,244.924 101.150,244.563 100.600 C 244.203 100.050,243.750 99.600,243.557 99.600 C 243.363 99.600,243.597 100.050,244.075 100.600 M116.200 102.057 L 115.400 102.867 116.500 102.369 C 117.105 102.096,117.600 101.720,117.600 101.536 C 117.600 100.989,117.054 101.193,116.200 102.057 M112.600 105.720 C 111.296 107.318,111.190 107.654,112.315 106.625 C 113.022 105.979,113.600 105.394,113.600 105.325 C 113.600 105.022,112.965 105.274,112.600 105.720 M90.263 112.083 C 89.938 113.325,90.185 113.389,90.726 112.202 C 90.977 111.651,91.028 111.200,90.838 111.200 C 90.648 111.200,90.389 111.597,90.263 112.083 M105.000 115.124 C 103.968 116.478,103.521 117.600,104.013 117.600 C 104.226 117.600,104.400 117.330,104.400 117.000 C 104.400 116.670,104.771 116.029,105.225 115.575 C 105.679 115.121,105.994 114.598,105.925 114.412 C 105.856 114.226,105.440 114.546,105.000 115.124 M88.038 167.000 C 88.027 168.220,88.116 168.442,88.412 167.935 C 88.657 167.516,88.662 166.925,88.426 166.335 C 88.098 165.517,88.049 165.601,88.038 167.000 M272.692 185.042 C 272.531 185.202,272.400 185.609,272.400 185.947 C 272.400 186.397,272.518 186.442,272.845 186.115 C 273.090 185.870,273.221 185.463,273.137 185.210 C 273.052 184.957,272.852 184.881,272.692 185.042 M76.800 192.910 C 76.800 193.703,76.991 194.471,77.226 194.616 C 77.515 194.795,77.562 194.388,77.372 193.339 C 77.003 191.297,76.800 191.145,76.800 192.910 M273.398 222.802 C 272.998 223.244,272.766 223.699,272.882 223.815 C 272.997 223.930,273.390 223.569,273.755 223.012 C 274.552 221.796,274.393 221.702,273.398 222.802 M115.272 234.553 C 116.222 235.517,117.049 236.263,117.109 236.210 C 117.391 235.964,116.673 234.832,116.358 235.026 C 116.161 235.148,116.000 234.967,116.000 234.624 C 116.000 234.281,115.719 234.000,115.376 234.000 C 115.033 234.000,114.852 233.839,114.974 233.642 C 115.162 233.338,114.373 232.800,113.739 232.800 C 113.632 232.800,114.322 233.589,115.272 234.553 M119.261 256.218 C 119.624 256.589,120.140 256.820,120.406 256.731 C 120.673 256.642,120.375 256.339,119.745 256.056 C 118.673 255.576,118.642 255.586,119.261 256.218 M160.176 259.420 C 161.036 260.062,161.768 260.196,161.430 259.648 C 161.310 259.455,160.805 259.194,160.306 259.068 C 159.432 258.848,159.427 258.860,160.176 259.420 M197.600 260.190 C 196.638 260.731,196.634 260.750,197.490 260.692 C 197.979 260.659,198.468 260.399,198.577 260.116 C 198.816 259.494,198.843 259.492,197.600 260.190 M176.800 261.600 C 176.800 261.820,177.070 262.000,177.400 262.000 C 177.730 262.000,178.000 261.820,178.000 261.600 C 178.000 261.380,177.730 261.200,177.400 261.200 C 177.070 261.200,176.800 261.380,176.800 261.600 M179.000 261.600 C 178.229 261.931,178.231 261.945,179.076 261.972 C 179.558 261.987,180.064 261.820,180.200 261.600 C 180.492 261.127,180.101 261.127,179.000 261.600 M182.084 261.539 C 181.753 261.750,182.008 261.867,182.800 261.867 C 183.592 261.867,183.847 261.750,183.516 261.539 C 183.232 261.359,182.910 261.212,182.800 261.212 C 182.690 261.212,182.368 261.359,182.084 261.539 " stroke="none" fill="#989494" fill-rule="evenodd"></path></g></svg>