<?xml version="1.0" encoding="UTF-8"?>
<svg version="1.1" xmlns="http://www.w3.org/2000/svg" width="450" height="450">
<path d="M0 0 C0.89307344 -0.00297112 1.78614688 -0.00594224 2.70628315 -0.0090034 C5.68750425 -0.01764848 8.66868499 -0.01919511 11.6499176 -0.02069092 C13.79245082 -0.02532218 15.93498321 -0.03034725 18.07751465 -0.03573608 C23.89203828 -0.04883523 29.70655038 -0.05530058 35.52108645 -0.05974674 C39.15905902 -0.0626824 42.79702847 -0.06678821 46.43499947 -0.07125092 C57.83240571 -0.08492134 69.22980479 -0.09458936 80.62721866 -0.09845281 C93.75508151 -0.10292797 106.88283996 -0.12045268 120.01067108 -0.1494534 C130.17573616 -0.17112422 140.34077199 -0.18116002 150.50585991 -0.18249393 C156.568283 -0.18353839 162.63060788 -0.18936917 168.69300652 -0.20731354 C174.40333843 -0.22388701 180.11349931 -0.22590497 185.82384682 -0.21717453 C187.90862361 -0.21640901 189.99340996 -0.22068206 192.07816315 -0.23063278 C212.24898938 -0.32118851 234.06724465 0.93932266 249.91383362 15.14044189 C249.91383362 15.80044189 249.91383362 16.46044189 249.91383362 17.14044189 C250.57383362 17.14044189 251.23383362 17.14044189 251.91383362 17.14044189 C251.91383362 17.80044189 251.91383362 18.46044189 251.91383362 19.14044189 C252.57383362 19.14044189 253.23383362 19.14044189 253.91383362 19.14044189 C256.91383362 22.60198036 256.91383362 22.60198036 256.91383362 25.14044189 C257.57383362 25.14044189 258.23383362 25.14044189 258.91383362 25.14044189 C268.32761393 37.12161684 272.24449341 53.53842167 272.17453003 68.52490234 C272.17835558 69.41378309 272.18218112 70.30266383 272.1861226 71.21848035 C272.19635938 74.16746433 272.19247829 77.1162502 272.18849182 80.06524658 C272.19284352 82.1917641 272.19802819 84.31828006 272.20397949 86.4447937 C272.21733292 92.20117408 272.21795212 97.95748865 272.21541619 103.71388149 C272.21434379 108.52963512 272.21923685 113.34537558 272.22402161 118.16112638 C272.23510462 129.52924163 272.23556129 140.89732385 272.22950745 152.26544189 C272.22347094 163.96812199 272.23577331 175.67068175 272.25707752 187.37334132 C272.27472965 197.44247601 272.28068909 207.51157252 272.27743977 217.58072209 C272.2756322 223.58490221 272.2782103 229.58899652 272.29215431 235.59316254 C272.30478651 241.24362261 272.3027377 246.89389607 272.28974342 252.54435349 C272.28738964 254.60900563 272.29006896 256.67367114 272.29836655 258.73830795 C272.35066747 272.77254709 272.09663764 286.520772 265.41383362 299.26544189 C265.07416565 299.92721436 264.73449768 300.58898682 264.38453674 301.27081299 C256.43435989 315.97013731 242.97393881 326.64430085 227.16383362 331.82794189 C213.81021159 335.38331828 200.54910522 335.43406926 186.84205627 335.4151001 C184.74775004 335.41945557 182.65344539 335.42464147 180.55914307 335.43058777 C174.9082334 335.44389857 169.25739095 335.44456536 163.60646868 335.44202447 C158.87271862 335.44094945 154.13898188 335.44585158 149.40523469 335.45062989 C138.22970532 335.46169749 127.05420956 335.46217785 115.87867737 335.45611572 C104.38499049 335.4500765 92.89142604 335.46239203 81.39776003 335.48368579 C71.49581554 335.50134987 61.59390985 335.50729562 51.6919502 335.50404805 C45.79284097 335.50224286 39.89381911 335.50479473 33.99472427 335.51876259 C28.44433856 335.53141495 22.89414262 335.52932726 17.34375954 335.5163517 C15.31864544 335.51400251 13.29351766 335.51666038 11.26841927 335.52497482 C-12.16753221 335.61418309 -31.49327353 331.93988893 -49.87132263 316.43731689 C-51.08616638 315.14044189 -51.08616638 315.14044189 -51.08616638 313.14044189 C-51.74616638 313.14044189 -52.40616638 313.14044189 -53.08616638 313.14044189 C-62.70437597 300.33886028 -68.15691951 287.27237388 -68.69895935 271.20001221 C-68.73684004 270.1818404 -68.77472073 269.16366859 -68.81374931 268.1146431 C-69.34712365 251.622859 -69.23172135 235.11280366 -69.22049189 218.61452389 C-69.21792094 213.64051704 -69.22031863 208.66651183 -69.22187805 203.69250488 C-69.22368547 195.35157942 -69.22133053 187.01066287 -69.21653748 178.66973877 C-69.21109046 169.0811602 -69.21286651 159.4926029 -69.21836388 149.90402484 C-69.22292743 141.60605526 -69.22353001 133.30809201 -69.22092521 125.01012158 C-69.21938108 120.08245575 -69.21911682 115.15479986 -69.2224617 110.2271347 C-69.22538824 105.59428556 -69.22327865 100.96146338 -69.21756744 96.3286171 C-69.21626544 94.64703796 -69.21658924 92.96545648 -69.21883011 91.28387833 C-69.22965069 82.32597875 -69.08197485 73.38875383 -68.67964172 64.43908691 C-68.64614282 63.61870461 -68.61264391 62.79832231 -68.57812989 61.95307994 C-67.64772116 43.42468362 -59.34352285 27.74812699 -46.08616638 15.14044189 C-42.47209389 12.14044189 -42.47209389 12.14044189 -40.08616638 12.14044189 C-40.08616638 11.48044189 -40.08616638 10.82044189 -40.08616638 10.14044189 C-27.1809669 3.07004005 -14.67792396 -0.01542147 0 0 Z " fill="#F9F9F7" transform="translate(148.08616638183594,84.85955810546875)"/>
<path d="M0 0 C2.75 0.375 2.75 0.375 5.41015625 2.18359375 C9.13081029 4.624865 12.81291822 6.19823121 16.9375 7.8125 C18.45635991 8.42160661 19.97459058 9.03228464 21.4921875 9.64453125 C22.58998535 10.08659912 22.58998535 10.08659912 23.70996094 10.53759766 C27.24211969 11.98749049 30.69634402 13.59883302 34.16015625 15.203125 C36.91627142 16.45023594 39.70010203 17.60475621 42.5 18.75 C47.76513652 20.92280537 52.93714373 23.26943966 58.08154297 25.71166992 C61.21964748 27.20131752 64.36314537 28.65262972 67.55859375 30.015625 C69.32396484 30.78132813 69.32396484 30.78132813 71.125 31.5625 C72.18460938 32.00980469 73.24421875 32.45710938 74.3359375 32.91796875 C76.75 34.375 76.75 34.375 77.7890625 36.36328125 C77.75 38.375 77.75 38.375 76.73046875 39.90625 C74.0140893 41.92076415 71.09312691 43.40279873 68.0625 44.875 C67.11213867 45.34389648 67.11213867 45.34389648 66.14257812 45.82226562 C63.05828127 47.32487179 59.99022534 48.74550969 56.75 49.875 C52.48313502 51.36344127 48.53574265 53.4343053 44.51123047 55.4765625 C31.80492339 61.91148765 18.82846371 67.74228346 5.75 73.375 C5.71241577 74.35895752 5.71241577 74.35895752 5.67407227 75.36279297 C5.5582674 78.32540183 5.43547114 81.28768031 5.3125 84.25 C5.27318359 85.28253906 5.23386719 86.31507813 5.19335938 87.37890625 C5.15146484 88.36503906 5.10957031 89.35117188 5.06640625 90.3671875 C5.01141968 91.73399658 5.01141968 91.73399658 4.95532227 93.12841797 C4.75 95.375 4.75 95.375 3.75 97.375 C0.875 97.5 0.875 97.5 -2.25 97.375 C-2.91 96.715 -3.57 96.055 -4.25 95.375 C-4.25 89.105 -4.25 82.835 -4.25 76.375 C-53.09 76.375 -101.93 76.375 -152.25 76.375 C-152.105625 93.514375 -151.96125 110.65375 -151.8125 128.3125 C-151.76939697 133.73292725 -151.72629395 139.15335449 -151.68188477 144.73803711 C-151.63865203 149.57862694 -151.63865203 149.57862694 -151.59410095 154.41920471 C-151.57482536 156.58247865 -151.55751648 158.74577064 -151.54173279 160.90907288 C-151.51750881 164.1776408 -151.48712862 167.44609789 -151.45532227 170.71459961 C-151.44955201 171.68531119 -151.44378176 172.65602278 -151.43783665 173.65614986 C-151.42806262 174.5307665 -151.41828859 175.40538313 -151.40821838 176.3065033 C-151.40176583 177.07251327 -151.39531328 177.83852324 -151.3886652 178.62774563 C-151.43791623 180.40340014 -151.43791623 180.40340014 -150.25 181.375 C-147.51075881 181.47509092 -144.79665968 181.50939623 -142.05690002 181.50198364 C-140.75304011 181.50432363 -140.75304011 181.50432363 -139.42283958 181.50671089 C-136.48703571 181.51072476 -133.55128284 181.50752974 -130.61547852 181.50439453 C-128.52008026 181.50574841 -126.42468223 181.50752827 -124.32928467 181.50970459 C-118.62070807 181.5142808 -112.91214945 181.51248852 -107.20357251 181.5093255 C-101.24272438 181.50680253 -95.28187785 181.5091393 -89.32102966 181.51071167 C-79.30768557 181.51253369 -69.29434884 181.51012635 -59.28100586 181.50537109 C-47.68908299 181.4999299 -36.09717772 181.50168997 -24.50525528 181.5071975 C-14.57067735 181.51172947 -4.63610473 181.51237872 5.29847389 181.50975883 C11.23977672 181.50819633 17.18107128 181.50800153 23.12237358 181.51129532 C28.70778098 181.5141752 34.29316562 181.51219616 39.87857056 181.50640106 C41.9337415 181.50507403 43.98891435 181.50546662 46.04408455 181.50766373 C48.83938806 181.51037748 51.63461764 181.50699127 54.42991638 181.50198364 C55.25218057 181.50421436 56.07444475 181.50644509 56.92162603 181.50874341 C60.96669832 181.59044912 60.96669832 181.59044912 64.75 180.375 C64.75358253 179.41144057 64.75358253 179.41144057 64.75723743 178.4284153 C64.81631753 162.81372422 64.89182229 147.19921267 64.98571491 131.58469582 C65.03072227 124.03369159 65.07012536 116.48273505 65.09643555 108.93164062 C65.11937582 102.35176941 65.1527289 95.77204849 65.19870156 89.19229639 C65.2226878 85.70682488 65.24138098 82.2215027 65.24761391 78.73595047 C65.25475877 74.84935368 65.28514648 70.96313208 65.31762695 67.07666016 C65.31619186 65.91500839 65.31475677 64.75335663 65.3132782 63.5565033 C65.32581635 62.50198471 65.33835449 61.44746613 65.35127258 60.36099243 C65.35588155 59.44104303 65.36049051 58.52109364 65.36523914 57.57326698 C65.49221023 56.84783888 65.61918131 56.12241077 65.75 55.375 C68.75 53.375 68.75 53.375 71.375 53.6875 C73.75 54.375 73.75 54.375 74.75 55.375 C74.85697516 57.01873997 74.89408555 58.66706672 74.90390015 60.31425476 C74.91250061 61.38397018 74.92110107 62.45368561 74.92996216 63.55581665 C74.93635208 65.33162613 74.93635208 65.33162613 74.94287109 67.14331055 C74.95513733 69.0017585 74.95513733 69.0017585 74.96765137 70.89775085 C74.99256869 75.01907015 75.00918683 79.14035261 75.0234375 83.26171875 C75.02879626 84.67966023 75.03417376 86.09760164 75.03956985 87.51554298 C75.06120797 93.41490008 75.07994355 99.3142544 75.09119225 105.21364117 C75.10742186 113.67026527 75.14056418 122.12642914 75.19759309 130.58287972 C75.23631132 136.52689358 75.25582735 142.47078446 75.26111281 148.4149211 C75.26476491 151.96552531 75.27676891 155.51563911 75.30921555 159.0661068 C75.34492575 163.03078019 75.34092044 166.99487812 75.33349609 170.9597168 C75.34990143 172.13346863 75.36630676 173.30722046 75.38320923 174.51654053 C75.3150891 183.39190921 75.3150891 183.39190921 72.40103149 187.0259552 C67.88597265 191.02669059 65.6772577 191.62259813 59.70825195 191.60205078 C58.99580322 191.60234283 58.28335449 191.60263489 57.54931641 191.60293579 C55.19551393 191.60154296 52.8420284 191.58598419 50.48828125 191.5703125 C48.85589267 191.5665822 47.22350185 191.56373531 45.59111023 191.56173706 C41.29533707 191.55410194 36.99969921 191.53445452 32.70397949 191.5123291 C28.32024974 191.49186805 23.93649812 191.48273479 19.55273438 191.47265625 C10.95176083 191.45120849 2.35089725 191.41707404 -6.25 191.375 C-6.0334375 192.56738281 -5.816875 193.75976562 -5.59375 194.98828125 C-5.31236404 196.55466308 -5.03112151 198.12107068 -4.75 199.6875 C-4.60691406 200.47318359 -4.46382812 201.25886719 -4.31640625 202.06835938 C-4.18105469 202.82568359 -4.04570312 203.58300781 -3.90625 204.36328125 C-3.78056641 205.05977783 -3.65488281 205.75627441 -3.52539062 206.47387695 C-3.25 208.375 -3.25 208.375 -3.25 211.375 C-2.68490723 211.36452637 -2.11981445 211.35405273 -1.53759766 211.34326172 C1.01655653 211.30175212 3.57063982 211.2756904 6.125 211.25 C7.01445312 211.23324219 7.90390625 211.21648437 8.8203125 211.19921875 C9.67109375 211.19277344 10.521875 211.18632812 11.3984375 211.1796875 C12.18395996 211.16921387 12.96948242 211.15874023 13.77880859 211.14794922 C15.75 211.375 15.75 211.375 17.75 213.375 C18 215.875 18 215.875 17.75 218.375 C15.25904495 220.86595505 14.51668866 220.62594925 11.08117676 220.62896729 C9.60470421 220.63742676 9.60470421 220.63742676 8.09840393 220.64605713 C7.01470016 220.64200867 5.9309964 220.63796021 4.81445312 220.63378906 C3.6762059 220.6372937 2.53795868 220.64079834 1.36521912 220.64440918 C-2.41283188 220.65324149 -6.19069697 220.64737197 -9.96875 220.640625 C-12.58426957 220.64197122 -15.1997889 220.64391138 -17.81530762 220.64642334 C-23.30316193 220.65006453 -28.79096245 220.64525991 -34.27880859 220.63574219 C-40.62837455 220.62485731 -46.97781209 220.62838278 -53.32737494 220.639395 C-59.42920992 220.64955503 -65.53098784 220.64849177 -71.63282776 220.64263153 C-74.23246783 220.64129349 -76.83211116 220.64294812 -79.43174744 220.64759064 C-83.05940545 220.65264665 -86.6868138 220.64495849 -90.31445312 220.63378906 C-91.94000877 220.63986176 -91.94000877 220.63986176 -93.59840393 220.64605713 C-94.58271896 220.64041748 -95.567034 220.63477783 -96.58117676 220.62896729 C-97.43953377 220.62821323 -98.29789078 220.62745918 -99.18225861 220.62668228 C-101.25 220.375 -101.25 220.375 -103.25 218.375 C-103 215.3125 -103 215.3125 -102.25 212.375 C-99.953463 211.2267315 -98.66686833 211.25938825 -96.1171875 211.27734375 C-95.31152344 211.28056641 -94.50585938 211.28378906 -93.67578125 211.28710938 C-92.83402344 211.29548828 -91.99226563 211.30386719 -91.125 211.3125 C-90.27550781 211.31701172 -89.42601562 211.32152344 -88.55078125 211.32617188 C-86.45049091 211.33797126 -84.3502367 211.35590694 -82.25 211.375 C-82.26933594 210.49070312 -82.28867188 209.60640625 -82.30859375 208.6953125 C-82.25602303 205.71630495 -81.93558686 203.15167459 -81.3125 200.25 C-81.13847656 199.42242187 -80.96445313 198.59484375 -80.78515625 197.7421875 C-80.30335412 195.61100436 -79.78370639 193.49362724 -79.25 191.375 C-80.15122589 191.38388245 -81.05245178 191.39276489 -81.98098755 191.4019165 C-90.48499735 191.48215123 -98.98887955 191.54300955 -107.49318123 191.58224869 C-111.86508491 191.60310038 -116.23667514 191.63137342 -120.60839844 191.67675781 C-124.82944687 191.72030247 -129.05019429 191.7441553 -133.27145004 191.75450897 C-134.87978731 191.76188494 -136.48810859 191.77628867 -138.09631729 191.79792023 C-140.35379547 191.82707012 -142.61003889 191.83095137 -144.86767578 191.82910156 C-146.15118927 191.83798401 -147.43470276 191.84686646 -148.7571106 191.85601807 C-152.89985896 191.28550564 -155.02333307 189.99053701 -158.25 187.375 C-161.26132407 182.8580139 -161.3748771 178.83629837 -161.39044189 173.49916077 C-161.39615204 172.32297684 -161.40186218 171.14679291 -161.40774536 169.93496704 C-161.40886322 168.6532663 -161.40998108 167.37156555 -161.41113281 166.05102539 C-161.41576465 164.68072884 -161.42078981 163.31043356 -161.42617798 161.94013977 C-161.43926549 158.2252759 -161.44573935 154.51043008 -161.45018864 150.79554677 C-161.45312421 148.47328338 -161.45722984 146.15102488 -161.46169281 143.82876396 C-161.47535579 136.55869669 -161.4850293 129.28864064 -161.4888947 122.01856142 C-161.49337791 113.63351554 -161.51094294 105.24863246 -161.5398953 96.86363608 C-161.56151723 90.37601834 -161.57159919 83.8884464 -161.57293582 77.40079302 C-161.57398314 73.52845932 -161.57987568 69.65627892 -161.59775543 65.78398323 C-161.61424591 62.14203445 -161.61638704 58.5003541 -161.60761642 54.85838127 C-161.60648034 52.88908816 -161.62018864 50.91980391 -161.6343689 48.95056152 C-161.62879974 47.77155777 -161.62323059 46.59255402 -161.61749268 45.37782288 C-161.61895924 44.35743958 -161.6204258 43.33705629 -161.6219368 42.2857523 C-160.99231264 37.35835612 -159.2368877 34.20373196 -155.45555115 31.02838135 C-149.74378956 28.15642932 -143.19147279 28.85284984 -136.96118164 28.92089844 C-135.511892 28.92202791 -134.06260008 28.92139111 -132.61331177 28.91912842 C-128.69422734 28.91798421 -124.77563603 28.94144539 -120.85666585 28.96942425 C-116.75541663 28.9944872 -112.65415518 28.99678375 -108.55284119 29.00152588 C-100.79332725 29.01394132 -93.03403966 29.04674342 -85.27462524 29.08692384 C-76.43790369 29.13168623 -67.60117113 29.1536398 -58.76436436 29.17370558 C-40.59278142 29.21547742 -22.42140893 29.28580149 -4.25 29.375 C-4.26047363 28.56756348 -4.27094727 27.76012695 -4.28173828 26.92822266 C-4.32319831 23.28551318 -4.34929438 19.64285325 -4.375 16 C-4.39175781 14.72898437 -4.40851563 13.45796875 -4.42578125 12.1484375 C-4.43222656 10.93671875 -4.43867188 9.725 -4.4453125 8.4765625 C-4.45578613 7.35588379 -4.46625977 6.23520508 -4.47705078 5.08056641 C-4.18786141 1.63454856 -3.45844515 0.57640753 0 0 Z " fill="#1E2428" transform="translate(288.25,106.625)"/>
<path d="M0 0 C1.06651448 0.00276538 2.13302896 0.00553076 3.23186207 0.00837994 C5.06812656 0.00219395 5.06812656 0.00219395 6.94148731 -0.00411701 C8.30014735 0.00650038 9.65880516 0.01740481 11.01746082 0.02856731 C12.44645641 0.02941342 13.8754533 0.02893876 15.30444813 0.0272398 C19.18649196 0.02637778 23.06825866 0.04403674 26.95023799 0.06496167 C31.00614476 0.08369419 35.06205763 0.0854762 39.11800098 0.0890379 C46.79968577 0.09836846 54.48124273 0.12299586 62.16287118 0.15308636 C70.90761728 0.18659897 79.65236944 0.20310847 88.39716375 0.21817267 C106.38697566 0.2495446 124.37661229 0.30456923 142.36633778 0.36914349 C142.36633778 9.93914349 142.36633778 19.50914349 142.36633778 29.36914349 C93.52633778 29.36914349 44.68633778 29.36914349 -5.63366222 29.36914349 C-5.63366222 20.78914349 -5.63366222 12.20914349 -5.63366222 3.36914349 C-2.63366222 0.36914349 -2.63366222 0.36914349 0 0 Z " fill="#F5F6F4" transform="translate(141.63366222381592,144.63085651397705)"/>
<path d="M0 0 C8.93982972 2.23495743 17.31650854 6.07752861 25.60498047 10.0456543 C35.56098511 14.75505481 45.81466393 18.81779902 56 23 C56 23.66 56 24.32 56 25 C55.46745605 25.235979 54.93491211 25.47195801 54.38623047 25.71508789 C41.58683821 31.38210705 41.58683821 31.38210705 29 37.5 C23.1530802 40.47241736 17.22574015 43.23358354 11.25 45.9375 C10.36699219 46.3396875 9.48398437 46.741875 8.57421875 47.15625 C7.75050781 47.52621094 6.92679687 47.89617187 6.078125 48.27734375 C5.33981445 48.60984131 4.60150391 48.94233887 3.84082031 49.28491211 C2 50 2 50 0 50 C0 33.5 0 17 0 0 Z " fill="#DF4636" transform="translate(293,120)"/>
<path d="M0 0 C7 0 7 0 9.5625 0.546875 C12.562681 1.10460096 14.98521556 0.68714374 18 0.25 C25.70788123 -0.40820109 31.10557739 1.75367514 38 5 C39.12664062 5.52078125 40.25328125 6.0415625 41.4140625 6.578125 C43.21946067 7.41985748 45.02480234 8.26183801 46.82250977 9.11987305 C53.49340617 12.29271015 60.29924023 15.14379943 67.11914062 17.97949219 C67.98345703 18.34333008 68.84777344 18.70716797 69.73828125 19.08203125 C70.51212158 19.40405518 71.28596191 19.7260791 72.08325195 20.05786133 C74 21 74 21 76 23 C76.09765625 25.3671875 76.09765625 25.3671875 75 28 C72.45663884 29.63565983 70.16372771 30.88780608 67.4375 32.125 C66.74591797 32.45886719 66.05433594 32.79273438 65.34179688 33.13671875 C61.90807963 34.76877448 58.45344469 36.23395554 54.8828125 37.5390625 C51.25954094 38.8636421 47.87030419 40.48196126 44.4375 42.25 C43.2298541 42.8620354 42.02149373 43.47266263 40.8125 44.08203125 C40.19246094 44.39479004 39.57242188 44.70754883 38.93359375 45.02978516 C35.61521337 46.69484117 32.28435905 48.33047805 28.9375 49.9375 C28.31866943 50.24397461 27.69983887 50.55044922 27.06225586 50.86621094 C23.59171992 52.51627015 20.85292484 53.55630466 17 53 C16.34 52.34 15.68 51.68 15 51 C14.4225 51.350625 13.845 51.70125 13.25 52.0625 C10.64198224 53.14917407 9.60582371 52.93065133 7 52 C7 52.66 7 53.32 7 54 C5.515 54.495 5.515 54.495 4 55 C4.24243164 52.64257812 4.24243164 52.64257812 5 50 C6.79077148 48.68554688 6.79077148 48.68554688 9.12109375 47.71875 C9.96897461 47.35442871 10.81685547 46.99010742 11.69042969 46.61474609 C12.59696289 46.24687988 13.50349609 45.87901367 14.4375 45.5 C16.28576653 44.71236805 18.13343172 43.92332338 19.98046875 43.1328125 C20.86138184 42.76188477 21.74229492 42.39095703 22.64990234 42.00878906 C25.23986699 40.89703611 27.75123359 39.67832894 30.25 38.375 C35.16254394 35.84854883 40.21994333 33.67576728 45.29394531 31.49755859 C48.37138402 30.17223271 51.370558 28.81127395 54.359375 27.2890625 C57 26 57 26 59 26 C59 25.34 59 24.68 59 24 C57.741875 23.67 56.48375 23.34 55.1875 23 C42.624343 19.22749393 30.58841296 13.40778358 18.78515625 7.73828125 C13.58611404 5.35069221 8.28098603 3.20041085 3 1 C3 17.5 3 34 3 51 C2.34 51 1.68 51 1 51 C0.67 34.17 0.34 17.34 0 0 Z " fill="#1C2126" transform="translate(290,119)"/>
<path d="M0 0 C18.15 0 36.3 0 55 0 C58 15 58 15 58 20 C37.87 20 17.74 20 -3 20 C-2 10 -2 10 0 0 Z " fill="#F5F5F4" transform="translate(218,298)"/>
<path d="M0 0 C4.55555556 0.55555556 4.55555556 0.55555556 6 2 C6.09600136 3.606892 6.12187889 5.21801769 6.12025452 6.82777405 C6.12162918 7.87250381 6.12300385 8.91723358 6.12442017 9.99362183 C6.12082489 11.14951813 6.11722961 12.30541443 6.11352539 13.49633789 C6.11367142 14.70592667 6.11381744 15.91551544 6.1139679 17.16175842 C6.11338893 20.48806351 6.10835973 23.81430719 6.10139394 27.1406014 C6.09515978 30.61329929 6.09455655 34.08599793 6.09336853 37.55870056 C6.0902554 44.13896193 6.08204225 50.71920676 6.07201904 57.29946083 C6.06085734 64.78906112 6.05534731 72.27866218 6.05032361 79.7682687 C6.03985962 95.17885539 6.02226053 110.58942557 6 126 C4.865625 125.67 3.73125 125.34 2.5625 125 C-0.54376639 123.95495727 -0.54376639 123.95495727 -2 124 C-2.04667626 108.12772773 -2.08196733 92.25547392 -2.10362434 76.3831501 C-2.11394638 69.01371087 -2.12802435 61.64431424 -2.15087891 54.27490234 C-2.17078448 47.85333379 -2.18370969 41.43179607 -2.18817699 35.01019752 C-2.19078919 31.6085471 -2.19694809 28.20698491 -2.21146011 24.8053627 C-2.22588979 21.01227749 -2.22798152 17.21937759 -2.22705078 13.42626953 C-2.23424133 12.29266998 -2.24143188 11.15907043 -2.24884033 9.99111938 C-2.246091 8.96184326 -2.24334167 7.93256714 -2.24050903 6.87210083 C-2.24235262 5.97427446 -2.24419621 5.0764481 -2.24609566 4.15141487 C-2 2 -2 2 0 0 Z " fill="#181E23" transform="translate(357,160)"/>
<path d="M0 0 C0.928125 0.226875 1.85625 0.45375 2.8125 0.6875 C3.14059733 6.47116928 2.05568088 10.88393519 0.125 16.3125 C-0.11927734 17.03050781 -0.36355469 17.74851563 -0.61523438 18.48828125 C-2.16004619 22.97019097 -3.84565774 27.38677725 -5.57421875 31.80078125 C-7.43971455 36.61836701 -9.15595261 41.46819079 -10.7578125 46.37890625 C-10.96865982 47.02478699 -11.17950714 47.67066772 -11.39674377 48.33612061 C-12.25775184 50.98316633 -13.11444038 53.63152802 -13.96337891 56.2824707 C-14.59649492 58.25435832 -15.23899453 60.2229913 -15.8828125 62.19140625 C-16.4399292 63.92112671 -16.4399292 63.92112671 -17.00830078 65.68579102 C-18.11510527 68.5032157 -19.12387615 70.48596892 -21.1875 72.6875 C-23.75 73.0625 -23.75 73.0625 -26.1875 72.6875 C-28.1875 70.6875 -28.1875 70.6875 -28.33984375 68.76171875 C-27.78822756 62.6337644 -26.15708288 57.5582142 -23.8359375 51.8828125 C-21.60970615 46.35494319 -19.74080281 40.69935825 -17.8125 35.0625 C-12.17853655 18.71086557 -12.17853655 18.71086557 -9.3125 10.75 C-8.90185303 9.57993408 -8.90185303 9.57993408 -8.48291016 8.38623047 C-5.24298661 -0.51401829 -5.24298661 -0.51401829 0 0 Z " fill="#F0B247" transform="translate(256.1875,199.3125)"/>
<path d="M0 0 C4.35910585 0.5140455 6.37088462 2.63006551 9.3125 5.640625 C13.10237182 9.40088845 16.79118229 12.48406362 21.3125 15.390625 C23.9375 17.828125 23.9375 17.828125 26.3125 20.390625 C27.09625 21.215625 27.88 22.040625 28.6875 22.890625 C30.3125 25.390625 30.3125 25.390625 30.22265625 27.74609375 C29.01394504 31.25810015 27.16868692 32.78620504 24.375 35.203125 C23.47910156 35.99332031 22.58320313 36.78351563 21.66015625 37.59765625 C19.3125 39.390625 19.3125 39.390625 17.3125 39.390625 C17.3125 40.050625 17.3125 40.710625 17.3125 41.390625 C15.56942106 42.92674976 13.76700904 44.39602859 11.9375 45.828125 C8.81447096 48.27732219 6.51976199 50.07973201 4.3125 53.390625 C0.8125 53.765625 0.8125 53.765625 -2.6875 53.390625 C-4.6875 50.390625 -4.6875 50.390625 -4.65234375 48.03515625 C-3.31505733 44.36980035 -1.16568056 42.63740248 1.75 40.078125 C2.25337891 39.62373047 2.75675781 39.16933594 3.27539062 38.70117188 C7.02402491 35.390625 7.02402491 35.390625 9.3125 35.390625 C9.3125 34.730625 9.3125 34.070625 9.3125 33.390625 C11.0625 31.8828125 11.0625 31.8828125 13.3125 30.265625 C14.055 29.72679687 14.7975 29.18796875 15.5625 28.6328125 C16.14 28.22289062 16.7175 27.81296875 17.3125 27.390625 C16.16210919 26.24023419 15.01138266 25.09017793 13.859375 23.94140625 C12.80209702 22.88145838 11.75024005 21.81608267 10.703125 20.74609375 C6.95268108 16.93543628 3.06853954 13.3540617 -0.98828125 9.87109375 C-2.26479445 8.75891328 -3.49033014 7.58779486 -4.6875 6.390625 C-3.97867944 0.57829643 -3.97867944 0.57829643 0 0 Z " fill="#F2B143" transform="translate(274.6875,209.609375)"/>
<path d="M0 0 C3.25 0.375 3.25 0.375 4.25 1.375 C4.6875 3.5 4.6875 3.5 4.25 6.375 C0.22981314 12.02499234 -4.84532147 16.07420315 -10.26171875 20.359375 C-12.69709014 22.24894102 -12.69709014 22.24894102 -14.45703125 24.140625 C-15.75 25.375 -15.75 25.375 -17.75 25.375 C-12.85032636 31.37710021 -7.52169232 36.37566788 -1.4609375 41.1953125 C-0.73132813 41.79085937 -0.00171875 42.38640625 0.75 43 C1.4203125 43.52851563 2.090625 44.05703125 2.78125 44.6015625 C4.25 46.375 4.25 46.375 4.59375 48.9609375 C4.25 51.375 4.25 51.375 2.25 53.375 C-1.48296326 53.75786803 -2.52626323 53.52415785 -5.75 51.375 C-5.75 50.715 -5.75 50.055 -5.75 49.375 C-6.33789307 49.10405518 -6.92578613 48.83311035 -7.53149414 48.55395508 C-9.72481884 47.38838173 -11.37933413 46.14072452 -13.24609375 44.51171875 C-14.20805664 43.67543945 -14.20805664 43.67543945 -15.18945312 42.82226562 C-15.84880859 42.24154297 -16.50816406 41.66082031 -17.1875 41.0625 C-18.17073242 40.20881836 -18.17073242 40.20881836 -19.17382812 39.33789062 C-29.4785668 30.33545593 -29.4785668 30.33545593 -30.5625 26.5 C-29.26479672 21.50883353 -25.70293424 19.47499456 -21.75 16.375 C-19.50677747 14.51654858 -17.28571441 12.63229839 -15.0625 10.75 C-14.51634033 10.29471924 -13.97018066 9.83943848 -13.4074707 9.37036133 C-10.80668037 7.19006042 -8.43034866 5.03704264 -6.08984375 2.5625 C-3.75 0.375 -3.75 0.375 0 0 Z " fill="#F2B245" transform="translate(213.75,209.625)"/>
<path d="M0 0 C1.98 0 3.96 0 6 0 C6.99 5.94 7.98 11.88 9 18 C9.94560683 12.82507033 9.94560683 12.82507033 10.88452148 7.64892578 C11.88888889 2.22222222 11.88888889 2.22222222 13 0 C14.98 0 16.96 0 19 0 C19.99 4.95 20.98 9.9 22 15 C23.59290137 11.01774657 24.29883157 8.76460539 24.625 4.6875 C24.69976562 3.80449219 24.77453125 2.92148437 24.8515625 2.01171875 C24.90054688 1.34785156 24.94953125 0.68398438 25 0 C26.98 0 28.96 0 31 0 C31.13655456 4.19594922 30.72903253 7.70552439 29.625 11.75 C28.3618743 16.52247021 27.31265401 21.28040295 26.4296875 26.13671875 C26 28 26 28 25 29 C23.02 29 21.04 29 19 29 C18.01 23.72 17.02 18.44 16 13 C14.14316785 16.71366429 13.48888644 19.2158891 12.875 23.25 C12.62363281 24.86648438 12.62363281 24.86648438 12.3671875 26.515625 C12.24601562 27.33546875 12.12484375 28.1553125 12 29 C9.69 29 7.38 29 5 29 C4.80664062 28.03320312 4.61328125 27.06640625 4.4140625 26.0703125 C4.28878174 25.44423096 4.16350098 24.81814941 4.03442383 24.1730957 C3.76032327 22.80193911 3.48672716 21.43068158 3.21362305 20.05932617 C2.60569026 17.00959593 1.99202989 13.9618884 1.35546875 10.91796875 C1.17628906 10.05816406 0.99710937 9.19835937 0.8125 8.3125 C0.65394531 7.56613281 0.49539062 6.81976563 0.33203125 6.05078125 C0 4 0 4 0 0 Z " fill="#22262A" transform="translate(107,354)"/>
<path d="M0 0 C2.31 0 4.62 0 7 0 C7.98414433 1.91411557 8.96213349 3.8313967 9.9375 5.75 C10.48277344 6.81734375 11.02804687 7.8846875 11.58984375 8.984375 C13 12 13 12 14 16 C14.33 10.72 14.66 5.44 15 0 C16.65 0 18.3 0 20 0 C20 9.57 20 19.14 20 29 C18.02 29 16.04 29 14 29 C10.90563912 25.33260933 9.63657211 20.46337847 8 16 C7.67 15.67 7.34 15.34 7 15 C6.67 19.62 6.34 24.24 6 29 C4.02 29 2.04 29 0 29 C0 19.43 0 9.86 0 0 Z " fill="#202629" transform="translate(322,354)"/>
<path d="M0 0 C3.375 -0.1875 3.375 -0.1875 7 0 C8.84214337 2.76321506 9.58987581 4.57829513 10.47265625 7.7109375 C10.86227539 9.08378906 10.86227539 9.08378906 11.25976562 10.484375 C11.52466797 11.43828125 11.78957031 12.3921875 12.0625 13.375 C12.33126953 14.32117188 12.60003906 15.26734375 12.87695312 16.2421875 C14.07005679 20.4790444 15.17725873 24.67349077 16 29 C13.69 29 11.38 29 9 29 C8.67 26.69 8.34 24.38 8 22 C5.36 22 2.72 22 0 22 C-0.66 24.31 -1.32 26.62 -2 29 C-3.98 29 -5.96 29 -8 29 C-5.29571581 16.41836577 -5.29571581 16.41836577 -3.4375 11.6875 C-1.92340393 7.80351443 -0.94114088 4.05414531 0 0 Z " fill="#27292E" transform="translate(246,354)"/>
<path d="M0 0 C1.98 0 3.96 0 6 0 C6 9.9 6 19.8 6 30 C4.02 30 2.04 30 0 30 C0 25.71 0 21.42 0 17 C-2.97 17 -5.94 17 -9 17 C-9 21.29 -9 25.58 -9 30 C-10.65 30 -12.3 30 -14 30 C-14 20.43 -14 10.86 -14 1 C-12.35 1 -10.7 1 -9 1 C-9 4.63 -9 8.26 -9 12 C-6.03 12 -3.06 12 0 12 C0 8.04 0 4.08 0 0 Z " fill="#2C3134" transform="translate(230,353)"/>
<path d="M0 0 C3.4375 1.625 3.4375 1.625 6 4 C6.375 7.25 6.375 7.25 6 10 C4.35 10 2.7 10 1 10 C0.67 8.35 0.34 6.7 0 5 C-1.98 5 -3.96 5 -6 5 C-6 11.27 -6 17.54 -6 24 C-2.25308553 25.39770584 -2.25308553 25.39770584 0 24 C0.65772428 20.97065509 0.65772428 20.97065509 1 18 C-0.32 18 -1.64 18 -3 18 C-3 16.68 -3 15.36 -3 14 C0.3 14 3.6 14 7 14 C7 19.28 7 24.56 7 30 C5.68 30 4.36 30 3 30 C2.67 29.34 2.34 28.68 2 28 C1.34 28.66 0.68 29.32 0 30 C-5.11340206 30.57731959 -5.11340206 30.57731959 -8 30 C-12.11280172 25.99265473 -13.15016217 23.03890898 -13.234375 17.38085938 C-13.23953125 16.65705078 -13.2446875 15.93324219 -13.25 15.1875 C-13.270625 14.47529297 -13.29125 13.76308594 -13.3125 13.02929688 C-13.34618584 8.4774978 -12.84122229 5.59135808 -10 2 C-6.24543433 -0.50304378 -4.45254066 -0.45280074 0 0 Z " fill="#202427" transform="translate(360,353)"/>
<path d="M0 0 C14 0 14 0 18 3 C18.25 6.6875 18.25 6.6875 18 10 C16.68 9.34 15.36 8.68 14 8 C13.67 8.99 13.34 9.98 13 11 C12.34 10.67 11.68 10.34 11 10 C11.33 8.35 11.66 6.7 12 5 C9.03 4.505 9.03 4.505 6 4 C6 6.64 6 9.28 6 12 C7.32 12.33 8.64 12.66 10 13 C9.01 13.66 8.02 14.32 7 15 C6.42006301 17.19454681 6.42006301 17.19454681 6.3125 19.625 C6.24675781 20.44226563 6.18101562 21.25953125 6.11328125 22.1015625 C6.07589844 22.72804688 6.03851563 23.35453125 6 24 C9.96 23.505 9.96 23.505 14 23 C14.33 20.36 14.66 17.72 15 15 C15.99 15 16.98 15 18 15 C19.59051299 18.18102598 19.39740378 21.5369099 19 25 C16.98831664 28.11810922 15.78213002 28.0544675 12 29 C8.04 29 4.08 29 0 29 C0 19.43 0 9.86 0 0 Z " fill="#1A2024" transform="translate(161,354)"/>
<path d="M0 0 C5.28 0 10.56 0 16 0 C16 1.65 16 3.3 16 5 C12.7 5 9.4 5 6 5 C6 6.98 6 8.96 6 11 C9.3 11 12.6 11 16 11 C16 12.65 16 14.3 16 16 C12.7 16 9.4 16 6 16 C6 18.31 6 20.62 6 23 C9.63 23 13.26 23 17 23 C17 24.98 17 26.96 17 29 C11.39 29 5.78 29 0 29 C0 19.43 0 9.86 0 0 Z " fill="#353A3D" transform="translate(302,354)"/>
<path d="M0 0 C5.28 0 10.56 0 16 0 C16 1.65 16 3.3 16 5 C12.7 5 9.4 5 6 5 C6 6.98 6 8.96 6 11 C8.97 11 11.94 11 15 11 C15 12.65 15 14.3 15 16 C12.03 16 9.06 16 6 16 C6 18.64 6 21.28 6 24 C9.3 24 12.6 24 16 24 C16 25.65 16 27.3 16 29 C10.72 29 5.44 29 0 29 C0 19.43 0 9.86 0 0 Z " fill="#1B2024" transform="translate(141,354)"/>
<path d="M0 0 C5.28 0 10.56 0 16 0 C16 1.65 16 3.3 16 5 C12.7 5 9.4 5 6 5 C6 6.98 6 8.96 6 11 C8.97 11 11.94 11 15 11 C15 12.65 15 14.3 15 16 C12.03 16 9.06 16 6 16 C6 18.64 6 21.28 6 24 C9.3 24 12.6 24 16 24 C16 25.65 16 27.3 16 29 C10.72 29 5.44 29 0 29 C0 19.43 0 9.86 0 0 Z " fill="#23272B" transform="translate(372,354)"/>
<path d="M0 0 C2.9375 2.1875 2.9375 2.1875 5 5 C5.3125 7.8125 5.3125 7.8125 5 10 C3.35 10 1.7 10 0 10 C-0.66 8.68 -1.32 7.36 -2 6 C-3.32 6 -4.64 6 -6 6 C-7.17794853 9.53384559 -7.13264317 12.40277553 -7.125 16.125 C-7.12757813 17.38570313 -7.13015625 18.64640625 -7.1328125 19.9453125 C-7.35010022 22.87514132 -7.35010022 22.87514132 -6 24 C-4.33382885 24.04063832 -2.66611905 24.042721 -1 24 C-0.67 23.01 -0.34 22.02 0 21 C1.98 21 3.96 21 6 21 C5.45276317 24.37462715 4.9451 26.08235 3 29 C-0.71014101 30.23671367 -4.14438758 30.56368603 -8 30 C-10.8100346 28.20636089 -12.50940468 26.98119065 -14 24 C-14.12479416 21.19648462 -14.18517138 18.4286626 -14.1875 15.625 C-14.19974609 14.85671875 -14.21199219 14.0884375 -14.22460938 13.296875 C-14.24272755 6.31533639 -14.24272755 6.31533639 -12 3 C-11.34 3 -10.68 3 -10 3 C-10 2.34 -10 1.68 -10 1 C-6.36217368 -0.21260877 -3.82264001 -0.39544552 0 0 Z " fill="#252A2D" transform="translate(206,353)"/>
<path d="M0 0 C1.32 1.65 2.64 3.3 4 5 C4.66 4.01 5.32 3.02 6 2 C6 11.57 6 21.14 6 31 C5.67 31 5.34 31 5 31 C5 27.04 5 23.08 5 19 C4.01 19 3.02 19 2 19 C2 19.99 2 20.98 2 22 C0.02 22 -1.96 22 -4 22 C-4.33 23.32 -4.66 24.64 -5 26 C-7.375 26.125 -7.375 26.125 -10 26 C-12 24 -12 24 -12.265625 20.8828125 C-12.26046875 19.64273437 -12.2553125 18.40265625 -12.25 17.125 C-12.25515625 15.89007813 -12.2603125 14.65515625 -12.265625 13.3828125 C-12.02183826 10.27811666 -11.63964816 8.58960304 -10 6 C-8.35 6.33 -6.7 6.66 -5 7 C-4.67 8.32 -4.34 9.64 -4 11 C-2.35 11 -0.7 11 1 11 C-0.12697043 6.03088634 -0.12697043 6.03088634 -3 2 C-2.01 1.34 -1.02 0.68 0 0 Z " fill="#E9EAE9" transform="translate(210,352)"/>
<path d="M0 0 C1.98 0 3.96 0 6 0 C6 7.92 6 15.84 6 24 C9.3 24 12.6 24 16 24 C16 25.65 16 27.3 16 29 C10.72 29 5.44 29 0 29 C0 19.43 0 9.86 0 0 Z " fill="#25292D" transform="translate(283,354)"/>
<path d="M0 0 C1.98 0 3.96 0 6 0 C6 7.92 6 15.84 6 24 C9.3 24 12.6 24 16 24 C16 25.65 16 27.3 16 29 C10.72 29 5.44 29 0 29 C0 19.43 0 9.86 0 0 Z " fill="#282D30" transform="translate(264,354)"/>
<path d="M0 0 C2.31 0 4.62 0 7 0 C8.78409802 3.06246747 9.22880021 5.22079273 9.125 8.75 C9.10695313 9.54921875 9.08890625 10.3484375 9.0703125 11.171875 C9.03550781 12.07679688 9.03550781 12.07679688 9 13 C8.34 13 7.68 13 7 13 C6.67 18.28 6.34 23.56 6 29 C4.02 29 2.04 29 0 29 C0 19.43 0 9.86 0 0 Z " fill="#2E3235" transform="translate(322,354)"/>
<path d="M0 0 C2.1875 0.3125 2.1875 0.3125 4 1 C4.33 2.65 4.66 4.3 5 6 C6.65 6 8.3 6 10 6 C10.33 4.68 10.66 3.36 11 2 C11.90483637 7.36489595 12.12303662 12.50317457 12.0625 17.9375 C12.05798828 18.71673828 12.05347656 19.49597656 12.04882812 20.29882812 C12.03716908 22.19925268 12.01923877 24.09963706 12 26 C11.67 26 11.34 26 11 26 C11 20.72 11 15.44 11 10 C7.7 10 4.4 10 1 10 C1 11.32 1 12.64 1 14 C2.32 14 3.64 14 5 14 C5 15.98 5 17.96 5 20 C2.6875 21.125 2.6875 21.125 0 22 C-0.99 21.34 -1.98 20.68 -3 20 C-3.30344568 17.09941628 -3.41805667 14.45925705 -3.375 11.5625 C-3.39240234 10.39750977 -3.39240234 10.39750977 -3.41015625 9.20898438 C-3.38057035 3.48411279 -3.38057035 3.48411279 -1.61181641 1.23413086 C-1.07991699 0.82686768 -0.54801758 0.41960449 0 0 Z " fill="#DCDEDD" transform="translate(356,357)"/>
<path d="M0 0 C3.4375 1.625 3.4375 1.625 6 4 C6.375 7.25 6.375 7.25 6 10 C4.35 10 2.7 10 1 10 C0.67 8.35 0.34 6.7 0 5 C-1.98 5 -3.96 5 -6 5 C-6.66 10.28 -7.32 15.56 -8 21 C-8.33 20.34 -8.66 19.68 -9 19 C-11.33075929 19.95865509 -11.33075929 19.95865509 -13 23 C-13.08132187 20.43685501 -13.14064175 17.87631582 -13.1875 15.3125 C-13.21263672 14.59126953 -13.23777344 13.87003906 -13.26367188 13.12695312 C-13.32667231 8.52792109 -12.88572296 5.62565193 -10 2 C-6.24543433 -0.50304378 -4.45254066 -0.45280074 0 0 Z " fill="#202227" transform="translate(360,353)"/>
<path d="M0 0 C1.65 0 3.3 0 5 0 C5.95024979 3.69541586 5.95024979 6.30458414 5 10 C4.34 10 3.68 10 3 10 C2.67 11.32 2.34 12.64 2 14 C2 13.01 2 12.02 2 11 C1.34 11 0.68 11 0 11 C0.33 13.64 0.66 16.28 1 19 C0.01 19 -0.98 19 -2 19 C-2 20.98 -2 22.96 -2 25 C-2.66 25.33 -3.32 25.66 -4 26 C-4.73075648 28.3140622 -5.40138258 30.64828869 -6 33 C-7.5 31.875 -7.5 31.875 -9 30 C-9.56089105 24.671535 -8.02949171 20.5550265 -6.125 15.6875 C-5.85558594 14.95982422 -5.58617187 14.23214844 -5.30859375 13.48242188 C-3.26420291 8.13210145 -3.26420291 8.13210145 -1 7 C-0.59270772 4.67843403 -0.25561323 2.3431213 0 0 Z " fill="#F7AF36" transform="translate(252,201)"/>
<path d="M0 0 C-1.26538369 0.84158536 -2.53753779 1.67299748 -3.8125 2.5 C-4.87404297 3.19609375 -4.87404297 3.19609375 -5.95703125 3.90625 C-8 5 -8 5 -11 5 C-11 5.66 -11 6.32 -11 7 C-13.64 7.33 -16.28 7.66 -19 8 C-19.309375 9.093125 -19.61875 10.18625 -19.9375 11.3125 C-20.58337897 13.55407994 -21.2623117 15.7869351 -22 18 C-22.99 18 -23.98 18 -25 18 C-25 18.66 -25 19.32 -25 20 C-25.598125 19.835 -26.19625 19.67 -26.8125 19.5 C-29.11344336 18.8885876 -29.11344336 18.8885876 -32 19 C-34.33333333 19 -36.66666667 19 -39 19 C-39 19.66 -39 20.32 -39 21 C-39.99 21.33 -40.98 21.66 -42 22 C-41.75756836 19.64257812 -41.75756836 19.64257812 -41 17 C-39.20922852 15.68554688 -39.20922852 15.68554688 -36.87890625 14.71875 C-36.03046143 14.35418701 -35.1820166 13.98962402 -34.30786133 13.61401367 C-33.40189209 13.24638916 -32.49592285 12.87876465 -31.5625 12.5 C-29.72334712 11.71627652 -27.88479722 10.93113642 -26.046875 10.14453125 C-25.16708984 9.77408691 -24.28730469 9.40364258 -23.38085938 9.02197266 C-20.6364513 7.84394844 -17.96810477 6.55336041 -15.3125 5.1875 C-12.2300265 3.61615028 -9.13812 2.08286677 -6 0.625 C-5.278125 0.28726563 -4.55625 -0.05046875 -3.8125 -0.3984375 C-2 -1 -2 -1 0 0 Z " fill="#271D22" transform="translate(336,152)"/>
<path d="M0 0 C2.97 0.495 2.97 0.495 6 1 C5.979375 1.804375 5.95875 2.60875 5.9375 3.4375 C5.70366379 5.93354885 5.70366379 5.93354885 7 7 C7.33 5.68 7.66 4.36 8 3 C9.5 4.375 9.5 4.375 11 6 C11 6.66 11 7.32 11 8 C10.01 8.495 10.01 8.495 9 9 C9.66 9.66 10.32 10.32 11 11 C10.34 11 9.68 11 9 11 C9.061875 11.928125 9.12375 12.85625 9.1875 13.8125 C9 17 9 17 7.875 18.875 C5.21965017 20.4682099 3.03210482 20.20214032 0 20 C-0.05399736 18.54207116 -0.09279177 17.08357288 -0.125 15.625 C-0.15980469 14.40683594 -0.15980469 14.40683594 -0.1953125 13.1640625 C0 11 0 11 2 9 C1.34 8.67 0.68 8.34 0 8 C0 5.36 0 2.72 0 0 Z " fill="#1B2124" transform="translate(167,358)"/>
<path d="M0 0 C0.33 0 0.66 0 1 0 C1 9.24 1 18.48 1 28 C-0.32 28.33 -1.64 28.66 -3 29 C-3 27.35 -3 25.7 -3 24 C-6.3 24 -9.6 24 -13 24 C-13 21.36 -13 18.72 -13 16 C-10.03 16 -7.06 16 -4 16 C-4 14.35 -4 12.7 -4 11 C-3.67 12.32 -3.34 13.64 -3 15 C-2.34 14.67 -1.68 14.34 -1 14 C-0.52998967 10.72444392 -0.52998967 10.72444392 -0.375 6.9375 C-0.30023438 5.64714844 -0.22546875 4.35679687 -0.1484375 3.02734375 C-0.09945312 2.02832031 -0.05046875 1.02929688 0 0 Z " fill="#E3E4E3" transform="translate(160,354)"/>
<path d="M0 0 C5.28 0 10.56 0 16 0 C16 1.65 16 3.3 16 5 C12.7 5 9.4 5 6 5 C5.67 7.64 5.34 10.28 5 13 C4.01 13 3.02 13 2 13 C1.67 17.95 1.34 22.9 1 28 C5.95 28 10.9 28 16 28 C16 28.33 16 28.66 16 29 C10.72 29 5.44 29 0 29 C0 19.43 0 9.86 0 0 Z " fill="#363A3E" transform="translate(141,354)"/>
<path d="M0 0 C1.65 0 3.3 0 5 0 C5 3.63 5 7.26 5 11 C7.64 11 10.28 11 13 11 C13 11.33 13 11.66 13 12 C7.06 12.495 7.06 12.495 1 13 C1.33 13.66 1.66 14.32 2 15 C2.99 14.67 3.98 14.34 5 14 C5 18.95 5 23.9 5 29 C3.35 29 1.7 29 0 29 C0 19.43 0 9.86 0 0 Z " fill="#1F2327" transform="translate(216,354)"/>
<path d="M0 0 C6.01562237 4.51171678 7.27156915 10.92212396 9 18 C9 18.66 9 19.32 9 20 C6.69 20 4.38 20 2 20 C1.67 17.69 1.34 15.38 1 13 C-1.64 13 -4.28 13 -7 13 C-7.33 11.68 -7.66 10.36 -8 9 C-4.535 8.505 -4.535 8.505 -1 8 C-1.020625 6.865625 -1.04125 5.73125 -1.0625 4.5625 C-1 1 -1 1 0 0 Z " fill="#262B2E" transform="translate(253,363)"/>
<path d="M0 0 C3.70523427 0.92630857 7.11793833 2.09042018 10.6875 3.4375 C11.84636719 3.86933594 13.00523437 4.30117187 14.19921875 4.74609375 C17 6 17 6 18 8 C16.26982492 7.54548816 14.54090123 7.08621143 12.8125 6.625 C11.84957031 6.36976562 10.88664062 6.11453125 9.89453125 5.8515625 C7 5 7 5 2 3 C2 17.52 2 32.04 2 47 C3.32 47.33 4.64 47.66 6 48 C4.02 48.66 2.04 49.32 0 50 C0 33.5 0 17 0 0 Z " fill="#BB4E45" transform="translate(293,120)"/>
<path d="M0 0 C7.875 0 7.875 0 11 2 C10.67 2.66 10.34 3.32 10 4 C7.69 3.01 5.38 2.02 3 1 C3 17.5 3 34 3 51 C2.34 51 1.68 51 1 51 C0.67 34.17 0.34 17.34 0 0 Z " fill="#301314" transform="translate(290,119)"/>
<path d="M0 0 C0.33 0 0.66 0 1 0 C1 9.24 1 18.48 1 28 C3.97 27.67 6.94 27.34 10 27 C10.66 25.68 11.32 24.36 12 23 C12.66 23 13.32 23 14 23 C14.33 20.36 14.66 17.72 15 15 C15.99 15 16.98 15 18 15 C19.59051299 18.18102598 19.39740378 21.5369099 19 25 C16.98831664 28.11810922 15.78213002 28.0544675 12 29 C8.04 29 4.08 29 0 29 C0 19.43 0 9.86 0 0 Z " fill="#303436" transform="translate(161,354)"/>
<path d="M0 0 C5.28 0 10.56 0 16 0 C16 1.65 16 3.3 16 5 C12.7 5 9.4 5 6 5 C5.67 5.66 5.34 6.32 5 7 C4.01 5.35 3.02 3.7 2 2 C2.08378906 2.65226562 2.16757812 3.30453125 2.25390625 3.9765625 C2.82554104 8.88249144 3.15311982 13.13127185 2 18 C-1.41306555 12.67884268 -0.11199598 6.04778317 0 0 Z " fill="#171B1E" transform="translate(302,354)"/>
<path d="M0 0 C5.23272633 1.63958758 10.15196636 3.38952035 15 6 C15 6.66 15 7.32 15 8 C14.34 8 13.68 8 13 8 C13.33 8.99 13.66 9.98 14 11 C13.01 10.67 12.02 10.34 11 10 C10.67 10.66 10.34 11.32 10 12 C7.61435923 11.42415568 5.33317216 10.77772405 3 10 C3 9.34 3 8.68 3 8 C1.68 8 0.36 8 -1 8 C-0.7525 7.13375 -0.7525 7.13375 -0.5 6.25 C0.14462031 3.73335631 0.14462031 3.73335631 0 0 Z " fill="#1E2328" transform="translate(314,119)"/>
<path d="M0 0 C2 2 2 2 2.3125 4.4375 C2 7 2 7 0.8125 8.8125 C-1.64907776 10.42525784 -3.11065736 10.4334014 -6 10 C-7.8125 8.8125 -7.8125 8.8125 -9 7 C-9.4375 4.5 -9.4375 4.5 -9 2 C-6.07557433 -1.24936186 -4.04996841 -1.38551551 0 0 Z " fill="#24282C" transform="translate(197,155)"/>
<path d="M0 0 C0.66 0.66 1.32 1.32 2 2 C1.54545455 7.45454545 1.54545455 7.45454545 -1 10 C-3.84602594 10.36487512 -5.3864306 10.40199375 -7.8125 8.8125 C-9.44052002 6.32762734 -9.50975499 4.91288568 -9 2 C-6.07557433 -1.24936186 -4.04996841 -1.38551551 0 0 Z " fill="#282C2F" transform="translate(156,155)"/>
<path d="M0 0 C1.38125018 2.76250036 1.19079306 4.94731099 1 8 C-1 10 -1 10 -3.4375 10.3125 C-6 10 -6 10 -7.875 8.9375 C-9.67936761 5.82997801 -8.81177938 3.37200667 -8 0 C-5.09660535 -1.45169732 -3.09125158 -0.72348441 0 0 Z " fill="#1C2227" transform="translate(177,155)"/>
<path d="M0 0 C1.65 0 3.3 0 5 0 C5 9.24 5 18.48 5 28 C4.67 28 4.34 28 4 28 C4 23.38 4 18.76 4 14 C2.68 14.33 1.36 14.66 0 15 C0 10.05 0 5.1 0 0 Z " fill="#191B1F" transform="translate(337,354)"/>
<path d="M0 0 C0.66 0.33 1.32 0.66 2 1 C0.73461631 1.84158536 -0.53753779 2.67299748 -1.8125 3.5 C-2.87404297 4.19609375 -2.87404297 4.19609375 -3.95703125 4.90625 C-6 6 -6 6 -9 6 C-9 6.66 -9 7.32 -9 8 C-11.64 8.33 -14.28 8.66 -17 9 C-17.33 10.98 -17.66 12.96 -18 15 C-20.31 15 -22.62 15 -25 15 C-25.33 15.66 -25.66 16.32 -26 17 C-28.475 16.01 -28.475 16.01 -31 15 C-28.61262464 13.40841643 -26.44163963 12.19120818 -23.8671875 10.9765625 C-23.06023437 10.595 -22.25328125 10.2134375 -21.421875 9.8203125 C-20.58140625 9.42585937 -19.7409375 9.03140625 -18.875 8.625 C-18.05773437 8.23828125 -17.24046875 7.8515625 -16.3984375 7.453125 C-13.93671068 6.29237406 -11.46865935 5.14591904 -9 4 C-8.15727539 3.5987793 -7.31455078 3.19755859 -6.44628906 2.78417969 C-5.6415918 2.40938477 -4.83689453 2.03458984 -4.0078125 1.6484375 C-3.28480957 1.30731934 -2.56180664 0.96620117 -1.81689453 0.61474609 C-1.21731934 0.41187988 -0.61774414 0.20901367 0 0 Z " fill="#2D1E20" transform="translate(334,151)"/>
<path d="M0 0 C2.31 0 4.62 0 7 0 C7.33 1.65 7.66 3.3 8 5 C7.01 4.67 6.02 4.34 5 4 C5 4.66 5 5.32 5 6 C4.34 6 3.68 6 3 6 C3.061875 7.423125 3.061875 7.423125 3.125 8.875 C3 12 3 12 1 14 C0.01 13.34 -0.98 12.68 -2 12 C-1.85904936 10.3745692 -1.71207913 8.74965949 -1.5625 7.125 C-1.48128906 6.22007812 -1.40007812 5.31515625 -1.31640625 4.3828125 C-1 2 -1 2 0 0 Z " fill="#25282C" transform="translate(246,354)"/>
<path d="M0 0 C1.13732426 3.40401948 0.83989957 5.77456664 0.0625 9.25 C-0.13214844 10.14203125 -0.32679688 11.0340625 -0.52734375 11.953125 C-0.68332031 12.62859375 -0.83929688 13.3040625 -1 14 C-2.98 14 -4.96 14 -7 14 C-7.33 12.35 -7.66 10.7 -8 9 C-7.34 8.67 -6.68 8.34 -6 8 C-6 6.35 -6 4.7 -6 3 C-4.02 2.67 -2.04 2.34 0 2 C0 1.34 0 0.68 0 0 Z " fill="#F6AF38" transform="translate(237,256)"/>
<path d="M0 0 C2.0625 0.6875 2.0625 0.6875 5.0625 2.6875 C5.25 5.8125 5.25 5.8125 5.0625 8.6875 C4.0725 8.6875 3.0825 8.6875 2.0625 8.6875 C1.0725 9.0175 0.0825 9.3475 -0.9375 9.6875 C-3.59710237 10.3841836 -6.26756123 11.03095768 -8.9375 11.6875 C-7.70815985 7.99947956 -5.99890622 6.96393027 -2.9375 4.6875 C-3.2675 3.3675 -3.5975 2.0475 -3.9375 0.6875 C-1.9375 -0.3125 -1.9375 -0.3125 0 0 Z " fill="#F5AF36" transform="translate(297.9375,231.3125)"/>
<path d="M0 0 C0.99 0.33 1.98 0.66 3 1 C2.67 5.95 2.34 10.9 2 16 C1.67 15.34 1.34 14.68 1 14 C-1.33075929 14.95865509 -1.33075929 14.95865509 -3 18 C-3.08074203 15.37438891 -3.1403623 12.75124324 -3.1875 10.125 C-3.21263672 9.37863281 -3.23777344 8.63226563 -3.26367188 7.86328125 C-3.29296875 5.6953125 -3.29296875 5.6953125 -3 2 C-2.01 1.34 -1.02 0.68 0 0 Z " fill="#181D21" transform="translate(350,358)"/>
<path d="M0 0 C0.33 0 0.66 0 1 0 C1.33 4.95 1.66 9.9 2 15 C4.475 15.99 4.475 15.99 7 17 C6.34 17.33 5.68 17.66 5 18 C5.33 18.99 5.66 19.98 6 21 C3.25 21.3125 3.25 21.3125 0 21 C-2.77871234 18.44065969 -3.91313862 16.97719051 -4.25 13.1875 C-4.1675 12.465625 -4.085 11.74375 -4 11 C-3.01 10.67 -2.02 10.34 -1 10 C-0.67 6.7 -0.34 3.4 0 0 Z " fill="#2E3134" transform="translate(352,362)"/>
<path d="M0 0 C0.99 0.99 1.98 1.98 3 3 C3 3.66 3 4.32 3 5 C6.96 5 10.92 5 15 5 C15 6.32 15 7.64 15 9 C9.72 9 4.44 9 -1 9 C-0.67 6.03 -0.34 3.06 0 0 Z " fill="#181D21" transform="translate(303,373)"/>
<path d="M0 0 C1.98 0 3.96 0 6 0 C6.2919519 5.54708616 5.19088986 10.61972975 4 16 C3.67 15.34 3.34 14.68 3 14 C2.01 14 1.02 14 0 14 C-1.03115279 10.73086376 -0.9638984 8.13958652 -0.5625 4.75 C-0.46066406 3.85796875 -0.35882813 2.9659375 -0.25390625 2.046875 C-0.17011719 1.37140625 -0.08632812 0.6959375 0 0 Z " fill="#272C2E" transform="translate(132,354)"/>
<path d="M0 0 C2.4375 1.6875 2.4375 1.6875 4 4 C4.25 6.75 4.25 6.75 4 9 C2.35 9 0.7 9 -1 9 C-1.185625 8.360625 -1.37125 7.72125 -1.5625 7.0625 C-2.94246056 4.57873787 -2.94246056 4.57873787 -6.625 4.25 C-7.73875 4.1675 -8.8525 4.085 -10 4 C-9.67 3.01 -9.34 2.02 -9 1 C-5.90826248 -0.54586876 -3.40570448 -0.29359521 0 0 Z " fill="#202426" transform="translate(207,354)"/>
<path d="M0 0 C2.97 0.495 2.97 0.495 6 1 C6.8125 3.625 6.8125 3.625 7 7 C5.06270495 10.49677737 2.84509998 12.71830001 -1 14 C0.20381448 11.50638429 1.45428722 9.31856917 3 7 C1.35 7 -0.3 7 -2 7 C-2.33 6.01 -2.66 5.02 -3 4 C-1.5625 1.8125 -1.5625 1.8125 0 0 Z " fill="#22272A" transform="translate(356,283)"/>
<path d="M0 0 C0.99 0.66 1.98 1.32 3 2 C2.22914063 2.62648437 1.45828125 3.25296875 0.6640625 3.8984375 C-0.33882813 4.71570313 -1.34171875 5.53296875 -2.375 6.375 C-3.37273437 7.18710938 -4.37046875 7.99921875 -5.3984375 8.8359375 C-7.96360506 10.90265916 -7.96360506 10.90265916 -10 13 C-9.67673447 16.59679066 -9.67673447 16.59679066 -9 20 C-6.69 20 -4.38 20 -2 20 C-1.34 18.68 -0.68 17.36 0 16 C0.33 16.66 0.66 17.32 1 18 C-0.5625 20 -0.5625 20 -3 22 C-6.625 22.4375 -6.625 22.4375 -10 22 C-12.56616632 18.15075052 -12.55097676 15.5650696 -13 11 C-8.25 8 -8.25 8 -6 8 C-6 7.34 -6 6.68 -6 6 C-5.34 6 -4.68 6 -4 6 C-4 5.34 -4 4.68 -4 4 C-3.34 4 -2.68 4 -2 4 C-2 3.34 -2 2.68 -2 2 C-1.34 2 -0.68 2 0 2 C0 1.34 0 0.68 0 0 Z " fill="#FDF4D9" transform="translate(281,243)"/>
<path d="M0 0 C2.42857143 6.28571429 2.42857143 6.28571429 1 10 C0.34 10 -0.32 10 -1 10 C-1.33 9.01 -1.66 8.02 -2 7 C-2.33 9.31 -2.66 11.62 -3 14 C-4.65 14 -6.3 14 -8 14 C-7.34 10.37 -6.68 6.74 -6 3 C-5.34 3 -4.68 3 -4 3 C-4 2.34 -4 1.68 -4 1 C-1 0 -1 0 0 0 Z " fill="#2C2F34" transform="translate(255,357)"/>
<path d="M0 0 C0.25 6.625 0.25 6.625 -2 10 C-2 7.36 -2 4.72 -2 2 C-3.65 1.67 -5.3 1.34 -7 1 C-7 3.31 -7 5.62 -7 8 C-7.99 8.33 -8.98 8.66 -10 9 C-10.12503906 9.70640625 -10.25007812 10.4128125 -10.37890625 11.140625 C-11.02564237 14.11805164 -11.91058143 16.88237832 -12.9375 19.75 C-13.27652344 20.71421875 -13.61554688 21.6784375 -13.96484375 22.671875 C-15 25 -15 25 -17 26 C-15.27502569 19.7053569 -13.1877737 13.56043318 -10.9375 7.4375 C-10.6801709 6.72271484 -10.4228418 6.00792969 -10.15771484 5.27148438 C-7.77051131 -1.12936905 -6.5397437 -1.27951507 0 0 Z " fill="#E7B460" transform="translate(259,200)"/>
<path d="M0 0 C-0.66 1.98 -1.32 3.96 -2 6 C-3.65 6 -5.3 6 -7 6 C-7 5.01 -7 4.02 -7 3 C-9.18695454 5.02526413 -9.18695454 5.02526413 -10.875 8.125 C-11.57625 9.07375 -12.2775 10.0225 -13 11 C-14.32 11 -15.64 11 -17 11 C-17 10.34 -17 9.68 -17 9 C-16.01 9 -15.02 9 -14 9 C-13.9175 8.4225 -13.835 7.845 -13.75 7.25 C-12.46769434 3.40308302 -10.0204613 1.53574218 -6.5 -0.3125 C-3.83600828 -1.04509772 -2.55680815 -0.94696598 0 0 Z " fill="#F7AF38" transform="translate(210,219)"/>
<path d="M0 0 C0.80244141 0.00966797 1.60488281 0.01933594 2.43164062 0.02929688 C3.26501953 0.05443359 4.09839844 0.07957031 4.95703125 0.10546875 C6.22450195 0.12577148 6.22450195 0.12577148 7.51757812 0.14648438 C9.60183509 0.18181076 11.68576402 0.23561736 13.76953125 0.29296875 C10.36521178 2.56251506 8.60428923 2.65846824 4.58203125 2.91796875 C3.49535156 2.99273437 2.40867188 3.0675 1.2890625 3.14453125 C0.04189453 3.21800781 0.04189453 3.21800781 -1.23046875 3.29296875 C-1.56046875 5.27296875 -1.89046875 7.25296875 -2.23046875 9.29296875 C-3.55046875 8.96296875 -4.87046875 8.63296875 -6.23046875 8.29296875 C-6.91796875 5.98046875 -6.91796875 5.98046875 -7.23046875 3.29296875 C-5.08901908 0.38797468 -3.53317351 -0.0751739 0 0 Z " fill="#232629" transform="translate(192.23046875,317.70703125)"/>
<path d="M0 0 C0.66 0.66 1.32 1.32 2 2 C4.57061311 2.64767793 4.57061311 2.64767793 7 3 C7 4.98 7 6.96 7 9 C4.6875 10.125 4.6875 10.125 2 11 C1.01 10.34 0.02 9.68 -1 9 C-0.67 6.03 -0.34 3.06 0 0 Z " fill="#EBEDEE" transform="translate(354,368)"/>
<path d="M0 0 C1.32 0 2.64 0 4 0 C4 3.63 4 7.26 4 11 C6.64 11 9.28 11 12 11 C12 11.33 12 11.66 12 12 C6.06 12.495 6.06 12.495 0 13 C0 8.71 0 4.42 0 0 Z " fill="#171C1F" transform="translate(217,354)"/>
<path d="M0 0 C0.66 0.33 1.32 0.66 2 1 C1.50628906 1.55429688 1.01257813 2.10859375 0.50390625 2.6796875 C-0.45708984 3.76636719 -0.45708984 3.76636719 -1.4375 4.875 C-2.07558594 5.59429687 -2.71367187 6.31359375 -3.37109375 7.0546875 C-5.05014465 8.90750491 -5.05014465 8.90750491 -6 11 C-7.32 11 -8.64 11 -10 11 C-9.67 12.65 -9.34 14.3 -9 16 C-6.36 15.34 -3.72 14.68 -1 14 C-1.66 15.32 -2.32 16.64 -3 18 C-6.375 18.1875 -6.375 18.1875 -10 18 C-12 15 -12 15 -11.97265625 12.64453125 C-10.65320855 9.05711722 -8.28416606 7.08637589 -5.4375 4.6875 C-4.91736328 4.23310547 -4.39722656 3.77871094 -3.86132812 3.31054688 C-2.58322934 2.19660757 -1.29279345 1.09685112 0 0 Z " fill="#EAB75D" transform="translate(282,245)"/>
<path d="M0 0 C4.95 0 9.9 0 15 0 C15 1.32 15 2.64 15 4 C12.03 4 9.06 4 6 4 C6 3.34 6 2.68 6 2 C5.54625 2.495 5.0925 2.99 4.625 3.5 C3 5 3 5 1 5 C0.67 3.35 0.34 1.7 0 0 Z " fill="#1B1F22" transform="translate(142,354)"/>
<path d="M0 0 C1.65 0 3.3 0 5 0 C5 7.59 5 15.18 5 23 C4.67 23 4.34 23 4 23 C3.67 17.39 3.34 11.78 3 6 C1.50256881 7.49743119 1.66797307 8.98824239 1.4375 11.0625 C1.293125 12.361875 1.14875 13.66125 1 15 C0.67 15 0.34 15 0 15 C0 10.05 0 5.1 0 0 Z " fill="#121619" transform="translate(284,354)"/>
<path d="M0 0 C2.64 0 5.28 0 8 0 C8.04241723 2.33294775 8.04092937 4.66702567 8 7 C7 8 7 8 4.5625 8.1875 C2 8 2 8 0 6 C-0.125 2.875 -0.125 2.875 0 0 Z " fill="#EEEFF0" transform="translate(198,370)"/>
<path d="M0 0 C-0.75522976 4.37863547 -2.04637362 8.54011899 -3.4375 12.75 C-3.65470703 13.43449219 -3.87191406 14.11898437 -4.09570312 14.82421875 C-4.67132609 16.57010222 -5.32987824 18.28816247 -6 20 C-6.66 20.33 -7.32 20.66 -8 21 C-7.67 17.04 -7.34 13.08 -7 9 C-6.01 9 -5.02 9 -4 9 C-4.33 6.36 -4.66 3.72 -5 1 C-2 0 -2 0 0 0 Z " fill="#EEB558" transform="translate(257,211)"/>
<path d="M0 0 C2.91796875 -0.390625 2.91796875 -0.390625 6.1875 -0.25 C7.27417969 -0.21390625 8.36085938 -0.1778125 9.48046875 -0.140625 C10.31191406 -0.09421875 11.14335937 -0.0478125 12 0 C12 1.32 12 2.64 12 4 C7.05 4 2.1 4 -3 4 C-2.01 2.68 -1.02 1.36 0 0 Z " fill="#1E2225" transform="translate(376,378)"/>
<path d="M0 0 C2.97 0 5.94 0 9 0 C8.525625 0.78375 8.05125 1.5675 7.5625 2.375 C6.66101977 3.88948678 5.78820515 5.4235897 5 7 C6.65 7 8.3 7 10 7 C10 7.33 10 7.66 10 8 C6.7 8 3.4 8 0 8 C0 5.36 0 2.72 0 0 Z " fill="#D9DBDB" transform="translate(378,370)"/>
<path d="M0 0 C5.75 0.75 5.75 0.75 8 3 C8.125 6.625 8.125 6.625 8 10 C6.68 9.34 5.36 8.68 4 8 C3.67 8.99 3.34 9.98 3 11 C2.34 10.67 1.68 10.34 1 10 C1.33 8.35 1.66 6.7 2 5 C1.34 4.67 0.68 4.34 0 4 C0.66 3.67 1.32 3.34 2 3 C1.34 2.67 0.68 2.34 0 2 C0 1.34 0 0.68 0 0 Z " fill="#262A2C" transform="translate(171,354)"/>
<path d="M0 0 C1.98 0 3.96 0 6 0 C7.125 5.75 7.125 5.75 6 8 C4.02 8 2.04 8 0 8 C0 5.36 0 2.72 0 0 Z " fill="#E5E7E6" transform="translate(167,370)"/>
<path d="M0 0 C0.33 0.99 0.66 1.98 1 3 C-3.625 7.875 -3.625 7.875 -7 9 C-7.6837045 10.32467746 -8.34964186 11.65863633 -9 13 C-12 15 -12 15 -14.1875 14.625 C-14.785625 14.41875 -15.38375 14.2125 -16 14 C-14.71372289 12.82739389 -13.42080217 11.6620717 -12.125 10.5 C-11.40570313 9.8503125 -10.68640625 9.200625 -9.9453125 8.53125 C-8 7 -8 7 -6 7 C-6 6.34 -6 5.68 -6 5 C-4.04072937 3.2856382 -2.04119788 1.61594832 0 0 Z " fill="#FDF3D9" transform="translate(298,244)"/>
<path d="M0 0 C2 3 2 3 1.8125 5.4375 C1 8 1 8 -0.5 9.9375 C-2.24308257 12.00686657 -2.24308257 12.00686657 -2.5 15.125 C-2.665 16.07375 -2.83 17.0225 -3 18 C-6.08888522 20.05925681 -6.70935927 20.2390374 -10.1875 20.125 C-11.445625 20.08375 -12.70375 20.0425 -14 20 C-13.505 18.515 -13.505 18.515 -13 17 C-12.67 17.33 -12.34 17.66 -12 18 C-10.33382885 18.04063832 -8.66611905 18.042721 -7 18 C-4.37747452 12.09931767 -2.16646423 6.08149603 0 0 Z " fill="#FEF4D8" transform="translate(242,253)"/>
<path d="M0 0 C2.64 0 5.28 0 8 0 C10.21540751 4.29534045 9.93660602 6.72187895 8.625 11.3125 C8.32851563 12.38113281 8.03203125 13.44976562 7.7265625 14.55078125 C7.48679687 15.35902344 7.24703125 16.16726562 7 17 C6.34 17 5.68 17 5 17 C5.66666667 12.33333333 6.33333333 7.66666667 7 3 C4.69 3 2.38 3 0 3 C0 2.01 0 1.02 0 0 Z " fill="#FCF0D0" transform="translate(252,197)"/>
<path d="M0 0 C0.66 0.33 1.32 0.66 2 1 C1.01 1.66 0.02 2.32 -1 3 C-0.67 2.01 -0.34 1.02 0 0 Z M-16 1 C-13.0817639 1.47506169 -10.19311151 1.95509035 -7.3125 2.625 C-4.85016441 3.20783647 -4.85016441 3.20783647 -2 2 C-1.67 3.32 -1.34 4.64 -1 6 C1.475 6.495 1.475 6.495 4 7 C4.33 7.99 4.66 8.98 5 10 C-2.36988707 8.033631 -9.13045202 5.30417422 -16 2 C-16 1.67 -16 1.34 -16 1 Z " fill="#331B1B" transform="translate(344,133)"/>
<path d="M0 0 C1.02624025 3.13767498 0.98691733 4.85933086 -0.1796875 7.93359375 C-0.44910156 8.66513672 -0.71851563 9.39667969 -0.99609375 10.15039062 C-1.28613281 10.90513672 -1.57617188 11.65988281 -1.875 12.4375 C-4.41199367 19.08115524 -4.41199367 19.08115524 -6 26 C-6.33 26 -6.66 26 -7 26 C-6.93950287 23.62246262 -6.85232887 21.25080939 -6.75 18.875 C-6.73582031 18.20984375 -6.72164062 17.5446875 -6.70703125 16.859375 C-6.45907989 11.80116723 -5.0165322 8.99110414 -2 5 C-1.28426473 3.35380887 -0.5974304 1.69271945 0 0 Z " fill="#FDF2CF" transform="translate(234,243)"/>
<path d="M0 0 C2.97 0.495 2.97 0.495 6 1 C6.125 3.375 6.125 3.375 6 6 C5.34 6.66 4.68 7.32 4 8 C2.68 8 1.36 8 0 8 C0 5.36 0 2.72 0 0 Z " fill="#DADCDE" transform="translate(167,358)"/>
<path d="M0 0 C0.33 0 0.66 0 1 0 C1 5.61 1 11.22 1 17 C-1 16 -1 16 -2.125 13.875 C-3.15945114 10.47608911 -3.1385722 7.53359114 -3 4 C-2.01 4 -1.02 4 0 4 C0 2.68 0 1.36 0 0 Z " fill="#DCDFDF" transform="translate(336,354)"/>
<path d="M0 0 C2.58436814 0.9556152 5.16749301 1.91437889 7.75 2.875 C8.47960937 3.14441406 9.20921875 3.41382813 9.9609375 3.69140625 C13.40110416 4.97365019 16.76479567 6.24617871 20 8 C20 8.66 20 9.32 20 10 C18.02 10.66 16.04 11.32 14 12 C14 11.34 14 10.68 14 10 C14.66 10 15.32 10 16 10 C15.11691031 7.6608291 15.11691031 7.6608291 12.05859375 6.9296875 C10.86363281 6.58164063 9.66867187 6.23359375 8.4375 5.875 C7.23996094 5.52179688 6.04242188 5.16859375 4.80859375 4.8046875 C3.88175781 4.53914062 2.95492188 4.27359375 2 4 C2 3.34 2 2.68 2 2 C1.34 2 0.68 2 0 2 C0 1.34 0 0.68 0 0 Z " fill="#B44D42" transform="translate(329,135)"/>
<path d="M0 0 C0.33 1.32 0.66 2.64 1 4 C-1.43387753 5.21693876 -3.41838846 5.31959896 -6.125 5.5625 C-7.03507812 5.64628906 -7.94515625 5.73007813 -8.8828125 5.81640625 C-9.93082031 5.90728516 -9.93082031 5.90728516 -11 6 C-8.84733158 3.84733158 -7.15226256 3.06525538 -4.375 1.875 C-3.55773437 1.52179688 -2.74046875 1.16859375 -1.8984375 0.8046875 C-1.27195312 0.53914062 -0.64546875 0.27359375 0 0 Z M-2 5 C-0.5 6.375 -0.5 6.375 1 8 C1 8.66 1 9.32 1 10 C-0.65 10.33 -2.3 10.66 -4 11 C-3.125 6.125 -3.125 6.125 -2 5 Z " fill="#2B1C1E" transform="translate(347,145)"/>
<path d="M0 0 C3.68266103 0.59950296 7.34543185 1.24758891 11 2 C11 2.66 11 3.32 11 4 C12.32 4 13.64 4 15 4 C15 4.66 15 5.32 15 6 C15.95712891 6.16435547 15.95712891 6.16435547 16.93359375 6.33203125 C17.75988281 6.49058594 18.58617187 6.64914063 19.4375 6.8125 C20.26121094 6.96332031 21.08492188 7.11414063 21.93359375 7.26953125 C22.61550781 7.51058594 23.29742187 7.75164062 24 8 C24.33 8.99 24.66 9.98 25 11 C19.78541758 9.64907191 15.10252642 7.82415594 10.25 5.5 C9.59128906 5.19191406 8.93257813 4.88382812 8.25390625 4.56640625 C5.35031073 3.19411871 2.67723121 1.78482081 0 0 Z " fill="#3F1B19" transform="translate(302,123)"/>
<path d="M0 0 C0.33 0 0.66 0 1 0 C1.390625 5.95703125 1.390625 5.95703125 1 8 C-0.32 8.99 -1.64 9.98 -3 11 C3.93 11.495 3.93 11.495 11 12 C11 12.33 11 12.66 11 13 C5.72 13 0.44 13 -5 13 C-4.67 10.69 -4.34 8.38 -4 6 C-2.02 6.495 -2.02 6.495 0 7 C0 4.69 0 2.38 0 0 Z " fill="#363B3F" transform="translate(377,370)"/>
<path d="M0 0 C2.02855159 2.02855159 3.00835839 3.33019566 4 6 C3.8125 8.625 3.8125 8.625 3 11 C2.01 11.66 1.02 12.32 0 13 C-0.66 11.02 -1.32 9.04 -2 7 C-1.34 7 -0.68 7 0 7 C-0.185625 6.030625 -0.37125 5.06125 -0.5625 4.0625 C-0.706875 3.051875 -0.85125 2.04125 -1 1 C-0.67 0.67 -0.34 0.34 0 0 Z " fill="#2B2F32" transform="translate(331,360)"/>
<path d="M0 0 C-1.26538369 0.84158536 -2.53753779 1.67299748 -3.8125 2.5 C-4.87404297 3.19609375 -4.87404297 3.19609375 -5.95703125 3.90625 C-8 5 -8 5 -11 5 C-11 5.66 -11 6.32 -11 7 C-14.3 7.66 -17.6 8.32 -21 9 C-19.18243265 5.3648653 -14.65641381 4.39051733 -11.0625 2.8125 C-10.22525391 2.43158203 -9.38800781 2.05066406 -8.52539062 1.65820312 C-7.72423828 1.30306641 -6.92308594 0.94792969 -6.09765625 0.58203125 C-5.36039307 0.25436768 -4.62312988 -0.0732959 -3.86352539 -0.41088867 C-2 -1 -2 -1 0 0 Z " fill="#431B18" transform="translate(336,152)"/>
<path d="M0 0 C0 1.32 0 2.64 0 4 C-3.96 4 -7.92 4 -12 4 C-12 3.34 -12 2.68 -12 2 C-7.8803623 0.70756464 -4.33168317 -0.26252625 0 0 Z " fill="#191C1F" transform="translate(280,378)"/>
<path d="M0 0 C0.94875 0.04125 1.8975 0.0825 2.875 0.125 C2.875 1.775 2.875 3.425 2.875 5.125 C-0.425 5.125 -3.725 5.125 -7.125 5.125 C-3.80993151 0.15239726 -3.80993151 0.15239726 0 0 Z " fill="#262B2E" transform="translate(315.125,353.875)"/>
<path d="M0 0 C1.98 0 3.96 0 6 0 C5.45276317 3.37462715 4.9451 5.08235 3 8 C2.01 7.67 1.02 7.34 0 7 C0 4.69 0 2.38 0 0 Z " fill="#303436" transform="translate(206,374)"/>
<path d="M0 0 C0.66 0.33 1.32 0.66 2 1 C1.67 1.66 1.34 2.32 1 3 C2.65 2.67 4.3 2.34 6 2 C6.33 2.99 6.66 3.98 7 5 C1.555 7.475 1.555 7.475 -4 10 C-4.33 9.34 -4.66 8.68 -5 8 C-4.01 8 -3.02 8 -2 8 C-2.33 7.01 -2.66 6.02 -3 5 C-2.34 4.67 -1.68 4.34 -1 4 C-0.34786708 1.97536745 -0.34786708 1.97536745 0 0 Z " fill="#262A2D" transform="translate(316,162)"/>
<path d="M0 0 C1.98 0 3.96 0 6 0 C6.042721 1.66611905 6.04063832 3.33382885 6 5 C5 6 5 6 1.9375 6.0625 C0.4834375 6.0315625 0.4834375 6.0315625 -1 6 C-0.67 4.02 -0.34 2.04 0 0 Z " fill="#2E3233" transform="translate(239,377)"/>
<path d="M0 0 C0.66 0 1.32 0 2 0 C2.33 3.63 2.66 7.26 3 11 C1.35 11 -0.3 11 -2 11 C-1.34 7.37 -0.68 3.74 0 0 Z " fill="#D9DDDD" transform="translate(249,360)"/>
<path d="M0 0 C3.21043882 1.38188453 5.04936365 2.92421903 7.25 5.625 C7.77078125 6.25664062 8.2915625 6.88828125 8.828125 7.5390625 C9.40820312 8.26222656 9.40820312 8.26222656 10 9 C7.36 8.67 4.72 8.34 2 8 C2 7.34 2 6.68 2 6 C2.66 6 3.32 6 4 6 C1.8614515 3.8614515 0.86724686 3.57344937 -2 3 C-1.34 2.01 -0.68 1.02 0 0 Z " fill="#FCF4DA" transform="translate(278,224)"/>
<path d="M0 0 C0.268125 0.639375 0.53625 1.27875 0.8125 1.9375 C1.88667752 4.33131686 1.88667752 4.33131686 5 5 C5 5.66 5 6.32 5 7 C4.360625 7.12375 3.72125 7.2475 3.0625 7.375 C2.0415625 7.684375 2.0415625 7.684375 1 8 C0.67 8.66 0.34 9.32 0 10 C-0.99 9.34 -1.98 8.68 -3 8 C-2.67 6.35 -2.34 4.7 -2 3 C-1.34 3 -0.68 3 0 3 C0 2.01 0 1.02 0 0 Z " fill="#F5B036" transform="translate(286,219)"/>
<path d="M0 0 C0.66 0 1.32 0 2 0 C1.67 3.96 1.34 7.92 1 12 C0.34 11.67 -0.32 11.34 -1 11 C-1.484375 9.00390625 -1.484375 9.00390625 -1.75 6.5625 C-1.84796875 5.75941406 -1.9459375 4.95632813 -2.046875 4.12890625 C-2 2 -2 2 0 0 Z " fill="#C9CBCC" transform="translate(116,361)"/>
<path d="M0 0 C0.33 1.65 0.66 3.3 1 5 C0.34 5 -0.32 5 -1 5 C-1.33 5.66 -1.66 6.32 -2 7 C-3.65 6.67 -5.3 6.34 -7 6 C-5.52522876 2.59668175 -4.14385429 0 0 0 Z " fill="#25292D" transform="translate(355,353)"/>
<path d="M0 0 C1.65 0 3.3 0 5 0 C4.60196439 2.88575819 4.20990931 3.82189513 1.9375 5.75 C1.298125 6.1625 0.65875 6.575 0 7 C-0.66 6.67 -1.32 6.34 -2 6 C-1.34 4.02 -0.68 2.04 0 0 Z " fill="#F4B036" transform="translate(207,251)"/>
<path d="M0 0 C1.67542976 0.28604898 3.34385343 0.61781233 5 1 C4.34 2.32 3.68 3.64 3 5 C2.34 5 1.68 5 1 5 C0.67 6.65 0.34 8.3 0 10 C-0.99 10 -1.98 10 -3 10 C-2.34 9.01 -1.68 8.02 -1 7 C-0.960008 5.00039988 -0.95653201 2.99952758 -1 1 C-0.67 0.67 -0.34 0.34 0 0 Z " fill="#FCF1D8" transform="translate(218,209)"/>
<path d="M0 0 C-2.45620851 1.17133058 -4.91474917 2.33721722 -7.375 3.5 C-8.07367188 3.83386719 -8.77234375 4.16773438 -9.4921875 4.51171875 C-14.7734375 7 -14.7734375 7 -17 7 C-17 6.34 -17 5.68 -17 5 C-16.030625 4.71125 -15.06125 4.4225 -14.0625 4.125 C-10.89335797 3.35785318 -10.89335797 3.35785318 -10 1 C-8.22265625 0.33203125 -8.22265625 0.33203125 -6.0625 -0.1875 C-5.35222656 -0.36667969 -4.64195312 -0.54585937 -3.91015625 -0.73046875 C-2 -1 -2 -1 0 0 Z " fill="#C14C41" transform="translate(316,160)"/>
<path d="M0 0 C2.31 0.33 4.62 0.66 7 1 C6.67 2.32 6.34 3.64 6 5 C5.01 5 4.02 5 3 5 C3 5.66 3 6.32 3 7 C1.68 6.67 0.36 6.34 -1 6 C-0.34 5.34 0.32 4.68 1 4 C0.6814823 1.89179203 0.6814823 1.89179203 0 0 Z " fill="#162021" transform="translate(308,165)"/>
<path d="M0 0 C-0.33 0.99 -0.66 1.98 -1 3 C-3.31 3.33 -5.62 3.66 -8 4 C-8.33 2.68 -8.66 1.36 -9 0 C-5.67465243 -1.10844919 -3.37817425 -0.84454356 0 0 Z " fill="#1A1E21" transform="translate(254,372)"/>
<path d="M0 0 C1.98 0 3.96 0 6 0 C6 1.98 6 3.96 6 6 C5.34 6 4.68 6 4 6 C3.34 5.34 2.68 4.68 2 4 C1.01 4.495 1.01 4.495 0 5 C0 3.35 0 1.7 0 0 Z " fill="#343738" transform="translate(132,354)"/>
<path d="M0 0 C1.65 0 3.3 0 5 0 C4.67 1.65 4.34 3.3 4 5 C3.34 5 2.68 5 2 5 C1.67 6.65 1.34 8.3 1 10 C0.67 10 0.34 10 0 10 C0 6.7 0 3.4 0 0 Z " fill="#171B1E" transform="translate(230,354)"/>
<path d="M0 0 C1.32 0.66 2.64 1.32 4 2 C4 2.99 4 3.98 4 5 C2.46875 6.38671875 2.46875 6.38671875 0.5 7.6875 C-0.47453125 8.34298828 -0.47453125 8.34298828 -1.46875 9.01171875 C-1.9740625 9.33785156 -2.479375 9.66398438 -3 10 C-3 9.01 -3 8.02 -3 7 C-2.34 7 -1.68 7 -1 7 C-0.67 4.69 -0.34 2.38 0 0 Z " fill="#FDF3CF" transform="translate(288,233)"/>
<path d="M0 0 C0.66 0.33 1.32 0.66 2 1 C1.67 1.99 1.34 2.98 1 4 C1.66 4.33 2.32 4.66 3 5 C1.71211992 5.53012738 0.41953322 6.0488329 -0.875 6.5625 C-1.95394531 6.99755859 -1.95394531 6.99755859 -3.0546875 7.44140625 C-5 8 -5 8 -7 7 C-5.47005208 5.76302083 -3.94010417 4.52604167 -2.41015625 3.2890625 C-0.86733563 2.0333609 -0.86733563 2.0333609 0 0 Z " fill="#EFB74F" transform="translate(206,213)"/>
<path d="M0 0 C2.97 0 5.94 0 9 0 C8.67 0.66 8.34 1.32 8 2 C7.34 2 6.68 2 6 2 C5.67 2.66 5.34 3.32 5 4 C3.35 4 1.7 4 0 4 C0 2.68 0 1.36 0 0 Z " fill="#161B1D" transform="translate(357,367)"/>
<path d="M0 0 C-0.66666667 1.33333333 -1.33333333 2.66666667 -2 4 C-6.47540984 5.26229508 -6.47540984 5.26229508 -9 4 C-8.67 3.01 -8.34 2.02 -8 1 C-5.29120665 -0.35439668 -2.99066732 -0.06501451 0 0 Z " fill="#181C1E" transform="translate(206,354)"/>
<path d="M0 0 C0.042721 1.66611905 0.04063832 3.33382885 0 5 C-1 6 -1 6 -3.5625 6.0625 C-4.7690625 6.0315625 -4.7690625 6.0315625 -6 6 C-5.34 5.67 -4.68 5.34 -4 5 C-4 4.34 -4 3.68 -4 3 C-4.99 3.33 -5.98 3.66 -7 4 C-7.33 3.34 -7.66 2.68 -8 2 C-2.25 0 -2.25 0 0 0 Z " fill="#1A1E21" transform="translate(207,377)"/>
<path d="M0 0 C3.53333703 1.17777901 6.64845107 2.32422553 10 4 C5.71 4 1.42 4 -3 4 C-2.01 2.68 -1.02 1.36 0 0 Z " fill="#151C1F" transform="translate(376,378)"/>
<path d="M0 0 C0.66 0.33 1.32 0.66 2 1 C2 2.98 2 4.96 2 7 C0.68 7.33 -0.64 7.66 -2 8 C-1.125 1.125 -1.125 1.125 0 0 Z " fill="#191D23" transform="translate(125,359)"/>
<path d="M0 0 C2.97 0 5.94 0 9 0 C9 1.32 9 2.64 9 4 C7.35 4 5.7 4 4 4 C3.67 3.34 3.34 2.68 3 2 C2.01 1.34 1.02 0.68 0 0 Z " fill="#1C2021" transform="translate(378,354)"/>
<path d="M0 0 C1.65 0 3.3 0 5 0 C5.33 1.32 5.66 2.64 6 4 C3 5 3 5 0 4 C0 2.68 0 1.36 0 0 Z " fill="#171B1C" transform="translate(355,353)"/>
<path d="M0 0 C0.99 0 1.98 0 3 0 C2.71905418 1.8141927 2.42493567 3.62635001 2.125 5.4375 C1.88136719 6.95150391 1.88136719 6.95150391 1.6328125 8.49609375 C1.42398438 9.32238281 1.21515625 10.14867187 1 11 C0.01 11.495 0.01 11.495 -1 12 C-0.67 8.04 -0.34 4.08 0 0 Z " fill="#EDB149" transform="translate(250,220)"/>
<path d="M0 0 C0.33 0 0.66 0 1 0 C1 2.64 1 5.28 1 8 C0.01 8.495 0.01 8.495 -1 9 C-1.66 8.67 -2.32 8.34 -3 8 C-3.33 8.99 -3.66 9.98 -4 11 C-4 9.02 -4 7.04 -4 5 C-3.67 5.66 -3.34 6.32 -3 7 C-2.34 7 -1.68 7 -1 7 C-1.33 6.01 -1.66 5.02 -2 4 C-1.0625 1.8125 -1.0625 1.8125 0 0 Z " fill="#22272C" transform="translate(166,370)"/>
<path d="M0 0 C2.00130916 2.54712074 3.85727656 4.9527375 5 8 C4.625 10.25 4.625 10.25 4 12 C2 10.5 2 10.5 0 8 C-0.35800135 5.24128373 -0.18660165 2.79902476 0 0 Z " fill="#E8EAEB" transform="translate(328,366)"/>
<path d="M0 0 C1.65 0.33 3.3 0.66 5 1 C5 2.65 5 4.3 5 6 C4.01 6.33 3.02 6.66 2 7 C2 5.68 2 4.36 2 3 C1.01 2.67 0.02 2.34 -1 2 C-0.67 1.34 -0.34 0.68 0 0 Z " fill="#FBFBFA" transform="translate(155,362)"/>
<path d="M0 0 C0 3.24244455 -0.08730376 4.42201811 -2 7 C-5.625 8.25 -5.625 8.25 -9 9 C-6.21000549 5.51250686 -3.74764169 2.49842779 0 0 Z " fill="#ECB559" transform="translate(198,221)"/>
<path d="M0 0 C0.99 0 1.98 0 3 0 C3.33 0.66 3.66 1.32 4 2 C4.99 2.33 5.98 2.66 7 3 C6.01 3.99 5.02 4.98 4 6 C2.68 5.34 1.36 4.68 0 4 C0 2.68 0 1.36 0 0 Z " fill="#181D20" transform="translate(168,158)"/>
<path d="M0 0 C0.33 0 0.66 0 1 0 C0.88557539 1.60495567 0.75805306 3.20898119 0.625 4.8125 C0.55539063 5.70582031 0.48578125 6.59914063 0.4140625 7.51953125 C0 10 0 10 -2 13 C-2.33 10.69 -2.66 8.38 -3 6 C-2.34 5.67 -1.68 5.34 -1 5 C-0.34444881 2.47266765 -0.34444881 2.47266765 0 0 Z " fill="#CDD1D1" transform="translate(131,358)"/>
<path d="M0 0 C1.485 0.99 1.485 0.99 3 2 C3 2.99 3 3.98 3 5 C4.65 5 6.3 5 8 5 C8.33 4.01 8.66 3.02 9 2 C9 3.32 9 4.64 9 6 C7.02 6 5.04 6 3 6 C2.67 6.66 2.34 7.32 2 8 C1.67 6.68 1.34 5.36 1 4 C0.34 4 -0.32 4 -1 4 C-0.67 2.68 -0.34 1.36 0 0 Z " fill="#D0D3D3" transform="translate(203,358)"/>
<path d="M0 0 C0 0.66 0 1.32 0 2 C0.99 2.33 1.98 2.66 3 3 C2 4 2 4 -1.5625 4.0625 C-2.696875 4.041875 -3.83125 4.02125 -5 4 C-5.33 3.01 -5.66 2.02 -6 1 C-4 0 -4 0 0 0 Z " fill="#181C1E" transform="translate(171,354)"/>
<path d="M0 0 C3.5625 -0.25 3.5625 -0.25 7 0 C8 1 8 1 8.0625 3.5625 C8.041875 4.366875 8.02125 5.17125 8 6 C7.34 5.01 6.68 4.02 6 3 C4.02252878 2.63702064 4.02252878 2.63702064 1.875 2.8125 C0.59625 2.874375 -0.6825 2.93625 -2 3 C-1.34 2.01 -0.68 1.02 0 0 Z " fill="#E7B756" transform="translate(210,210)"/>
<path d="M0 0 C-0.66 1.65 -1.32 3.3 -2 5 C-3.65 4.67 -5.3 4.34 -7 4 C-6.67 3.01 -6.34 2.02 -6 1 C-4 0 -4 0 0 0 Z " fill="#313538" transform="translate(175,154)"/>
<path d="M0 0 C0.433125 0.474375 0.86625 0.94875 1.3125 1.4375 C3.02309613 3.23686957 3.02309613 3.23686957 6 4 C5.67 5.32 5.34 6.64 5 8 C2 7 2 7 0 4 C0 2.68 0 1.36 0 0 Z " fill="#F9FAF8" transform="translate(354,368)"/>
<path d="M0 0 C0.99 0.33 1.98 0.66 3 1 C3 2.32 3 3.64 3 5 C1.02 5 -0.96 5 -3 5 C-2.01 3.35 -1.02 1.7 0 0 Z " fill="#F7B033" transform="translate(202,246)"/>
<path d="M0 0 C1.32 0.33 2.64 0.66 4 1 C1.69 3.31 -0.62 5.62 -3 8 C-3.33 6.68 -3.66 5.36 -4 4 C-2.3125 1.6875 -2.3125 1.6875 0 0 Z " fill="#FEF3D2" transform="translate(189,225)"/>
<path d="M0 0 C0.99 0.33 1.98 0.66 3 1 C2.67 2.65 2.34 4.3 2 6 C1.01 6.33 0.02 6.66 -1 7 C-1.625 5.1875 -1.625 5.1875 -2 3 C-1.34 2.01 -0.68 1.02 0 0 Z " fill="#2B2F31" transform="translate(363,141)"/>
<path d="M0 0 C0.33 0 0.66 0 1 0 C1.17892795 3.93641485 1.15795055 6.64318804 -1 10 C-1.66 10.66 -2.32 11.32 -3 12 C-3 9.69 -3 7.38 -3 5 C-2.01 4.67 -1.02 4.34 0 4 C0 2.68 0 1.36 0 0 Z " fill="#323639" transform="translate(127,362)"/>
<path d="M0 0 C0.99 0.99 1.98 1.98 3 3 C2.67 3.99 2.34 4.98 2 6 C0.68 5.67 -0.64 5.34 -2 5 C-1.125 1.125 -1.125 1.125 0 0 Z " fill="#171C20" transform="translate(334,369)"/>
<path d="M0 0 C1.32 1.65 2.64 3.3 4 5 C3.01 5.99 2.02 6.98 1 8 C0.71125 7.38125 0.4225 6.7625 0.125 6.125 C-0.93720042 3.86674235 -0.93720042 3.86674235 -3 2 C-2.01 1.34 -1.02 0.68 0 0 Z " fill="#EEEFEE" transform="translate(210,352)"/>
<path d="M0 0 C2.475 0.495 2.475 0.495 5 1 C4.67 2.65 4.34 4.3 4 6 C2.68 5.34 1.36 4.68 0 4 C0 2.68 0 1.36 0 0 Z " fill="#24282B" transform="translate(130,290)"/>
<path d="M0 0 C2.475 0.99 2.475 0.99 5 2 C4.67 3.65 4.34 5.3 4 7 C3.01 7.33 2.02 7.66 1 8 C0.67 5.36 0.34 2.72 0 0 Z " fill="#FDF2D4" transform="translate(303,232)"/>
<path d="M0 0 C0.33 0 0.66 0 1 0 C1.36075949 4.44936709 1.36075949 4.44936709 -0.1875 6.8125 C-2.55982525 8.36678206 -4.22041345 8.22537188 -7 8 C-4.82575883 5.49962266 -3.26954202 4.56371414 0 4 C0 2.68 0 1.36 0 0 Z " fill="#424548" transform="translate(198,157)"/>
<path d="M0 0 C0.99 0 1.98 0 3 0 C2.625 2.4375 2.625 2.4375 2 5 C1.01 5.495 1.01 5.495 0 6 C0 4.02 0 2.04 0 0 Z M-3 8 C-2.01 8.495 -2.01 8.495 -1 9 C-1.99 9.495 -1.99 9.495 -3 10 C-3 9.34 -3 8.68 -3 8 Z " fill="#1C2022" transform="translate(176,369)"/>
<path d="M0 0 C0.99 0.33 1.98 0.66 3 1 C2.34 1 1.68 1 1 1 C1.020625 1.94875 1.04125 2.8975 1.0625 3.875 C1 7 1 7 0 9 C-0.66 8.67 -1.32 8.34 -2 8 C-2.125 5.125 -2.125 5.125 -2 2 C-1.34 1.34 -0.68 0.68 0 0 Z " fill="#3B4042" transform="translate(175,368)"/>
<path d="M0 0 C2.64 0 5.28 0 8 0 C8 1.32 8 2.64 8 4 C6.35 3.67 4.7 3.34 3 3 C3 2.34 3 1.68 3 1 C2.01 0.67 1.02 0.34 0 0 Z " fill="#171B1D" transform="translate(309,366)"/>
<path d="M0 0 C1.65 0 3.3 0 5 0 C0.25 4.875 0.25 4.875 -2 6 C-2.33 5.01 -2.66 4.02 -3 3 C-2.01 3 -1.02 3 0 3 C0 2.01 0 1.02 0 0 Z " fill="#EDB350" transform="translate(284,252)"/>
<path d="M0 0 C2.875 0.6875 2.875 0.6875 6 2 C7.375 4.625 7.375 4.625 8 7 C2.25 3.375 2.25 3.375 0 0 Z " fill="#FDEDCD" transform="translate(286,217)"/>
<path d="M0 0 C2 3 2 3 2 7 C1.01 7.495 1.01 7.495 0 8 C-0.66 8.99 -1.32 9.98 -2 11 C-1 3.57142857 -1 3.57142857 0 0 Z " fill="#C2C5C7" transform="translate(122,364)"/>
<path d="M0 0 C1.32 1.32 2.64 2.64 4 4 C3.67 4.66 3.34 5.32 3 6 C2.01 6.33 1.02 6.66 0 7 C-1 6 -1 6 -1.125 3.5 C-1 1 -1 1 0 0 Z " fill="#181B1F" transform="translate(253,363)"/>
<path d="M0 0 C2.64 0 5.28 0 8 0 C8 0.99 8 1.98 8 3 C3.44615385 3.36923077 3.44615385 3.36923077 1.1875 1.5 C0.5996875 0.7575 0.5996875 0.7575 0 0 Z " fill="#161A1D" transform="translate(148,366)"/>
<path d="M0 0 C0.33 0.66 0.66 1.32 1 2 C-1.3773161 4.3773161 -2.70285207 4.67028521 -6 5 C-6.66 4.34 -7.32 3.68 -8 3 C-5.36 2.01 -2.72 1.02 0 0 Z " fill="#E9ECEA" transform="translate(315,170)"/>
<path d="M0 0 C0.66 0.33 1.32 0.66 2 1 C2.625 3.0625 2.625 3.0625 3 5 C1.02 4.34 -0.96 3.68 -3 3 C-3 2.34 -3 1.68 -3 1 C-2.01 0.67 -1.02 0.34 0 0 Z " fill="#141F22" transform="translate(300,170)"/>
<path d="M0 0 C2.625 -0.1875 2.625 -0.1875 5 0 C5 0.99 5 1.98 5 3 C2.69 3 0.38 3 -2 3 C-1.34 2.01 -0.68 1.02 0 0 Z " fill="#181D20" transform="translate(381,366)"/>
<path d="M0 0 C0.33 0 0.66 0 1 0 C1 2.31 1 4.62 1 7 C-0.32 6.34 -1.64 5.68 -3 5 C-3 4.01 -3 3.02 -3 2 C-2.01 2 -1.02 2 0 2 C0 1.34 0 0.68 0 0 Z " fill="#171B1F" transform="translate(247,361)"/>
<path d="M0 0 C0.66 0.33 1.32 0.66 2 1 C2 2.32 2 3.64 2 5 C0.35 5 -1.3 5 -3 5 C-2.625 3.0625 -2.625 3.0625 -2 1 C-1.34 0.67 -0.68 0.34 0 0 Z " fill="#F9AD39" transform="translate(215,256)"/>
<path d="M0 0 C0.66 0 1.32 0 2 0 C2 1.98 2 3.96 2 6 C1.01 6.33 0.02 6.66 -1 7 C-0.67 4.69 -0.34 2.38 0 0 Z " fill="#EDB34D" transform="translate(250,202)"/>
<path d="M0 0 C0.66 0.99 1.32 1.98 2 3 C0 5 0 5 -2.625 5.125 C-3.40875 5.08375 -4.1925 5.0425 -5 5 C-3 2 -3 2 0 0 Z " fill="#313538" transform="translate(176,160)"/>
<path d="M0 0 C2.97 0 5.94 0 9 0 C9 0.99 9 1.98 9 3 C7.68 3 6.36 3 5 3 C5 2.34 5 1.68 5 1 C3.35 1 1.7 1 0 1 C0 0.67 0 0.34 0 0 Z " fill="#202325" transform="translate(289,378)"/>
<path d="M0 0 C2.475 0.495 2.475 0.495 5 1 C5 2.32 5 3.64 5 5 C3.68 5 2.36 5 1 5 C0.67 3.35 0.34 1.7 0 0 Z " fill="#1C2026" transform="translate(193,156)"/>
<path d="M0 0 C1.31554985 0.4495045 2.62738358 0.90989716 3.9375 1.375 C5.03384766 1.75785156 5.03384766 1.75785156 6.15234375 2.1484375 C8 3 8 3 9 5 C6.69 4.67 4.38 4.34 2 4 C2 3.34 2 2.68 2 2 C1.34 2 0.68 2 0 2 C0 1.34 0 0.68 0 0 Z " fill="#C54C41" transform="translate(329,135)"/>
<path d="" fill="#FFFFFF" transform="translate(0,0)"/>
<path d="" fill="#FFFFFF" transform="translate(0,0)"/>
<path d="" fill="#FFFFFF" transform="translate(0,0)"/>
<path d="" fill="#FFFFFF" transform="translate(0,0)"/>
<path d="" fill="#FFFFFF" transform="translate(0,0)"/>
<path d="" fill="#FFFFFF" transform="translate(0,0)"/>
<path d="" fill="#FFFFFF" transform="translate(0,0)"/>
<path d="" fill="#FFFFFF" transform="translate(0,0)"/>
<path d="" fill="#FFFFFF" transform="translate(0,0)"/>
<path d="" fill="#FFFFFF" transform="translate(0,0)"/>
<path d="" fill="#FFFFFF" transform="translate(0,0)"/>
<path d="" fill="#FFFFFF" transform="translate(0,0)"/>
<path d="" fill="#FFFFFF" transform="translate(0,0)"/>
<path d="" fill="#FFFFFF" transform="translate(0,0)"/>
<path d="" fill="#FFFFFF" transform="translate(0,0)"/>
<path d="" fill="#FFFFFF" transform="translate(0,0)"/>
<path d="" fill="#FFFFFF" transform="translate(0,0)"/>
<path d="" fill="#FFFFFF" transform="translate(0,0)"/>
<path d="" fill="#FFFFFF" transform="translate(0,0)"/>
<path d="" fill="#FFFFFF" transform="translate(0,0)"/>
<path d="" fill="#FFFFFF" transform="translate(0,0)"/>
<path d="" fill="#FFFFFF" transform="translate(0,0)"/>
<path d="" fill="#FFFFFF" transform="translate(0,0)"/>
<path d="" fill="#FFFFFF" transform="translate(0,0)"/>
<path d="" fill="#FFFFFF" transform="translate(0,0)"/>
<path d="" fill="#FFFFFF" transform="translate(0,0)"/>
<path d="" fill="#FFFFFF" transform="translate(0,0)"/>
<path d="" fill="#FFFFFF" transform="translate(0,0)"/>
<path d="" fill="#FFFFFF" transform="translate(0,0)"/>
<path d="" fill="#FFFFFF" transform="translate(0,0)"/>
<path d="" fill="#FFFFFF" transform="translate(0,0)"/>
<path d="" fill="#FFFFFF" transform="translate(0,0)"/>
<path d="" fill="#FFFFFF" transform="translate(0,0)"/>
<path d="" fill="#FFFFFF" transform="translate(0,0)"/>
<path d="" fill="#FFFFFF" transform="translate(0,0)"/>
<path d="" fill="#FFFFFF" transform="translate(0,0)"/>
<path d="" fill="#FFFFFF" transform="translate(0,0)"/>
<path d="" fill="#FFFFFF" transform="translate(0,0)"/>
<path d="" fill="#FFFFFF" transform="translate(0,0)"/>
<path d="" fill="#FFFFFF" transform="translate(0,0)"/>
<path d="" fill="#FFFFFF" transform="translate(0,0)"/>
<path d="" fill="#FFFFFF" transform="translate(0,0)"/>
<path d="" fill="#FFFFFF" transform="translate(0,0)"/>
<path d="" fill="#FFFFFF" transform="translate(0,0)"/>
<path d="" fill="#FFFFFF" transform="translate(0,0)"/>
<path d="" fill="#FFFFFF" transform="translate(0,0)"/>
<path d="" fill="#FFFFFF" transform="translate(0,0)"/>
<path d="" fill="#FFFFFF" transform="translate(0,0)"/>
<path d="" fill="#FFFFFF" transform="translate(0,0)"/>
<path d="" fill="#FFFFFF" transform="translate(0,0)"/>
</svg>
