<svg xmlns="http://www.w3.org/2000/svg" xmlns:xlink="http://www.w3.org/1999/xlink" xmlns:lucid="lucid" width="1326" height="990"><g transform="translate(-3287 -2462)" lucid:page-tab-id="0_0"><path d="M500 500h4000v3000H500z" fill="#fff"/><path d="M3366.6 2517.67a6 6 0 0 1 6-6h108a6 6 0 0 1 6 6v88a6 6 0 0 1-6 6h-108a6 6 0 0 1-6-6z" stroke="#febed9" stroke-width="2" fill="#fff0f0"/><use xlink:href="#a" transform="matrix(1,0,0,1,3366.6145281194786,2511.666666666667) translate(36.60993827160494 55.27777777777778)"/><path d="M3426.6 2613.17v5m0 5.03v10.03m0 5v10.04m0 5v10.05m0 5v10.04m0 5v10.04m0 5.02v10.03m0 5v10.04m0 5v10.04m0 5v10.04m0 5.02v10.03m0 5v10.04m0 5v10.05m0 5v10.04m0 5v10.04m0 5.02v10.03m0 5v10.04m0 5v10.04m0 5V2889m0 5.02v10.03m0 5v10.04m0 5v10.04m0 5.03v10.03m0 5v10.04m0 5.02v10.03m0 5v10.04m0 5v10.04m0 5v10.04m0 5.02v10.03m0 5v10.04m0 5.02v10m0 5.03v10.03m0 5v10.04m0 5.02v10.03m0 5v10.04m0 5v10.04m0 5v10.04m0 5.02v10.03m0 5v10.04m0 5.02v10m0 5.03v10.03m0 5V3235m0 5.02v10.03m0 5v10.04m0 5v10.04m0 5v5.03" stroke="#3a414a" fill="none"/><path d="M3427.1 2613.18h-.96v-.5h.95zM3427.1 3290.67h-.96v-.52h.95z" stroke="#3a414a" stroke-width=".05" fill="#3a414a"/><path d="M3717.06 2613.17v5m0 5.03v10.03m0 5v10.04m0 5v10.05m0 5v10.04m0 5v10.04m0 5.02v10.03m0 5v10.04m0 5v10.04m0 5v10.04m0 5.02v10.03m0 5v10.04m0 5v10.05m0 5v10.04m0 5v10.04m0 5.02v10.03m0 5v10.04m0 5v10.04m0 5V2889m0 5.02v10.03m0 5v10.04m0 5v10.04m0 5.03v10.03m0 5v10.04m0 5.02v10.03m0 5v10.04m0 5v10.04m0 5v10.04m0 5.02v10.03m0 5v10.04m0 5.02v10m0 5.03v10.03m0 5v10.04m0 5.02v10.03m0 5v10.04m0 5v10.04m0 5v10.04m0 5.02v10.03m0 5v10.04m0 5.02v10m0 5.03v10.03m0 5V3235m0 5.02v10.03m0 5v10.04m0 5v10.04m0 5v5.03" stroke="#3a414a" fill="none"/><path d="M3717.53 2613.18h-.95v-.5h.95zM3717.53 3290.67h-.95v-.52h.95z" stroke="#3a414a" stroke-width=".05" fill="#3a414a"/><path d="M4202.76 2613.17v5m0 5.03v10.03m0 5v10.04m0 5v10.05m0 5v10.04m0 5v10.04m0 5.02v10.03m0 5v10.04m0 5v10.04m0 5v10.04m0 5.02v10.03m0 5v10.04m0 5v10.05m0 5v10.04m0 5v10.04m0 5.02v10.03m0 5v10.04m0 5v10.04m0 5V2889m0 5.02v10.03m0 5v10.04m0 5v10.04m0 5.03v10.03m0 5v10.04m0 5.02v10.03m0 5v10.04m0 5v10.04m0 5v10.04m0 5.02v10.03m0 5v10.04m0 5.02v10m0 5.03v10.03m0 5v10.04m0 5.02v10.03m0 5v10.04m0 5v10.04m0 5v10.04m0 5.02v10.03m0 5v10.04m0 5.02v10m0 5.03v10.03m0 5V3235m0 5.02v10.03m0 5v10.04m0 5v10.04m0 5v5.03" stroke="#3a414a" fill="none"/><path d="M4203.24 2613.18h-.95v-.5h.94zM4203.24 3290.67h-.95v-.52h.94z" stroke="#3a414a" stroke-width=".05" fill="#3a414a"/><path d="M3366.6 3297.67a6 6 0 0 1 6-6h108a6 6 0 0 1 6 6v88a6 6 0 0 1-6 6h-108a6 6 0 0 1-6-6z" stroke="#febed9" stroke-width="2" fill="#fff0f0"/><use xlink:href="#a" transform="matrix(1,0,0,1,3366.6145281194786,3291.666666666667) translate(36.60993827160494 55.27777777777778)"/><path d="M3606.6 2517.67a6 6 0 0 1 6-6h208.9a6 6 0 0 1 6 6v88a6 6 0 0 1-6 6h-208.9a6 6 0 0 1-6-6z" stroke="#febed9" stroke-width="2" fill="#fff0f0"/><use xlink:href="#b" transform="matrix(1,0,0,1,3606.6145281194786,2511.666666666667) translate(19.270432098765433 55.27777777777778)"/><use xlink:href="#c" transform="matrix(1,0,0,1,3606.6145281194786,2511.666666666667) translate(78.40623456790124 55.27777777777778)"/><use xlink:href="#d" transform="matrix(1,0,0,1,3606.6145281194786,2511.666666666667) translate(120.38154320987654 55.27777777777778)"/><path d="M3606.6 3297.67a6 6 0 0 1 6-6h208.9a6 6 0 0 1 6 6v88a6 6 0 0 1-6 6h-208.9a6 6 0 0 1-6-6z" stroke="#febed9" stroke-width="2" fill="#fff0f0"/><use xlink:href="#b" transform="matrix(1,0,0,1,3606.6145281194786,3291.666666666667) translate(19.270432098765433 55.27777777777778)"/><use xlink:href="#c" transform="matrix(1,0,0,1,3606.6145281194786,3291.666666666667) translate(78.40623456790124 55.27777777777778)"/><use xlink:href="#d" transform="matrix(1,0,0,1,3606.6145281194786,3291.666666666667) translate(120.38154320987654 55.27777777777778)"/><path d="M3947.5 2517.67a6 6 0 0 1 6-6h498.52a6 6 0 0 1 6 6v88a6 6 0 0 1-6 6H3953.5a6 6 0 0 1-6-6z" stroke="#febed9" stroke-width="2" fill="#fff0f0"/><use xlink:href="#e" transform="matrix(1,0,0,1,3947.5034170083673,2511.666666666667) translate(19.455617283950637 55.27777777777778)"/><use xlink:href="#f" transform="matrix(1,0,0,1,3947.5034170083673,2511.666666666667) translate(98.40623456790125 55.27777777777778)"/><use xlink:href="#g" transform="matrix(1,0,0,1,3947.5034170083673,2511.666666666667) translate(192.10993827160496 55.27777777777778)"/><path d="M3947.5 3297.67a6 6 0 0 1 6-6h498.52a6 6 0 0 1 6 6v88a6 6 0 0 1-6 6H3953.5a6 6 0 0 1-6-6z" stroke="#febed9" stroke-width="2" fill="#fff0f0"/><use xlink:href="#e" transform="matrix(1,0,0,1,3947.5034170083673,3291.666666666667) translate(19.455617283950637 55.27777777777778)"/><use xlink:href="#f" transform="matrix(1,0,0,1,3947.5034170083673,3291.666666666667) translate(98.40623456790125 55.27777777777778)"/><use xlink:href="#g" transform="matrix(1,0,0,1,3947.5034170083673,3291.666666666667) translate(192.10993827160496 55.27777777777778)"/><path d="M3427.1 2672.5h273.58M3427.13 2672.5h-.52" stroke="#3a414a" fill="none"/><path d="M3715.44 2672.5l-14.26 4.63v-9.28z" stroke="#3a414a" fill="#3a414a"/><use xlink:href="#h" transform="matrix(1,0,0,1,3464.4162305119403,2647.1640222887) translate(0 14.217421742174219)"/><use xlink:href="#i" transform="matrix(1,0,0,1,3464.4162305119403,2647.1640222887) translate(53.265965485437434 14.217421742174219)"/><path d="M3717.56 2732.3h468.82M3717.57 2732.3h-.5" stroke="#3a414a" fill="none"/><path d="M4201.15 2732.3l-14.27 4.65v-9.27z" stroke="#3a414a" fill="#3a414a"/><use xlink:href="#j" transform="matrix(1,0,0,1,3795.299738307162,2706.987560523994) translate(0 14.217421742174219)"/><use xlink:href="#k" transform="matrix(1,0,0,1,3795.299738307162,2706.987560523994) translate(37.468830216354974 14.217421742174219)"/><path d="M4203.26 2772.2h119.5v39.88h-103.6M4203.27 2772.2h-.5" stroke="#3a414a" fill="none"/><path d="M4204.38 2812.08l14.27-4.64v9.27z" stroke="#3a414a" fill="#3a414a"/><use xlink:href="#l" transform="matrix(1,0,0,1,4330.762676267626,2781.4741650659184) translate(0 14.217421742174219)"/><use xlink:href="#m" transform="matrix(1,0,0,1,4330.762676267626,2781.4741650659184) translate(60.12784611794513 14.217421742174219)"/><use xlink:href="#n" transform="matrix(1,0,0,1,4330.762676267626,2781.4741650659184) translate(103.47123601249015 14.217421742174219)"/><use xlink:href="#o" transform="matrix(1,0,0,1,4330.762676267626,2781.4741650659184) translate(176.53298663199655 14.217421742174219)"/><path d="M4202.26 2871.9h-5.04m-5.04 0h-10.08m-5.04 0h-10.1m-5.03 0h-10.08m-5.04 0h-10.07m-5.04 0h-10.1m-5.04 0h-10.08m-5.04 0h-10.08m-5.04 0h-10.08m-5.04 0h-10.1m-5.03 0H4046m-5.05 0h-10.08m-5.05 0h-10.08m-5.04 0h-10.08m-5.04 0h-10.08m-5.05 0h-10.08m-5.04 0h-10.08m-5.04 0h-10.07m-5.04 0H3925m-5.04 0h-10.08m-5.04 0h-10.08m-5.04 0h-10.1m-5.03 0h-10.1m-5.03 0h-10.08m-5.05 0h-10.1m-5.03 0h-10.08m-5.04 0h-10.08m-5.04 0h-10.1m-5.03 0h-10.08m-5.04 0h-10.08m-5.04 0h-10.07m-5.05 0h-5.04M4202.25 2871.9h.5" stroke="#3a414a" fill="none"/><path d="M3718.68 2871.9l14.26-4.63v9.27z" stroke="#3a414a" fill="#3a414a"/><use xlink:href="#p" transform="matrix(1,0,0,1,3814.651229011788,2846.5758164063463) translate(0 14.217421742174219)"/><use xlink:href="#q" transform="matrix(1,0,0,1,3814.651229011788,2846.5758164063463) translate(62.003755931148675 14.217421742174219)"/><use xlink:href="#r" transform="matrix(1,0,0,1,3814.651229011788,2846.5758164063463) translate(166.4129468502406 14.217421742174219)"/><use xlink:href="#s" transform="matrix(1,0,0,1,3814.651229011788,2846.5758164063463) translate(217.70427042704273 14.217421742174219)"/><use xlink:href="#t" transform="matrix(1,0,0,1,3814.651229011788,2846.5758164063463) translate(254.13641364136416 14.217421742174219)"/><path d="M3716.56 2931.72h-5.07m-5.07 0h-10.13m-5.07 0h-10.13m-5.07 0h-10.13m-5.07 0h-10.13m-5.06 0h-10.14m-5.06 0h-10.13m-5.06 0h-10.13m-5.06 0h-10.13m-5.06 0h-10.13m-5.05 0h-10.14m-5.05 0h-10.13m-5.07 0h-10.13m-5.07 0h-10.13m-5.06 0h-10.14m-5.06 0h-10.13m-5.07 0h-10.13m-5.07 0h-10.13m-5.07 0H3443M3716.55 2931.72h.5" stroke="#3a414a" fill="none"/><path d="M3428.23 2931.72l14.27-4.63v9.26z" stroke="#3a414a" fill="#3a414a"/><use xlink:href="#p" transform="matrix(1,0,0,1,3426.577154937716,2901.764099726017) translate(0 14.217421742174219)"/><use xlink:href="#q" transform="matrix(1,0,0,1,3426.577154937716,2901.764099726017) translate(62.003755931148675 14.217421742174219)"/><use xlink:href="#r" transform="matrix(1,0,0,1,3426.577154937716,2901.764099726017) translate(166.4129468502406 14.217421742174219)"/><use xlink:href="#s" transform="matrix(1,0,0,1,3426.577154937716,2901.764099726017) translate(217.70427042704273 14.217421742174219)"/><use xlink:href="#t" transform="matrix(1,0,0,1,3426.577154937716,2901.764099726017) translate(254.13641364136416 14.217421742174219)"/><path d="M3427.1 2991.55h273.58M3427.13 2991.55h-.52" stroke="#3a414a" fill="none"/><path d="M3715.44 2991.55l-14.26 4.63v-9.27z" stroke="#3a414a" fill="#3a414a"/><g><use xlink:href="#h" transform="matrix(1,0,0,1,3467.8718538520516,2966.222892876935) translate(0 14.217421742174219)"/><use xlink:href="#u" transform="matrix(1,0,0,1,3467.8718538520516,2966.222892876935) translate(53.265965485437434 14.217421742174219)"/></g><path d="M3717.56 3051.37h468.82M3717.57 3051.37h-.5" stroke="#3a414a" fill="none"/><path d="M4201.15 3051.37l-14.27 4.64v-9.26z" stroke="#3a414a" fill="#3a414a"/><g><use xlink:href="#j" transform="matrix(1,0,0,1,3842.691144114411,3026.046431112229) translate(0 14.217421742174219)"/><use xlink:href="#v" transform="matrix(1,0,0,1,3842.691144114411,3026.046431112229) translate(37.468830216354974 14.217421742174219)"/></g><path d="M4203.26 3091.26h119.5v39.88h-103.6M4203.27 3091.26h-.5" stroke="#3a414a" fill="none"/><path d="M4204.38 3131.14l14.27-4.64v9.27z" stroke="#3a414a" fill="#3a414a"/><g><use xlink:href="#w" transform="matrix(1,0,0,1,4330.762676267626,3100.533035654154) translate(0 14.217421742174219)"/><use xlink:href="#m" transform="matrix(1,0,0,1,4330.762676267626,3100.533035654154) translate(58.15320420930983 14.217421742174219)"/><use xlink:href="#n" transform="matrix(1,0,0,1,4330.762676267626,3100.533035654154) translate(101.49659410385485 14.217421742174219)"/><use xlink:href="#o" transform="matrix(1,0,0,1,4330.762676267626,3100.533035654154) translate(174.55834472336124 14.217421742174219)"/></g><path d="M4202.26 3190.96h-5.04m-5.04 0h-10.08m-5.04 0h-10.1m-5.03 0h-10.08m-5.04 0h-10.07m-5.04 0h-10.1m-5.04 0h-10.08m-5.04 0h-10.08m-5.04 0h-10.08m-5.04 0h-10.1m-5.03 0H4046m-5.05 0h-10.08m-5.05 0h-10.08m-5.04 0h-10.08m-5.04 0h-10.08m-5.05 0h-10.08m-5.04 0h-10.08m-5.04 0h-10.07m-5.04 0H3925m-5.04 0h-10.08m-5.04 0h-10.08m-5.04 0h-10.1m-5.03 0h-10.1m-5.03 0h-10.08m-5.05 0h-10.1m-5.03 0h-10.08m-5.04 0h-10.08m-5.04 0h-10.1m-5.03 0h-10.08m-5.04 0h-10.08m-5.04 0h-10.07m-5.05 0h-5.04M4202.25 3190.96h.5" stroke="#3a414a" fill="none"/><path d="M3718.68 3190.96l14.26-4.63v9.27z" stroke="#3a414a" fill="#3a414a"/><g><use xlink:href="#p" transform="matrix(1,0,0,1,3875.248052583036,3165.6346869945824) translate(0 14.217421742174219)"/><use xlink:href="#x" transform="matrix(1,0,0,1,3875.248052583036,3165.6346869945824) translate(62.003755931148675 14.217421742174219)"/></g><path d="M3716.56 3250.78h-5.07m-5.07 0h-10.13m-5.07 0h-10.13m-5.07 0h-10.13m-5.07 0h-10.13m-5.06 0h-10.14m-5.06 0h-10.13m-5.06 0h-10.13m-5.06 0h-10.13m-5.06 0h-10.13m-5.05 0h-10.14m-5.05 0h-10.13m-5.07 0h-10.13m-5.07 0h-10.13m-5.06 0h-10.14m-5.06 0h-10.13m-5.07 0h-10.13m-5.07 0h-10.13m-5.07 0H3443M3716.55 3250.78h.5" stroke="#3a414a" fill="none"/><path d="M3428.23 3250.78l14.27-4.63v9.27z" stroke="#3a414a" fill="#3a414a"/><g><use xlink:href="#p" transform="matrix(1,0,0,1,3487.173978508962,3225.458225229876) translate(0 14.217421742174219)"/><use xlink:href="#x" transform="matrix(1,0,0,1,3487.173978508962,3225.458225229876) translate(62.003755931148675 14.217421742174219)"/></g><defs><path fill="#3a414a" d="M232-93c-1 65-40 97-104 97C67 4 28-28 28-90v-158h33c8 89-33 224 67 224 102 0 64-133 71-224h33v155" id="y"/><path fill="#3a414a" d="M135-143c-3-34-86-38-87 0 15 53 115 12 119 90S17 21 10-45l28-5c4 36 97 45 98 0-10-56-113-15-118-90-4-57 82-63 122-42 12 7 21 19 24 35" id="z"/><path fill="#3a414a" d="M100-194c63 0 86 42 84 106H49c0 40 14 67 53 68 26 1 43-12 49-29l28 8c-11 28-37 45-77 45C44 4 14-33 15-96c1-61 26-98 85-98zm52 81c6-60-76-77-97-28-3 7-6 17-6 28h103" id="A"/><path fill="#3a414a" d="M114-163C36-179 61-72 57 0H25l-1-190h30c1 12-1 29 2 39 6-27 23-49 58-41v29" id="B"/><g id="a"><use transform="matrix(0.06172839506172839,0,0,0.06172839506172839,0,0)" xlink:href="#y"/><use transform="matrix(0.06172839506172839,0,0,0.06172839506172839,15.987654320987653,0)" xlink:href="#z"/><use transform="matrix(0.06172839506172839,0,0,0.06172839506172839,27.098765432098766,0)" xlink:href="#A"/><use transform="matrix(0.06172839506172839,0,0,0.06172839506172839,39.44444444444444,0)" xlink:href="#B"/></g><path fill="#3a414a" d="M63-220v92h138v28H63V0H30v-248h175v28H63" id="C"/><path fill="#3a414a" d="M24 0v-261h32V0H24" id="D"/><path fill="#3a414a" d="M141-36C126-15 110 5 73 4 37 3 15-17 15-53c-1-64 63-63 125-63 3-35-9-54-41-54-24 1-41 7-42 31l-33-3c5-37 33-52 76-52 45 0 72 20 72 64v82c-1 20 7 32 28 27v20c-31 9-61-2-59-35zM48-53c0 20 12 33 32 33 41-3 63-29 60-74-43 2-92-5-92 41" id="E"/><path fill="#3a414a" d="M143 0L79-87 56-68V0H24v-261h32v163l83-92h37l-77 82L181 0h-38" id="F"/><g id="b"><use transform="matrix(0.06172839506172839,0,0,0.06172839506172839,0,0)" xlink:href="#C"/><use transform="matrix(0.06172839506172839,0,0,0.06172839506172839,13.518518518518517,0)" xlink:href="#D"/><use transform="matrix(0.06172839506172839,0,0,0.06172839506172839,18.39506172839506,0)" xlink:href="#E"/><use transform="matrix(0.06172839506172839,0,0,0.06172839506172839,30.74074074074074,0)" xlink:href="#z"/><use transform="matrix(0.06172839506172839,0,0,0.06172839506172839,41.85185185185185,0)" xlink:href="#F"/></g><path fill="#3a414a" d="M205 0l-28-72H64L36 0H1l101-248h38L239 0h-34zm-38-99l-47-123c-12 45-31 82-46 123h93" id="G"/><path fill="#3a414a" d="M30-248c87 1 191-15 191 75 0 78-77 80-158 76V0H30v-248zm33 125c57 0 124 11 124-50 0-59-68-47-124-48v98" id="H"/><path fill="#3a414a" d="M33 0v-248h34V0H33" id="I"/><g id="c"><use transform="matrix(0.06172839506172839,0,0,0.06172839506172839,0,0)" xlink:href="#G"/><use transform="matrix(0.06172839506172839,0,0,0.06172839506172839,14.814814814814813,0)" xlink:href="#H"/><use transform="matrix(0.06172839506172839,0,0,0.06172839506172839,29.629629629629626,0)" xlink:href="#I"/></g><path fill="#3a414a" d="M87 75C49 33 22-17 22-94c0-76 28-126 65-167h31c-38 41-64 92-64 168S80 34 118 75H87" id="J"/><path fill="#3a414a" d="M115-194c55 1 70 41 70 98S169 2 115 4C84 4 66-9 55-30l1 105H24l-1-265h31l2 30c10-21 28-34 59-34zm-8 174c40 0 45-34 45-75s-6-73-45-74c-42 0-51 32-51 76 0 43 10 73 51 73" id="K"/><path fill="#3a414a" d="M33 0v-38h34V0H33" id="L"/><path fill="#3a414a" d="M179-190L93 31C79 59 56 82 12 73V49c39 6 53-20 64-50L1-190h34L92-34l54-156h33" id="M"/><path fill="#3a414a" d="M33-261c38 41 65 92 65 168S71 34 33 75H2C39 34 66-17 66-93S39-220 2-261h31" id="N"/><g id="d"><use transform="matrix(0.06172839506172839,0,0,0.06172839506172839,0,0)" xlink:href="#J"/><use transform="matrix(0.06172839506172839,0,0,0.06172839506172839,7.345679012345679,0)" xlink:href="#E"/><use transform="matrix(0.06172839506172839,0,0,0.06172839506172839,19.691358024691358,0)" xlink:href="#K"/><use transform="matrix(0.06172839506172839,0,0,0.06172839506172839,32.03703703703704,0)" xlink:href="#K"/><use transform="matrix(0.06172839506172839,0,0,0.06172839506172839,44.382716049382715,0)" xlink:href="#L"/><use transform="matrix(0.06172839506172839,0,0,0.06172839506172839,50.55555555555556,0)" xlink:href="#K"/><use transform="matrix(0.06172839506172839,0,0,0.06172839506172839,62.901234567901234,0)" xlink:href="#M"/><use transform="matrix(0.06172839506172839,0,0,0.06172839506172839,74.01234567901234,0)" xlink:href="#N"/></g><path fill="#3a414a" d="M117-194c89-4 53 116 60 194h-32v-121c0-31-8-49-39-48C34-167 62-67 57 0H25l-1-190h30c1 10-1 24 2 32 11-22 29-35 61-36" id="O"/><path fill="#3a414a" d="M177-190C167-65 218 103 67 71c-23-6-38-20-44-43l32-5c15 47 100 32 89-28v-30C133-14 115 1 83 1 29 1 15-40 15-95c0-56 16-97 71-98 29-1 48 16 59 35 1-10 0-23 2-32h30zM94-22c36 0 50-32 50-73 0-42-14-75-50-75-39 0-46 34-46 75s6 73 46 73" id="P"/><g id="e"><use transform="matrix(0.06172839506172839,0,0,0.06172839506172839,0,0)" xlink:href="#I"/><use transform="matrix(0.06172839506172839,0,0,0.06172839506172839,6.172839506172839,0)" xlink:href="#O"/><use transform="matrix(0.06172839506172839,0,0,0.06172839506172839,18.51851851851852,0)" xlink:href="#P"/><use transform="matrix(0.06172839506172839,0,0,0.06172839506172839,30.864197530864196,0)" xlink:href="#B"/><use transform="matrix(0.06172839506172839,0,0,0.06172839506172839,38.20987654320987,0)" xlink:href="#A"/><use transform="matrix(0.06172839506172839,0,0,0.06172839506172839,50.55555555555555,0)" xlink:href="#z"/><use transform="matrix(0.06172839506172839,0,0,0.06172839506172839,61.66666666666666,0)" xlink:href="#z"/></g><path fill="#3a414a" d="M240 0l2-218c-23 76-54 145-80 218h-23L58-218 59 0H30v-248h44l77 211c21-75 51-140 76-211h43V0h-30" id="Q"/><g id="f"><use transform="matrix(0.06172839506172839,0,0,0.06172839506172839,0,0)" xlink:href="#Q"/><use transform="matrix(0.06172839506172839,0,0,0.06172839506172839,18.456790123456788,0)" xlink:href="#E"/><use transform="matrix(0.06172839506172839,0,0,0.06172839506172839,30.80246913580247,0)" xlink:href="#O"/><use transform="matrix(0.06172839506172839,0,0,0.06172839506172839,43.148148148148145,0)" xlink:href="#E"/><use transform="matrix(0.06172839506172839,0,0,0.06172839506172839,55.49382716049382,0)" xlink:href="#P"/><use transform="matrix(0.06172839506172839,0,0,0.06172839506172839,67.8395061728395,0)" xlink:href="#A"/><use transform="matrix(0.06172839506172839,0,0,0.06172839506172839,80.18518518518519,0)" xlink:href="#B"/></g><path fill="#3a414a" d="M24-231v-30h32v30H24zM24 0v-190h32V0H24" id="R"/><path fill="#3a414a" d="M16-82v-28h88v28H16" id="S"/><path fill="#3a414a" d="M59-47c-2 24 18 29 38 22v24C64 9 27 4 27-40v-127H5v-23h24l9-43h21v43h35v23H59v120" id="T"/><path fill="#3a414a" d="M96-169c-40 0-48 33-48 73s9 75 48 75c24 0 41-14 43-38l32 2c-6 37-31 61-74 61-59 0-76-41-82-99-10-93 101-131 147-64 4 7 5 14 7 22l-32 3c-4-21-16-35-41-35" id="U"/><path fill="#3a414a" d="M210-169c-67 3-38 105-44 169h-31v-121c0-29-5-50-35-48C34-165 62-65 56 0H25l-1-190h30c1 10-1 24 2 32 10-44 99-50 107 0 11-21 27-35 58-36 85-2 47 119 55 194h-31v-121c0-29-5-49-35-48" id="V"/><g id="g"><use transform="matrix(0.06172839506172839,0,0,0.06172839506172839,0,0)" xlink:href="#J"/><use transform="matrix(0.06172839506172839,0,0,0.06172839506172839,7.345679012345679,0)" xlink:href="#R"/><use transform="matrix(0.06172839506172839,0,0,0.06172839506172839,12.222222222222221,0)" xlink:href="#O"/><use transform="matrix(0.06172839506172839,0,0,0.06172839506172839,24.5679012345679,0)" xlink:href="#P"/><use transform="matrix(0.06172839506172839,0,0,0.06172839506172839,36.913580246913575,0)" xlink:href="#B"/><use transform="matrix(0.06172839506172839,0,0,0.06172839506172839,44.25925925925925,0)" xlink:href="#A"/><use transform="matrix(0.06172839506172839,0,0,0.06172839506172839,56.60493827160493,0)" xlink:href="#z"/><use transform="matrix(0.06172839506172839,0,0,0.06172839506172839,67.71604938271604,0)" xlink:href="#z"/><use transform="matrix(0.06172839506172839,0,0,0.06172839506172839,78.82716049382715,0)" xlink:href="#S"/><use transform="matrix(0.06172839506172839,0,0,0.06172839506172839,86.17283950617283,0)" xlink:href="#R"/><use transform="matrix(0.06172839506172839,0,0,0.06172839506172839,91.04938271604938,0)" xlink:href="#O"/><use transform="matrix(0.06172839506172839,0,0,0.06172839506172839,103.39506172839506,0)" xlink:href="#z"/><use transform="matrix(0.06172839506172839,0,0,0.06172839506172839,114.50617283950618,0)" xlink:href="#T"/><use transform="matrix(0.06172839506172839,0,0,0.06172839506172839,120.67901234567901,0)" xlink:href="#E"/><use transform="matrix(0.06172839506172839,0,0,0.06172839506172839,133.02469135802468,0)" xlink:href="#O"/><use transform="matrix(0.06172839506172839,0,0,0.06172839506172839,145.37037037037035,0)" xlink:href="#U"/><use transform="matrix(0.06172839506172839,0,0,0.06172839506172839,156.48148148148147,0)" xlink:href="#A"/><use transform="matrix(0.06172839506172839,0,0,0.06172839506172839,168.82716049382714,0)" xlink:href="#S"/><use transform="matrix(0.06172839506172839,0,0,0.06172839506172839,176.1728395061728,0)" xlink:href="#V"/><use transform="matrix(0.06172839506172839,0,0,0.06172839506172839,194.6296296296296,0)" xlink:href="#E"/><use transform="matrix(0.06172839506172839,0,0,0.06172839506172839,206.97530864197526,0)" xlink:href="#O"/><use transform="matrix(0.06172839506172839,0,0,0.06172839506172839,219.32098765432093,0)" xlink:href="#E"/><use transform="matrix(0.06172839506172839,0,0,0.06172839506172839,231.6666666666666,0)" xlink:href="#P"/><use transform="matrix(0.06172839506172839,0,0,0.06172839506172839,244.01234567901227,0)" xlink:href="#A"/><use transform="matrix(0.06172839506172839,0,0,0.06172839506172839,256.35802469135797,0)" xlink:href="#B"/><use transform="matrix(0.06172839506172839,0,0,0.06172839506172839,262.4691358024691,0)" xlink:href="#L"/><use transform="matrix(0.06172839506172839,0,0,0.06172839506172839,268.641975308642,0)" xlink:href="#K"/><use transform="matrix(0.06172839506172839,0,0,0.06172839506172839,280.98765432098764,0)" xlink:href="#M"/><use transform="matrix(0.06172839506172839,0,0,0.06172839506172839,292.09876543209873,0)" xlink:href="#N"/></g><path fill="#3a414a" d="M24-248c93 1 206-16 204 79-1 75-69 88-152 82V0H24v-248zm52 121c47 0 100 7 100-41 0-47-54-39-100-39v80" id="W"/><path fill="#3a414a" d="M140-251c80 0 125 45 125 126S219 4 139 4C58 4 15-44 15-125s44-126 125-126zm-1 214c52 0 73-35 73-88 0-50-21-86-72-86-52 0-73 35-73 86s22 88 72 88" id="X"/><path fill="#3a414a" d="M169-182c-1-43-94-46-97-3 18 66 151 10 154 114 3 95-165 93-204 36-6-8-10-19-12-30l50-8c3 46 112 56 116 5-17-69-150-10-154-114-4-87 153-88 188-35 5 8 8 18 10 28" id="Y"/><path fill="#3a414a" d="M136-208V0H84v-208H4v-40h212v40h-80" id="Z"/><g id="h"><use transform="matrix(0.049366047715882704,0,0,0.049366047715882704,0,0)" xlink:href="#W"/><use transform="matrix(0.049366047715882704,0,0,0.049366047715882704,11.847851451811849,0)" xlink:href="#X"/><use transform="matrix(0.049366047715882704,0,0,0.049366047715882704,25.670344812259007,0)" xlink:href="#Y"/><use transform="matrix(0.049366047715882704,0,0,0.049366047715882704,37.51819626407085,0)" xlink:href="#Z"/></g><path fill="#3a414a" d="M4 7l51-268h42L46 7H4" id="aa"/><path fill="#3a414a" d="M133-34C117-15 103 5 69 4 32 3 11-16 11-54c-1-60 55-63 116-61 1-26-3-47-28-47-18 1-26 9-28 27l-52-2c7-38 36-58 82-57s74 22 75 68l1 82c-1 14 12 18 25 15v27c-30 8-71 5-69-32zm-48 3c29 0 43-24 42-57-32 0-66-3-65 30 0 17 8 27 23 27" id="ab"/><path fill="#3a414a" d="M135-194c53 0 70 44 70 98 0 56-19 98-73 100-31 1-45-17-59-34 3 33 2 69 2 105H25l-1-265h48c2 10 0 23 3 31 11-24 29-35 60-35zM114-30c33 0 39-31 40-66 0-38-9-64-40-64-56 0-55 130 0 130" id="ac"/><path fill="#3a414a" d="M25-224v-37h50v37H25zM25 0v-190h50V0H25" id="ad"/><path fill="#008a0e" d="M137-138c1-29-70-34-71-4 15 46 118 7 119 86 1 83-164 76-172 9l43-7c4 19 20 25 44 25 33 8 57-30 24-41C81-84 22-81 20-136c-2-80 154-74 161-7" id="ae"/><path fill="#008a0e" d="M115-3C79 11 28 4 28-45v-112H4v-33h27l15-45h31v45h36v33H77v99c-1 23 16 31 38 25v30" id="af"/><path fill="#008a0e" d="M133-34C117-15 103 5 69 4 32 3 11-16 11-54c-1-60 55-63 116-61 1-26-3-47-28-47-18 1-26 9-28 27l-52-2c7-38 36-58 82-57s74 22 75 68l1 82c-1 14 12 18 25 15v27c-30 8-71 5-69-32zm-48 3c29 0 43-24 42-57-32 0-66-3-65 30 0 17 8 27 23 27" id="ag"/><path fill="#008a0e" d="M135-150c-39-12-60 13-60 57V0H25l-1-190h47c2 13-1 29 3 40 6-28 27-53 61-41v41" id="ah"/><path fill="#008a0e" d="M14-72v-43h91v43H14" id="ai"/><path fill="#008a0e" d="M190-63c-7 42-38 67-86 67-59 0-84-38-90-98-12-110 154-137 174-36l-49 2c-2-19-15-32-35-32-30 0-35 28-38 64-6 74 65 87 74 30" id="aj"/><path fill="#008a0e" d="M114-157C55-157 80-60 75 0H25v-261h50l-1 109c12-26 28-41 61-42 86-1 58 113 63 194h-50c-7-57 23-157-34-157" id="ak"/><path fill="#008a0e" d="M25 0v-261h50V0H25" id="al"/><path fill="#008a0e" d="M185-48c-13 30-37 53-82 52C43 2 14-33 14-96s30-98 90-98c62 0 83 45 84 108H66c0 31 8 55 39 56 18 0 30-7 34-22zm-45-69c5-46-57-63-70-21-2 6-4 13-4 21h74" id="am"/><path fill="#008a0e" d="M135-194c87-1 58 113 63 194h-50c-7-57 23-157-34-157-59 0-34 97-39 157H25l-1-190h47c2 12-1 28 3 38 12-26 28-41 61-42" id="an"/><path fill="#008a0e" d="M195-6C206 82 75 100 31 46c-4-6-6-13-8-21l49-6c3 16 16 24 34 25 40 0 42-37 40-79-11 22-30 35-61 35-53 0-70-43-70-97 0-56 18-96 73-97 30 0 46 14 59 34l2-30h47zm-90-29c32 0 41-27 41-63 0-35-9-62-40-62-32 0-39 29-40 63 0 36 9 62 39 62" id="ao"/><g id="i"><use transform="matrix(0.049366047715882704,0,0,0.049366047715882704,0,0)" xlink:href="#aa"/><use transform="matrix(0.049366047715882704,0,0,0.049366047715882704,4.936604771588271,0)" xlink:href="#ab"/><use transform="matrix(0.049366047715882704,0,0,0.049366047715882704,14.809814314764811,0)" xlink:href="#ac"/><use transform="matrix(0.049366047715882704,0,0,0.049366047715882704,25.620978764543125,0)" xlink:href="#ad"/><use transform="matrix(0.049366047715882704,0,0,0.049366047715882704,30.5575835361314,0)" xlink:href="#aa"/><use transform="matrix(0.049366047715882704,0,0,0.049366047715882704,35.49418830771967,0)" xlink:href="#ae"/><use transform="matrix(0.049366047715882704,0,0,0.049366047715882704,45.36739785089621,0)" xlink:href="#af"/><use transform="matrix(0.049366047715882704,0,0,0.049366047715882704,51.24195752908625,0)" xlink:href="#ag"/><use transform="matrix(0.049366047715882704,0,0,0.049366047715882704,61.1151670722628,0)" xlink:href="#ah"/><use transform="matrix(0.049366047715882704,0,0,0.049366047715882704,68.02641375248638,0)" xlink:href="#af"/><use transform="matrix(0.049366047715882704,0,0,0.049366047715882704,73.90097343067642,0)" xlink:href="#ai"/><use transform="matrix(0.049366047715882704,0,0,0.049366047715882704,79.77553310886645,0)" xlink:href="#aj"/><use transform="matrix(0.049366047715882704,0,0,0.049366047715882704,89.648742652043,0)" xlink:href="#ak"/><use transform="matrix(0.049366047715882704,0,0,0.049366047715882704,100.45990710182132,0)" xlink:href="#ag"/><use transform="matrix(0.049366047715882704,0,0,0.049366047715882704,110.33311664499786,0)" xlink:href="#al"/><use transform="matrix(0.049366047715882704,0,0,0.049366047715882704,115.26972141658611,0)" xlink:href="#al"/><use transform="matrix(0.049366047715882704,0,0,0.049366047715882704,120.20632618817439,0)" xlink:href="#am"/><use transform="matrix(0.049366047715882704,0,0,0.049366047715882704,130.07953573135092,0)" xlink:href="#an"/><use transform="matrix(0.049366047715882704,0,0,0.049366047715882704,140.89070018112923,0)" xlink:href="#ao"/><use transform="matrix(0.049366047715882704,0,0,0.049366047715882704,151.70186463090755,0)" xlink:href="#am"/></g><path fill="#3a414a" d="M67-125c0 53 21 87 73 88 37 1 54-22 65-47l45 17C233-25 199 4 140 4 58 4 20-42 15-125 8-235 124-281 211-232c18 10 29 29 36 50l-46 12c-8-25-30-41-62-41-52 0-71 34-72 86" id="ap"/><path fill="#3a414a" d="M25 0v-261h50V0H25" id="aq"/><g id="j"><use transform="matrix(0.049366047715882704,0,0,0.049366047715882704,0,0)" xlink:href="#ap"/><use transform="matrix(0.049366047715882704,0,0,0.049366047715882704,12.78580635841362,0)" xlink:href="#ab"/><use transform="matrix(0.049366047715882704,0,0,0.049366047715882704,22.65901590159016,0)" xlink:href="#aq"/><use transform="matrix(0.049366047715882704,0,0,0.049366047715882704,27.59562067317843,0)" xlink:href="#aq"/></g><path fill="#3a414a" d="M190-63c-7 42-38 67-86 67-59 0-84-38-90-98-12-110 154-137 174-36l-49 2c-2-19-15-32-35-32-30 0-35 28-38 64-6 74 65 87 74 30" id="ar"/><path fill="#3a414a" d="M135-150c-39-12-60 13-60 57V0H25l-1-190h47c2 13-1 29 3 40 6-28 27-53 61-41v41" id="as"/><path fill="#3a414a" d="M185-48c-13 30-37 53-82 52C43 2 14-33 14-96s30-98 90-98c62 0 83 45 84 108H66c0 31 8 55 39 56 18 0 30-7 34-22zm-45-69c5-46-57-63-70-21-2 6-4 13-4 21h74" id="at"/><path fill="#3a414a" d="M115-3C79 11 28 4 28-45v-112H4v-33h27l15-45h31v45h36v33H77v99c-1 23 16 31 38 25v30" id="au"/><path fill="#3a414a" d="M-4 44V30h207v14H-4" id="av"/><path fill="#3a414a" d="M110-194c64 0 96 36 96 99 0 64-35 99-97 99-61 0-95-36-95-99 0-62 34-99 96-99zm-1 164c35 0 45-28 45-65 0-40-10-65-43-65-34 0-45 26-45 65 0 36 10 65 43 65" id="aw"/><path fill="#3a414a" d="M88-194c31-1 46 15 58 34l-1-101h50l1 261h-48c-2-10 0-23-3-31C134-8 116 4 84 4 32 4 16-41 15-95c0-56 19-97 73-99zm17 164c33 0 40-30 41-66 1-37-9-64-41-64s-38 30-39 65c0 43 13 65 39 65" id="ax"/><path fill="#3a414a" d="M137-138c1-29-70-34-71-4 15 46 118 7 119 86 1 83-164 76-172 9l43-7c4 19 20 25 44 25 33 8 57-30 24-41C81-84 22-81 20-136c-2-80 154-74 161-7" id="ay"/><path fill="#3a414a" d="M128 0H69L1-190h53L99-40l48-150h52" id="az"/><path fill="#3a414a" d="M135-194c87-1 58 113 63 194h-50c-7-57 23-157-34-157-59 0-34 97-39 157H25l-1-190h47c2 12-1 28 3 38 12-26 28-41 61-42" id="aA"/><path fill="#3a414a" d="M195-6C206 82 75 100 31 46c-4-6-6-13-8-21l49-6c3 16 16 24 34 25 40 0 42-37 40-79-11 22-30 35-61 35-53 0-70-43-70-97 0-56 18-96 73-97 30 0 46 14 59 34l2-30h47zm-90-29c32 0 41-27 41-63 0-35-9-62-40-62-32 0-39 29-40 63 0 36 9 62 39 62" id="aB"/><path fill="#3a414a" d="M67-93c0 74 22 123 53 168H70C40 30 18-18 18-93s22-123 52-168h50c-32 44-53 94-53 168" id="aC"/><path fill="#3a414a" d="M102-93c0 74-22 123-52 168H0C30 29 54-18 53-93c0-74-22-123-53-168h50c30 45 52 94 52 168" id="aD"/><g id="k"><use transform="matrix(0.049366047715882704,0,0,0.049366047715882704,0,0)" xlink:href="#ar"/><use transform="matrix(0.049366047715882704,0,0,0.049366047715882704,9.873209543176541,0)" xlink:href="#as"/><use transform="matrix(0.049366047715882704,0,0,0.049366047715882704,16.78445622340012,0)" xlink:href="#at"/><use transform="matrix(0.049366047715882704,0,0,0.049366047715882704,26.657665766576667,0)" xlink:href="#ab"/><use transform="matrix(0.049366047715882704,0,0,0.049366047715882704,36.530875309753206,0)" xlink:href="#au"/><use transform="matrix(0.049366047715882704,0,0,0.049366047715882704,42.405434987943245,0)" xlink:href="#at"/><use transform="matrix(0.049366047715882704,0,0,0.049366047715882704,52.27864453111978,0)" xlink:href="#av"/><use transform="matrix(0.049366047715882704,0,0,0.049366047715882704,62.15185407429634,0)" xlink:href="#ac"/><use transform="matrix(0.049366047715882704,0,0,0.049366047715882704,72.96301852407464,0)" xlink:href="#aw"/><use transform="matrix(0.049366047715882704,0,0,0.049366047715882704,83.77418297385296,0)" xlink:href="#ax"/><use transform="matrix(0.049366047715882704,0,0,0.049366047715882704,94.58534742363128,0)" xlink:href="#av"/><use transform="matrix(0.049366047715882704,0,0,0.049366047715882704,104.45855696680782,0)" xlink:href="#ay"/><use transform="matrix(0.049366047715882704,0,0,0.049366047715882704,114.33176650998436,0)" xlink:href="#at"/><use transform="matrix(0.049366047715882704,0,0,0.049366047715882704,124.2049760531609,0)" xlink:href="#as"/><use transform="matrix(0.049366047715882704,0,0,0.049366047715882704,131.1162227333845,0)" xlink:href="#az"/><use transform="matrix(0.049366047715882704,0,0,0.049366047715882704,140.98943227656102,0)" xlink:href="#ad"/><use transform="matrix(0.049366047715882704,0,0,0.049366047715882704,145.92603704814928,0)" xlink:href="#ar"/><use transform="matrix(0.049366047715882704,0,0,0.049366047715882704,155.7992465913258,0)" xlink:href="#at"/><use transform="matrix(0.049366047715882704,0,0,0.049366047715882704,165.67245613450234,0)" xlink:href="#av"/><use transform="matrix(0.049366047715882704,0,0,0.049366047715882704,175.54566567767887,0)" xlink:href="#ab"/><use transform="matrix(0.049366047715882704,0,0,0.049366047715882704,185.4188752208554,0)" xlink:href="#aA"/><use transform="matrix(0.049366047715882704,0,0,0.049366047715882704,196.23003967063372,0)" xlink:href="#ax"/><use transform="matrix(0.049366047715882704,0,0,0.049366047715882704,207.041204120412,0)" xlink:href="#av"/><use transform="matrix(0.049366047715882704,0,0,0.049366047715882704,216.91441366358856,0)" xlink:href="#ad"/><use transform="matrix(0.049366047715882704,0,0,0.049366047715882704,221.85101843517683,0)" xlink:href="#aA"/><use transform="matrix(0.049366047715882704,0,0,0.049366047715882704,232.66218288495514,0)" xlink:href="#aB"/><use transform="matrix(0.049366047715882704,0,0,0.049366047715882704,243.47334733473346,0)" xlink:href="#as"/><use transform="matrix(0.049366047715882704,0,0,0.049366047715882704,250.38459401495703,0)" xlink:href="#at"/><use transform="matrix(0.049366047715882704,0,0,0.049366047715882704,260.25780355813356,0)" xlink:href="#ay"/><use transform="matrix(0.049366047715882704,0,0,0.049366047715882704,270.1310131013101,0)" xlink:href="#ay"/><use transform="matrix(0.049366047715882704,0,0,0.049366047715882704,280.0042226444866,0)" xlink:href="#aC"/><use transform="matrix(0.049366047715882704,0,0,0.049366047715882704,285.87878232267667,0)" xlink:href="#aD"/></g><g id="l"><use transform="matrix(0.049366047715882704,0,0,0.049366047715882704,0,0)" xlink:href="#ap"/><use transform="matrix(0.049366047715882704,0,0,0.049366047715882704,12.78580635841362,0)" xlink:href="#as"/><use transform="matrix(0.049366047715882704,0,0,0.049366047715882704,19.697053038637197,0)" xlink:href="#at"/><use transform="matrix(0.049366047715882704,0,0,0.049366047715882704,29.570262581813733,0)" xlink:href="#ab"/><use transform="matrix(0.049366047715882704,0,0,0.049366047715882704,39.44347212499028,0)" xlink:href="#au"/><use transform="matrix(0.049366047715882704,0,0,0.049366047715882704,45.31803180318032,0)" xlink:href="#at"/></g><path fill="#3a414a" d="M76-54c-1 42 2 86-19 110H24C36 42 46 24 48 0H25v-54h51" id="aE"/><g id="m"><use transform="matrix(0.049366047715882704,0,0,0.049366047715882704,0,0)" xlink:href="#W"/><use transform="matrix(0.049366047715882704,0,0,0.049366047715882704,11.847851451811849,0)" xlink:href="#aw"/><use transform="matrix(0.049366047715882704,0,0,0.049366047715882704,22.65901590159016,0)" xlink:href="#ax"/><use transform="matrix(0.049366047715882704,0,0,0.049366047715882704,33.47018035136847,0)" xlink:href="#aE"/></g><g id="n"><use transform="matrix(0.049366047715882704,0,0,0.049366047715882704,0,0)" xlink:href="#Y"/><use transform="matrix(0.049366047715882704,0,0,0.049366047715882704,11.847851451811849,0)" xlink:href="#at"/><use transform="matrix(0.049366047715882704,0,0,0.049366047715882704,21.72106099498839,0)" xlink:href="#as"/><use transform="matrix(0.049366047715882704,0,0,0.049366047715882704,28.63230767521197,0)" xlink:href="#az"/><use transform="matrix(0.049366047715882704,0,0,0.049366047715882704,38.50551721838851,0)" xlink:href="#ad"/><use transform="matrix(0.049366047715882704,0,0,0.049366047715882704,43.44212198997678,0)" xlink:href="#ar"/><use transform="matrix(0.049366047715882704,0,0,0.049366047715882704,53.31533153315333,0)" xlink:href="#at"/><use transform="matrix(0.049366047715882704,0,0,0.049366047715882704,63.18854107632987,0)" xlink:href="#aE"/></g><path fill="#3a414a" d="M24 0v-248h52V0H24" id="aF"/><g id="o"><use transform="matrix(0.049366047715882704,0,0,0.049366047715882704,0,0)" xlink:href="#aF"/><use transform="matrix(0.049366047715882704,0,0,0.049366047715882704,4.936604771588271,0)" xlink:href="#aA"/><use transform="matrix(0.049366047715882704,0,0,0.049366047715882704,15.747769221366582,0)" xlink:href="#aB"/><use transform="matrix(0.049366047715882704,0,0,0.049366047715882704,26.558933671144896,0)" xlink:href="#as"/><use transform="matrix(0.049366047715882704,0,0,0.049366047715882704,33.47018035136847,0)" xlink:href="#at"/><use transform="matrix(0.049366047715882704,0,0,0.049366047715882704,43.34338989454501,0)" xlink:href="#ay"/><use transform="matrix(0.049366047715882704,0,0,0.049366047715882704,53.216599437721555,0)" xlink:href="#ay"/></g><path fill="#3a414a" d="M240-174c0 40-23 61-54 70L253 0h-59l-57-94H76V0H24v-248c93 4 217-23 216 74zM76-134c48-2 112 12 112-38 0-48-66-32-112-35v73" id="aG"/><path fill="#3a414a" d="M85 4C-2 5 27-109 22-190h50c7 57-23 150 33 157 60-5 35-97 40-157h50l1 190h-47c-2-12 1-28-3-38-12 25-28 42-61 42" id="aH"/><g id="p"><use transform="matrix(0.049366047715882704,0,0,0.049366047715882704,0,0)" xlink:href="#aG"/><use transform="matrix(0.049366047715882704,0,0,0.049366047715882704,12.78580635841362,0)" xlink:href="#at"/><use transform="matrix(0.049366047715882704,0,0,0.049366047715882704,22.65901590159016,0)" xlink:href="#au"/><use transform="matrix(0.049366047715882704,0,0,0.049366047715882704,28.5335755797802,0)" xlink:href="#aH"/><use transform="matrix(0.049366047715882704,0,0,0.049366047715882704,39.344740029558515,0)" xlink:href="#as"/><use transform="matrix(0.049366047715882704,0,0,0.049366047715882704,46.25598670978209,0)" xlink:href="#aA"/></g><path fill="#3a414a" d="M123 10C108 53 80 86 19 72V37c35 8 53-11 59-39L3-190h52l48 148c12-52 28-100 44-148h51" id="aI"/><path fill="#3a414a" d="M220-157c-53 9-28 100-34 157h-49v-107c1-27-5-49-29-50C55-147 81-57 75 0H25l-1-190h47c2 12-1 28 3 38 10-53 101-56 108 0 13-22 24-43 59-42 82 1 51 116 57 194h-49v-107c-1-25-5-48-29-50" id="aJ"/><g id="q"><use transform="matrix(0.049366047715882704,0,0,0.049366047715882704,0,0)" xlink:href="#ax"/><use transform="matrix(0.049366047715882704,0,0,0.049366047715882704,10.811164449778312,0)" xlink:href="#at"/><use transform="matrix(0.049366047715882704,0,0,0.049366047715882704,20.684373992954853,0)" xlink:href="#ac"/><use transform="matrix(0.049366047715882704,0,0,0.049366047715882704,31.495538442733164,0)" xlink:href="#aq"/><use transform="matrix(0.049366047715882704,0,0,0.049366047715882704,36.432143214321435,0)" xlink:href="#aw"/><use transform="matrix(0.049366047715882704,0,0,0.049366047715882704,47.243307664099746,0)" xlink:href="#aI"/><use transform="matrix(0.049366047715882704,0,0,0.049366047715882704,57.11651720727629,0)" xlink:href="#aJ"/><use transform="matrix(0.049366047715882704,0,0,0.049366047715882704,72.91365247635875,0)" xlink:href="#at"/><use transform="matrix(0.049366047715882704,0,0,0.049366047715882704,82.78686201953529,0)" xlink:href="#aA"/><use transform="matrix(0.049366047715882704,0,0,0.049366047715882704,93.59802646931361,0)" xlink:href="#au"/></g><g id="r"><use transform="matrix(0.049366047715882704,0,0,0.049366047715882704,0,0)" xlink:href="#aA"/><use transform="matrix(0.049366047715882704,0,0,0.049366047715882704,10.811164449778312,0)" xlink:href="#ab"/><use transform="matrix(0.049366047715882704,0,0,0.049366047715882704,20.684373992954853,0)" xlink:href="#aJ"/><use transform="matrix(0.049366047715882704,0,0,0.049366047715882704,36.48150926203732,0)" xlink:href="#at"/></g><g id="s"><use transform="matrix(0.049366047715882704,0,0,0.049366047715882704,0,0)" xlink:href="#ab"/><use transform="matrix(0.049366047715882704,0,0,0.049366047715882704,9.873209543176541,0)" xlink:href="#aA"/><use transform="matrix(0.049366047715882704,0,0,0.049366047715882704,20.684373992954853,0)" xlink:href="#ax"/></g><path fill="#3a414a" d="M238-95c0 69-44 99-111 99C63 4 22-25 22-93v-155h51v151c-1 38 19 59 55 60 90 1 49-130 58-211h52v153" id="aK"/><path fill="#3a414a" d="M24 0v-248h52v208h133V0H24" id="aL"/><g id="t"><use transform="matrix(0.049366047715882704,0,0,0.049366047715882704,0,0)" xlink:href="#aK"/><use transform="matrix(0.049366047715882704,0,0,0.049366047715882704,12.78580635841362,0)" xlink:href="#aG"/><use transform="matrix(0.049366047715882704,0,0,0.049366047715882704,25.57161271682724,0)" xlink:href="#aL"/></g><path fill="#e81313" d="M185-48c-13 30-37 53-82 52C43 2 14-33 14-96s30-98 90-98c62 0 83 45 84 108H66c0 31 8 55 39 56 18 0 30-7 34-22zm-45-69c5-46-57-63-70-21-2 6-4 13-4 21h74" id="aM"/><path fill="#e81313" d="M135-194c87-1 58 113 63 194h-50c-7-57 23-157-34-157-59 0-34 97-39 157H25l-1-190h47c2 12-1 28 3 38 12-26 28-41 61-42" id="aN"/><path fill="#e81313" d="M88-194c31-1 46 15 58 34l-1-101h50l1 261h-48c-2-10 0-23-3-31C134-8 116 4 84 4 32 4 16-41 15-95c0-56 19-97 73-99zm17 164c33 0 40-30 41-66 1-37-9-64-41-64s-38 30-39 65c0 43 13 65 39 65" id="aO"/><path fill="#e81313" d="M14-72v-43h91v43H14" id="aP"/><path fill="#e81313" d="M190-63c-7 42-38 67-86 67-59 0-84-38-90-98-12-110 154-137 174-36l-49 2c-2-19-15-32-35-32-30 0-35 28-38 64-6 74 65 87 74 30" id="aQ"/><path fill="#e81313" d="M114-157C55-157 80-60 75 0H25v-261h50l-1 109c12-26 28-41 61-42 86-1 58 113 63 194h-50c-7-57 23-157-34-157" id="aR"/><path fill="#e81313" d="M133-34C117-15 103 5 69 4 32 3 11-16 11-54c-1-60 55-63 116-61 1-26-3-47-28-47-18 1-26 9-28 27l-52-2c7-38 36-58 82-57s74 22 75 68l1 82c-1 14 12 18 25 15v27c-30 8-71 5-69-32zm-48 3c29 0 43-24 42-57-32 0-66-3-65 30 0 17 8 27 23 27" id="aS"/><path fill="#e81313" d="M25 0v-261h50V0H25" id="aT"/><path fill="#e81313" d="M195-6C206 82 75 100 31 46c-4-6-6-13-8-21l49-6c3 16 16 24 34 25 40 0 42-37 40-79-11 22-30 35-61 35-53 0-70-43-70-97 0-56 18-96 73-97 30 0 46 14 59 34l2-30h47zm-90-29c32 0 41-27 41-63 0-35-9-62-40-62-32 0-39 29-40 63 0 36 9 62 39 62" id="aU"/><g id="u"><use transform="matrix(0.049366047715882704,0,0,0.049366047715882704,0,0)" xlink:href="#aa"/><use transform="matrix(0.049366047715882704,0,0,0.049366047715882704,4.936604771588271,0)" xlink:href="#ab"/><use transform="matrix(0.049366047715882704,0,0,0.049366047715882704,14.809814314764811,0)" xlink:href="#ac"/><use transform="matrix(0.049366047715882704,0,0,0.049366047715882704,25.620978764543125,0)" xlink:href="#ad"/><use transform="matrix(0.049366047715882704,0,0,0.049366047715882704,30.5575835361314,0)" xlink:href="#aa"/><use transform="matrix(0.049366047715882704,0,0,0.049366047715882704,35.49418830771967,0)" xlink:href="#aM"/><use transform="matrix(0.049366047715882704,0,0,0.049366047715882704,45.36739785089621,0)" xlink:href="#aN"/><use transform="matrix(0.049366047715882704,0,0,0.049366047715882704,56.178562300674514,0)" xlink:href="#aO"/><use transform="matrix(0.049366047715882704,0,0,0.049366047715882704,66.98972675045283,0)" xlink:href="#aP"/><use transform="matrix(0.049366047715882704,0,0,0.049366047715882704,72.86428642864287,0)" xlink:href="#aQ"/><use transform="matrix(0.049366047715882704,0,0,0.049366047715882704,82.73749597181941,0)" xlink:href="#aR"/><use transform="matrix(0.049366047715882704,0,0,0.049366047715882704,93.54866042159773,0)" xlink:href="#aS"/><use transform="matrix(0.049366047715882704,0,0,0.049366047715882704,103.42186996477426,0)" xlink:href="#aT"/><use transform="matrix(0.049366047715882704,0,0,0.049366047715882704,108.35847473636254,0)" xlink:href="#aT"/><use transform="matrix(0.049366047715882704,0,0,0.049366047715882704,113.2950795079508,0)" xlink:href="#aM"/><use transform="matrix(0.049366047715882704,0,0,0.049366047715882704,123.16828905112735,0)" xlink:href="#aN"/><use transform="matrix(0.049366047715882704,0,0,0.049366047715882704,133.97945350090566,0)" xlink:href="#aU"/><use transform="matrix(0.049366047715882704,0,0,0.049366047715882704,144.79061795068398,0)" xlink:href="#aM"/></g><path fill="#3a414a" d="M114-157C55-157 80-60 75 0H25v-261h50l-1 109c12-26 28-41 61-42 86-1 58 113 63 194h-50c-7-57 23-157-34-157" id="aV"/><g id="v"><use transform="matrix(0.049366047715882704,0,0,0.049366047715882704,0,0)" xlink:href="#ax"/><use transform="matrix(0.049366047715882704,0,0,0.049366047715882704,10.811164449778312,0)" xlink:href="#at"/><use transform="matrix(0.049366047715882704,0,0,0.049366047715882704,20.684373992954853,0)" xlink:href="#aq"/><use transform="matrix(0.049366047715882704,0,0,0.049366047715882704,25.620978764543125,0)" xlink:href="#at"/><use transform="matrix(0.049366047715882704,0,0,0.049366047715882704,35.49418830771967,0)" xlink:href="#au"/><use transform="matrix(0.049366047715882704,0,0,0.049366047715882704,41.36874798590971,0)" xlink:href="#at"/><use transform="matrix(0.049366047715882704,0,0,0.049366047715882704,51.24195752908625,0)" xlink:href="#av"/><use transform="matrix(0.049366047715882704,0,0,0.049366047715882704,61.1151670722628,0)" xlink:href="#ar"/><use transform="matrix(0.049366047715882704,0,0,0.049366047715882704,70.98837661543934,0)" xlink:href="#aV"/><use transform="matrix(0.049366047715882704,0,0,0.049366047715882704,81.79954106521765,0)" xlink:href="#ab"/><use transform="matrix(0.049366047715882704,0,0,0.049366047715882704,91.6727506083942,0)" xlink:href="#aq"/><use transform="matrix(0.049366047715882704,0,0,0.049366047715882704,96.60935537998246,0)" xlink:href="#aq"/><use transform="matrix(0.049366047715882704,0,0,0.049366047715882704,101.54596015157072,0)" xlink:href="#at"/><use transform="matrix(0.049366047715882704,0,0,0.049366047715882704,111.41916969474727,0)" xlink:href="#aA"/><use transform="matrix(0.049366047715882704,0,0,0.049366047715882704,122.2303341445256,0)" xlink:href="#aB"/><use transform="matrix(0.049366047715882704,0,0,0.049366047715882704,133.0414985943039,0)" xlink:href="#at"/><use transform="matrix(0.049366047715882704,0,0,0.049366047715882704,142.91470813748043,0)" xlink:href="#av"/><use transform="matrix(0.049366047715882704,0,0,0.049366047715882704,152.78791768065696,0)" xlink:href="#ac"/><use transform="matrix(0.049366047715882704,0,0,0.049366047715882704,163.59908213043528,0)" xlink:href="#aw"/><use transform="matrix(0.049366047715882704,0,0,0.049366047715882704,174.4102465802136,0)" xlink:href="#ax"/><use transform="matrix(0.049366047715882704,0,0,0.049366047715882704,185.2214110299919,0)" xlink:href="#aC"/><use transform="matrix(0.049366047715882704,0,0,0.049366047715882704,191.09597070818197,0)" xlink:href="#aD"/></g><path fill="#3a414a" d="M24-248c120-7 223 5 221 122C244-46 201 0 124 0H24v-248zM76-40c74 7 117-18 117-86 0-67-45-88-117-82v168" id="aW"/><g id="w"><use transform="matrix(0.049366047715882704,0,0,0.049366047715882704,0,0)" xlink:href="#aW"/><use transform="matrix(0.049366047715882704,0,0,0.049366047715882704,12.78580635841362,0)" xlink:href="#at"/><use transform="matrix(0.049366047715882704,0,0,0.049366047715882704,22.65901590159016,0)" xlink:href="#aq"/><use transform="matrix(0.049366047715882704,0,0,0.049366047715882704,27.59562067317843,0)" xlink:href="#at"/><use transform="matrix(0.049366047715882704,0,0,0.049366047715882704,37.468830216354974,0)" xlink:href="#au"/><use transform="matrix(0.049366047715882704,0,0,0.049366047715882704,43.34338989454501,0)" xlink:href="#at"/></g><path fill="#3a414a" d="M121-226c-27-7-43 5-38 36h38v33H83V0H34v-157H6v-33h28c-9-59 32-81 87-68v32" id="aX"/><g id="x"><use transform="matrix(0.049366047715882704,0,0,0.049366047715882704,0,0)" xlink:href="#ar"/><use transform="matrix(0.049366047715882704,0,0,0.049366047715882704,9.873209543176541,0)" xlink:href="#aw"/><use transform="matrix(0.049366047715882704,0,0,0.049366047715882704,20.684373992954853,0)" xlink:href="#aA"/><use transform="matrix(0.049366047715882704,0,0,0.049366047715882704,31.495538442733164,0)" xlink:href="#aX"/><use transform="matrix(0.049366047715882704,0,0,0.049366047715882704,37.3700981209232,0)" xlink:href="#ad"/><use transform="matrix(0.049366047715882704,0,0,0.049366047715882704,42.306702892511474,0)" xlink:href="#as"/><use transform="matrix(0.049366047715882704,0,0,0.049366047715882704,49.21794957273505,0)" xlink:href="#aJ"/><use transform="matrix(0.049366047715882704,0,0,0.049366047715882704,65.01508484181751,0)" xlink:href="#ab"/><use transform="matrix(0.049366047715882704,0,0,0.049366047715882704,74.88829438499405,0)" xlink:href="#au"/><use transform="matrix(0.049366047715882704,0,0,0.049366047715882704,80.7628540631841,0)" xlink:href="#ad"/><use transform="matrix(0.049366047715882704,0,0,0.049366047715882704,85.69945883477236,0)" xlink:href="#aw"/><use transform="matrix(0.049366047715882704,0,0,0.049366047715882704,96.51062328455068,0)" xlink:href="#aA"/></g></defs></g></svg>