<svg xmlns="http://www.w3.org/2000/svg" xmlns:xlink="http://www.w3.org/1999/xlink" xmlns:lucid="lucid" width="1877" height="1086"><g transform="translate(-3260 -1345)" lucid:page-tab-id="0_0"><path d="M500 500h4500v2000H500z" fill="#fff"/><path d="M3370 1416a6 6 0 0 1 6-6h108a6 6 0 0 1 6 6v88a6 6 0 0 1-6 6h-108a6 6 0 0 1-6-6z" stroke="#febed9" stroke-width="2" fill="#fff0f0"/><use xlink:href="#a" transform="matrix(1,0,0,1,3370,1410) translate(36.60993827160494 55.27777777777778)"/><path d="M3430 1511.5v5.05m0 5.04v10.1m0 5.03v10.1m0 5.04v10.1m0 5.04v10.1m0 5.05v10.1m0 5.04v10.1m0 5.03v10.1m0 5.04v10.1m0 5.04v10.1m0 5.05v10.1m0 5.04v10.1m0 5.03v10.1m0 5.04v10.1m0 5.04v10.1m0 5.05v10.1m0 5.04v10.1m0 5.03v10.1m0 5.04v10.1m0 5.04v10.1m0 5.05v10.1m0 5.04v10.1m0 5.03v10.1m0 5.04v10.1m0 5.04v10.1m0 5.05v10.1m0 5.04v10.1m0 5.03v10.1m0 5.04v10.1m0 5.04v10.1m0 5.05v10.1m0 5.04v10.1m0 5.03v10.1m0 5.04v10.1m0 5.04v10.1m0 5.05v10.1m0 5.04v10.1m0 5.03v10.1m0 5.04v10.1m0 5.04v10.1m0 5.05v10.1m0 5.04v10.1m0 5.03v10.1m0 5.04v10.1m0 5.04v10.1m0 5.05v10.1m0 5.04v10.1m0 5.03v10.1m0 5.04v10.1m0 5.04v10.1m0 5.05v5.05" stroke="#3a414a" fill="none"/><path d="M3430.47 1511.5h-.94v-.5h.94zM3430.47 2269h-.94v-.5h.94z" stroke="#3a414a" stroke-width=".05" fill="#3a414a"/><path d="M3754.95 1511.5v5.05m0 5.04v10.1m0 5.03v10.1m0 5.04v10.1m0 5.04v10.1m0 5.05v10.1m0 5.04v10.1m0 5.03v10.1m0 5.04v10.1m0 5.04v10.1m0 5.05v10.1m0 5.04v10.1m0 5.03v10.1m0 5.04v10.1m0 5.04v10.1m0 5.05v10.1m0 5.04v10.1m0 5.03v10.1m0 5.04v10.1m0 5.04v10.1m0 5.05v10.1m0 5.04v10.1m0 5.03v10.1m0 5.04v10.1m0 5.04v10.1m0 5.05v10.1m0 5.04v10.1m0 5.03v10.1m0 5.04v10.1m0 5.04v10.1m0 5.05v10.1m0 5.04v10.1m0 5.03v10.1m0 5.04v10.1m0 5.04v10.1m0 5.05v10.1m0 5.04v10.1m0 5.03v10.1m0 5.04v10.1m0 5.04v10.1m0 5.05v10.1m0 5.04v10.1m0 5.03v10.1m0 5.04v10.1m0 5.04v10.1m0 5.05v10.1m0 5.04v10.1m0 5.03v10.1m0 5.04v10.1m0 5.04v10.1m0 5.05v5.05" stroke="#3a414a" fill="none"/><path d="M3755.43 1511.5h-.95v-.5h.95zM3755.43 2269h-.95v-.5h.95z" stroke="#3a414a" stroke-width=".05" fill="#3a414a"/><path d="M4116.86 1511.5v5.05m0 5.04v10.1m0 5.03v10.1m0 5.04v10.1m0 5.04v10.1m0 5.05v10.1m0 5.04v10.1m0 5.03v10.1m0 5.04v10.1m0 5.04v10.1m0 5.05v10.1m0 5.04v10.1m0 5.03v10.1m0 5.04v10.1m0 5.04v10.1m0 5.05v10.1m0 5.04v10.1m0 5.03v10.1m0 5.04v10.1m0 5.04v10.1m0 5.05v10.1m0 5.04v10.1m0 5.03v10.1m0 5.04v10.1m0 5.04v10.1m0 5.05v10.1m0 5.04v10.1m0 5.03v10.1m0 5.04v10.1m0 5.04v10.1m0 5.05v10.1m0 5.04v10.1m0 5.03v10.1m0 5.04v10.1m0 5.04v10.1m0 5.05v10.1m0 5.04v10.1m0 5.03v10.1m0 5.04v10.1m0 5.04v10.1m0 5.05v10.1m0 5.04v10.1m0 5.03v10.1m0 5.04v10.1m0 5.04v10.1m0 5.05v10.1m0 5.04v10.1m0 5.03v10.1m0 5.04v10.1m0 5.04v10.1m0 5.05v5.05" stroke="#3a414a" fill="none"/><path d="M4117.33 1511.5h-.95v-.5h.95zM4117.33 2269h-.95v-.5h.95z" stroke="#3a414a" stroke-width=".05" fill="#3a414a"/><path d="M4425.77 1511.5v5.05m0 5.04v10.1m0 5.03v10.1m0 5.04v10.1m0 5.04v10.1m0 5.05v10.1m0 5.04v10.1m0 5.03v10.1m0 5.04v10.1m0 5.04v10.1m0 5.05v10.1m0 5.04v10.1m0 5.03v10.1m0 5.04v10.1m0 5.04v10.1m0 5.05v10.1m0 5.04v10.1m0 5.03v10.1m0 5.04v10.1m0 5.04v10.1m0 5.05v10.1m0 5.04v10.1m0 5.03v10.1m0 5.04v10.1m0 5.04v10.1m0 5.05v10.1m0 5.04v10.1m0 5.03v10.1m0 5.04v10.1m0 5.04v10.1m0 5.05v10.1m0 5.04v10.1m0 5.03v10.1m0 5.04v10.1m0 5.04v10.1m0 5.05v10.1m0 5.04v10.1m0 5.03v10.1m0 5.04v10.1m0 5.04v10.1m0 5.05v10.1m0 5.04v10.1m0 5.03v10.1m0 5.04v10.1m0 5.04v10.1m0 5.05v10.1m0 5.04v10.1m0 5.03v10.1m0 5.04v10.1m0 5.04v10.1m0 5.05v5.05" stroke="#3a414a" fill="none"/><path d="M4426.25 1511.5h-.95v-.5h.95zM4426.25 2269h-.95v-.5h.95z" stroke="#3a414a" stroke-width=".05" fill="#3a414a"/><path d="M4785.77 1511.5v5.05m0 5.04v10.1m0 5.03v10.1m0 5.04v10.1m0 5.04v10.1m0 5.05v10.1m0 5.04v10.1m0 5.03v10.1m0 5.04v10.1m0 5.04v10.1m0 5.05v10.1m0 5.04v10.1m0 5.03v10.1m0 5.04v10.1m0 5.04v10.1m0 5.05v10.1m0 5.04v10.1m0 5.03v10.1m0 5.04v10.1m0 5.04v10.1m0 5.05v10.1m0 5.04v10.1m0 5.03v10.1m0 5.04v10.1m0 5.04v10.1m0 5.05v10.1m0 5.04v10.1m0 5.03v10.1m0 5.04v10.1m0 5.04v10.1m0 5.05v10.1m0 5.04v10.1m0 5.03v10.1m0 5.04v10.1m0 5.04v10.1m0 5.05v10.1m0 5.04v10.1m0 5.03v10.1m0 5.04v10.1m0 5.04v10.1m0 5.05v10.1m0 5.04v10.1m0 5.03v10.1m0 5.04v10.1m0 5.04v10.1m0 5.05v10.1m0 5.04v10.1m0 5.03v10.1m0 5.04v10.1m0 5.04v10.1m0 5.05v5.05" stroke="#3a414a" fill="none"/><path d="M4786.24 1511.5h-.95v-.5h.94zM4786.24 2269h-.95v-.5h.94z" stroke="#3a414a" stroke-width=".05" fill="#3a414a"/><path d="M3370 2276a6 6 0 0 1 6-6h108a6 6 0 0 1 6 6v88a6 6 0 0 1-6 6h-108a6 6 0 0 1-6-6z" stroke="#febed9" stroke-width="2" fill="#fff0f0"/><use xlink:href="#a" transform="matrix(1,0,0,1,3370,2270) translate(36.60993827160494 55.27777777777778)"/><path d="M3610 1416a6 6 0 0 1 6-6h277.9a6 6 0 0 1 6 6v88a6 6 0 0 1-6 6H3616a6 6 0 0 1-6-6z" stroke="#febed9" stroke-width="2" fill="#fff0f0"/><use xlink:href="#b" transform="matrix(1,0,0,1,3610.0000000000005,1410) translate(19.26425925925924 55.27777777777778)"/><use xlink:href="#c" transform="matrix(1,0,0,1,3610.0000000000005,1410) translate(109.3877160493827 55.27777777777778)"/><use xlink:href="#d" transform="matrix(1,0,0,1,3610.0000000000005,1410) translate(203.09141975308643 55.27777777777778)"/><path d="M3610 2276a6 6 0 0 1 6-6h277.9a6 6 0 0 1 6 6v88a6 6 0 0 1-6 6H3616a6 6 0 0 1-6-6z" stroke="#febed9" stroke-width="2" fill="#fff0f0"/><use xlink:href="#b" transform="matrix(1,0,0,1,3610.0000000000005,2270) translate(19.26425925925924 55.27777777777778)"/><use xlink:href="#c" transform="matrix(1,0,0,1,3610.0000000000005,2270) translate(109.3877160493827 55.27777777777778)"/><use xlink:href="#d" transform="matrix(1,0,0,1,3610.0000000000005,2270) translate(203.09141975308643 55.27777777777778)"/><path d="M4019.9 1416a6 6 0 0 1 6-6h181.9a6 6 0 0 1 6 6v88a6 6 0 0 1-6 6h-181.9a6 6 0 0 1-6-6z" stroke="#febed9" stroke-width="2" fill="#fff0f0"/><use xlink:href="#e" transform="matrix(1,0,0,1,4019.901234567901,1410) translate(19.25808641975309 55.27777777777778)"/><use xlink:href="#f" transform="matrix(1,0,0,1,4019.901234567901,1410) translate(138.94944444444445 55.27777777777778)"/><path d="M4019.9 2276a6 6 0 0 1 6-6h181.9a6 6 0 0 1 6 6v88a6 6 0 0 1-6 6h-181.9a6 6 0 0 1-6-6z" stroke="#febed9" stroke-width="2" fill="#fff0f0"/><use xlink:href="#e" transform="matrix(1,0,0,1,4019.901234567901,2270) translate(19.25808641975309 55.27777777777778)"/><use xlink:href="#f" transform="matrix(1,0,0,1,4019.901234567901,2270) translate(138.94944444444445 55.27777777777778)"/><path d="M4333.8 1416a6 6 0 0 1 6-6h171.93a6 6 0 0 1 6 6v88a6 6 0 0 1-6 6h-171.9a6 6 0 0 1-6.02-6z" stroke="#febed9" stroke-width="2" fill="#fff0f0"/><use xlink:href="#g" transform="matrix(1,0,0,1,4333.814814814815,1410) translate(19.258086419753077 55.27777777777778)"/><use xlink:href="#h" transform="matrix(1,0,0,1,4333.814814814815,1410) translate(125.24574074074074 55.27777777777778)"/><path d="M4333.8 2276a6 6 0 0 1 6-6h171.93a6 6 0 0 1 6 6v88a6 6 0 0 1-6 6h-171.9a6 6 0 0 1-6.02-6z" stroke="#febed9" stroke-width="2" fill="#fff0f0"/><use xlink:href="#g" transform="matrix(1,0,0,1,4333.814814814815,2270) translate(19.258086419753077 55.27777777777778)"/><use xlink:href="#h" transform="matrix(1,0,0,1,4333.814814814815,2270) translate(125.24574074074074 55.27777777777778)"/><path d="M4637.73 1416a6 6 0 0 1 6-6h284.07a6 6 0 0 1 6 6v88a6 6 0 0 1-6 6h-284.07a6 6 0 0 1-6-6z" stroke="#febed9" stroke-width="2" fill="#fff0f0"/><use xlink:href="#i" transform="matrix(1,0,0,1,4637.728395061728,1410) translate(19.177839506172838 55.27777777777778)"/><use xlink:href="#j" transform="matrix(1,0,0,1,4637.728395061728,1410) translate(99.3012962962963 55.27777777777778)"/><use xlink:href="#k" transform="matrix(1,0,0,1,4637.728395061728,1410) translate(131.33833333333334 55.27777777777778)"/><use xlink:href="#h" transform="matrix(1,0,0,1,4637.728395061728,1410) translate(237.32598765432098 55.27777777777778)"/><path d="M4637.73 2276a6 6 0 0 1 6-6h284.07a6 6 0 0 1 6 6v88a6 6 0 0 1-6 6h-284.07a6 6 0 0 1-6-6z" stroke="#febed9" stroke-width="2" fill="#fff0f0"/><use xlink:href="#i" transform="matrix(1,0,0,1,4637.728395061728,2270) translate(19.177839506172838 55.27777777777778)"/><use xlink:href="#j" transform="matrix(1,0,0,1,4637.728395061728,2270) translate(99.3012962962963 55.27777777777778)"/><use xlink:href="#k" transform="matrix(1,0,0,1,4637.728395061728,2270) translate(131.33833333333334 55.27777777777778)"/><use xlink:href="#h" transform="matrix(1,0,0,1,4637.728395061728,2270) translate(237.32598765432098 55.27777777777778)"/><path d="M3734.95 1576a6 6 0 0 1 6-6h28a6 6 0 0 1 6 6v368a6 6 0 0 1-6 6h-28a6 6 0 0 1-6-6zM3734.95 2016a6 6 0 0 1 6-6h28a6 6 0 0 1 6 6v48a6 6 0 0 1-6 6h-28a6 6 0 0 1-6-6zM4096.86 1716a6 6 0 0 1 6-6h28a6 6 0 0 1 6 6v438a6 6 0 0 1-6 6h-28a6 6 0 0 1-6-6zM4405.77 1836a6 6 0 0 1 6-6h28a6 6 0 0 1 6 6v318a6 6 0 0 1-6 6h-28a6 6 0 0 1-6-6zM4765.77 1836a6 6 0 0 1 6-6h28a6 6 0 0 1 6 6v318a6 6 0 0 1-6 6h-28a6 6 0 0 1-6-6z" stroke="#febed9" stroke-width="2" fill="#fff0f0"/><path d="M3430.5 1570.84l288.28 1.17M3430.5 1570.84h-.5" stroke="#3a414a" fill="none"/><path d="M3733.55 1572.07l-14.28 4.57.03-9.27z" stroke="#3a414a" fill="#3a414a"/><use xlink:href="#l" transform="matrix(1,0,0,1,3500.8456684568887,1546.1362243504495) translate(0 14.217421742174219)"/><use xlink:href="#m" transform="matrix(1,0,0,1,3500.8456684568887,1546.1362243504495) translate(50.84702914735919 14.217421742174219)"/><use xlink:href="#n" transform="matrix(1,0,0,1,3500.8456684568887,1546.1362243504495) translate(104.11299463279661 14.217421742174219)"/><path d="M3775.45 1610h99.5v40h-83.62" stroke="#3a414a" fill="none"/><path stroke="#3a414a" stroke-width=".05" fill="#3a414a"/><path d="M3776.57 1650l14.26-4.63v9.27z" stroke="#3a414a" fill="#3a414a"/><use xlink:href="#o" transform="matrix(1,0,0,1,3882.95061728395,1619.3369336933692) translate(0 14.217421742174219)"/><use xlink:href="#p" transform="matrix(1,0,0,1,3882.95061728395,1619.3369336933692) translate(81.84890711293352 14.217421742174219)"/><use xlink:href="#q" transform="matrix(1,0,0,1,3882.95061728395,1619.3369336933692) translate(144.83998399839984 14.217421742174219)"/><use xlink:href="#r" transform="matrix(1,0,0,1,3882.95061728395,1619.3369336933692) translate(186.20873198430957 14.217421742174219)"/><use xlink:href="#s" transform="matrix(1,0,0,1,3882.95061728395,1619.3369336933692) translate(223.57883010523278 14.217421742174219)"/><use xlink:href="#t" transform="matrix(1,0,0,1,3882.95061728395,1619.3369336933692) translate(279.80675845362316 14.217421742174219)"/><use xlink:href="#u" transform="matrix(1,0,0,1,3882.95061728395,1619.3369336933692) translate(316.2389016679446 14.217421742174219)"/><path d="M3775.45 1710l305.2 2" stroke="#3a414a" fill="none"/><path stroke="#3a414a" stroke-width=".05" fill="#3a414a"/><path d="M4095.43 1712.1l-14.3 4.55.06-9.27z" stroke="#3a414a" fill="#3a414a"/><use xlink:href="#v" transform="matrix(1,0,0,1,3842.065591064786,1685.7516138993387) translate(0 14.217421742174219)"/><use xlink:href="#w" transform="matrix(1,0,0,1,3842.065591064786,1685.7516138993387) translate(60.12784611794513 14.217421742174219)"/><use xlink:href="#t" transform="matrix(1,0,0,1,3842.065591064786,1685.7516138993387) translate(98.53463124090187 14.217421742174219)"/><use xlink:href="#x" transform="matrix(1,0,0,1,3842.065591064786,1685.7516138993387) translate(134.96677445522332 14.217421742174219)"/><path d="M4137.36 1770l272.03.3" stroke="#3a414a" fill="none"/><path stroke="#3a414a" stroke-width=".05" fill="#3a414a"/><path d="M4424.15 1770.3l-14.27 4.63v-9.27z" stroke="#3a414a" fill="#3a414a"/><use xlink:href="#v" transform="matrix(1,0,0,1,4234.7396350530435,1744.8318765498948) translate(0 14.217421742174219)"/><use xlink:href="#y" transform="matrix(1,0,0,1,4234.7396350530435,1744.8318765498948) translate(60.12784611794513 14.217421742174219)"/><path d="M4137.36 1830l612.27 1.97" stroke="#3a414a" fill="none"/><path stroke="#3a414a" stroke-width=".05" fill="#3a414a"/><path d="M4764.4 1832.02l-14.3 4.6.04-9.28z" stroke="#3a414a" fill="#3a414a"/><g><use xlink:href="#v" transform="matrix(1,0,0,1,4390.843107237086,1805.689685324199) translate(0 14.217421742174219)"/><use xlink:href="#z" transform="matrix(1,0,0,1,4390.843107237086,1805.689685324199) translate(60.12784611794513 14.217421742174219)"/></g><path d="M4096.36 1890h-5.1m-5.07 0H4076m-5.08 0h-10.17m-5.08 0h-10.18m-5.08 0h-10.17m-5.08 0H4015m-5.1 0h-10.15m-5.1 0h-10.15m-5.1 0h-10.16m-5.08 0H3954m-5.07 0h-10.17m-5.08 0h-10.17m-5.07 0h-10.17m-5.08 0H3893m-5.07 0h-10.17m-5.1 0h-10.15m-5.08 0h-10.16m-5.1 0H3832m-5.08 0h-10.17m-5.08 0h-10.17m-5.08 0h-5.1" stroke="#3a414a" fill="none"/><path stroke="#3a414a" stroke-width=".05" fill="#3a414a"/><path d="M3776.57 1890l14.26-4.63v9.27z" stroke="#3a414a" fill="#3a414a"/><g><use xlink:href="#A" transform="matrix(1,0,0,1,3832.8773794046074,1864.6738673867385) translate(0 14.217421742174219)"/><use xlink:href="#B" transform="matrix(1,0,0,1,3832.8773794046074,1864.6738673867385) translate(38.40678512295674 14.217421742174219)"/><use xlink:href="#C" transform="matrix(1,0,0,1,3832.8773794046074,1864.6738673867385) translate(74.83892833727818 14.217421742174219)"/><use xlink:href="#D" transform="matrix(1,0,0,1,3832.8773794046074,1864.6738673867385) translate(142.9640741851963 14.217421742174219)"/></g><path d="M3734.67 1947.93l-5.06.03m-5.05.03l-10.1.06m-5.07.03l-10.12.05m-5.05.03l-10.1.07m-5.07.03l-10.1.06m-5.07.03l-10.1.07m-5.07.03l-10.13.06m-5.05.04l-10.12.06m-5.06.03l-10.1.06m-5.07.04l-10.12.06m-5.05.03l-10.12.06m-5.06.05l-10.1.06m-5.07.04l-10.1.06m-5.07.04l-10.12.06m-5.05.03l-10.1.07m-5.07.03l-10.1.06m-5.07.02l-10.12.06m-5.05.04l-10.13.06m-5.06.03l-10.1.08m-5.06.03l-5.06.04" stroke="#3a414a" fill="none"/><path d="M3735.28 1948.12l.25.28h-.87v-.95h.22z" stroke="#3a414a" stroke-width=".05" fill="#3a414a"/><path d="M3431.62 1949.83l14.23-4.72.06 9.28z" stroke="#3a414a" fill="#3a414a"/><g><use xlink:href="#E" transform="matrix(1,0,0,1,3470.4984418805643,1923.5758527814821) translate(0 14.217421742174219)"/><use xlink:href="#F" transform="matrix(1,0,0,1,3470.4984418805643,1923.5758527814821) translate(62.003755931148675 14.217421742174219)"/><use xlink:href="#G" transform="matrix(1,0,0,1,3470.4984418805643,1923.5758527814821) translate(136.99078241157451 14.217421742174219)"/></g><path d="M4764.27 2010.75l-973.8.52" stroke="#3a414a" fill="none"/><path d="M4764.77 2011.22h-.52v-.94h.52z" stroke="#3a414a" stroke-width=".05" fill="#3a414a"/><path d="M3775.72 2011.28l14.26-4.65v9.27z" stroke="#3a414a" fill="#3a414a"/><g><use xlink:href="#H" transform="matrix(1,0,0,1,4166.504626582336,1985.687875260269) translate(0 14.217421742174219)"/><use xlink:href="#I" transform="matrix(1,0,0,1,4166.504626582336,1985.687875260269) translate(37.468830216354974 14.217421742174219)"/><use xlink:href="#J" transform="matrix(1,0,0,1,4166.504626582336,1985.687875260269) translate(66.00240579613518 14.217421742174219)"/><use xlink:href="#K" transform="matrix(1,0,0,1,4166.504626582336,1985.687875260269) translate(188.18337389294487 14.217421742174219)"/></g><path d="M3774.6 2068.72l974.78 1.26" stroke="#3a414a" fill="none"/><path d="M3774.6 2068.25v.95h-.98l.28-.25.6-.7z" stroke="#3a414a" stroke-width=".05" fill="#3a414a"/><path d="M4764.15 2070l-14.27 4.6v-9.26z" stroke="#3a414a" fill="#3a414a"/><g><use xlink:href="#E" transform="matrix(1,0,0,1,4170.481670451698,2044.0356264673264) translate(0 14.217421742174219)"/><use xlink:href="#L" transform="matrix(1,0,0,1,4170.481670451698,2044.0356264673264) translate(62.003755931148675 14.217421742174219)"/><use xlink:href="#K" transform="matrix(1,0,0,1,4170.481670451698,2044.0356264673264) translate(184.18472402795837 14.217421742174219)"/></g><path d="M4446.27 2110h99.5v40h-83.62" stroke="#3a414a" fill="none"/><path stroke="#3a414a" stroke-width=".05" fill="#3a414a"/><path d="M4447.4 2150l14.26-4.64v9.28z" stroke="#3a414a" fill="#3a414a"/><g><use xlink:href="#M" transform="matrix(1,0,0,1,4553.771604938272,2108.6738673867385) translate(23.207042426464866 14.217421742174219)"/><use xlink:href="#N" transform="matrix(1,0,0,1,4553.771604938272,2108.6738673867385) translate(55.73926787123157 14.217421742174219)"/><use xlink:href="#O" transform="matrix(1,0,0,1,4553.771604938272,2108.6738673867385) translate(82.29820154237646 14.217421742174219)"/><use xlink:href="#P" transform="matrix(1,0,0,1,4553.771604938272,2108.6738673867385) translate(0.0049999999999954525 35.543554355435546)"/><use xlink:href="#Q" transform="matrix(1,0,0,1,4553.771604938272,2108.6738673867385) translate(81.75517501750174 35.543554355435546)"/></g><path d="M4786.27 2189.2h119.5v39.9h-103.62M4786.28 2189.2h-.5" stroke="#3a414a" fill="none"/><path d="M4787.38 2229.1l14.27-4.63v9.27z" stroke="#3a414a" fill="#3a414a"/><g><use xlink:href="#M" transform="matrix(1,0,0,1,4913.765432098766,2198.494870535474) translate(0 14.217421742174219)"/><use xlink:href="#N" transform="matrix(1,0,0,1,4913.765432098766,2198.494870535474) translate(32.5322254447667 14.217421742174219)"/><use xlink:href="#R" transform="matrix(1,0,0,1,4913.765432098766,2198.494870535474) translate(59.091159115911594 14.217421742174219)"/><use xlink:href="#S" transform="matrix(1,0,0,1,4913.765432098766,2198.494870535474) translate(125.24166305519442 14.217421742174219)"/></g><defs><path fill="#3a414a" d="M232-93c-1 65-40 97-104 97C67 4 28-28 28-90v-158h33c8 89-33 224 67 224 102 0 64-133 71-224h33v155" id="T"/><path fill="#3a414a" d="M135-143c-3-34-86-38-87 0 15 53 115 12 119 90S17 21 10-45l28-5c4 36 97 45 98 0-10-56-113-15-118-90-4-57 82-63 122-42 12 7 21 19 24 35" id="U"/><path fill="#3a414a" d="M100-194c63 0 86 42 84 106H49c0 40 14 67 53 68 26 1 43-12 49-29l28 8c-11 28-37 45-77 45C44 4 14-33 15-96c1-61 26-98 85-98zm52 81c6-60-76-77-97-28-3 7-6 17-6 28h103" id="V"/><path fill="#3a414a" d="M114-163C36-179 61-72 57 0H25l-1-190h30c1 12-1 29 2 39 6-27 23-49 58-41v29" id="W"/><g id="a"><use transform="matrix(0.06172839506172839,0,0,0.06172839506172839,0,0)" xlink:href="#T"/><use transform="matrix(0.06172839506172839,0,0,0.06172839506172839,15.987654320987653,0)" xlink:href="#U"/><use transform="matrix(0.06172839506172839,0,0,0.06172839506172839,27.098765432098766,0)" xlink:href="#V"/><use transform="matrix(0.06172839506172839,0,0,0.06172839506172839,39.44444444444444,0)" xlink:href="#W"/></g><path fill="#3a414a" d="M33 0v-248h34V0H33" id="X"/><path fill="#3a414a" d="M117-194c89-4 53 116 60 194h-32v-121c0-31-8-49-39-48C34-167 62-67 57 0H25l-1-190h30c1 10-1 24 2 32 11-22 29-35 61-36" id="Y"/><path fill="#3a414a" d="M59-47c-2 24 18 29 38 22v24C64 9 27 4 27-40v-127H5v-23h24l9-43h21v43h35v23H59v120" id="Z"/><path fill="#3a414a" d="M141-36C126-15 110 5 73 4 37 3 15-17 15-53c-1-64 63-63 125-63 3-35-9-54-41-54-24 1-41 7-42 31l-33-3c5-37 33-52 76-52 45 0 72 20 72 64v82c-1 20 7 32 28 27v20c-31 9-61-2-59-35zM48-53c0 20 12 33 32 33 41-3 63-29 60-74-43 2-92-5-92 41" id="aa"/><path fill="#3a414a" d="M96-169c-40 0-48 33-48 73s9 75 48 75c24 0 41-14 43-38l32 2c-6 37-31 61-74 61-59 0-76-41-82-99-10-93 101-131 147-64 4 7 5 14 7 22l-32 3c-4-21-16-35-41-35" id="ab"/><g id="b"><use transform="matrix(0.06172839506172839,0,0,0.06172839506172839,0,0)" xlink:href="#X"/><use transform="matrix(0.06172839506172839,0,0,0.06172839506172839,6.172839506172839,0)" xlink:href="#Y"/><use transform="matrix(0.06172839506172839,0,0,0.06172839506172839,18.51851851851852,0)" xlink:href="#U"/><use transform="matrix(0.06172839506172839,0,0,0.06172839506172839,29.62962962962963,0)" xlink:href="#Z"/><use transform="matrix(0.06172839506172839,0,0,0.06172839506172839,35.80246913580247,0)" xlink:href="#aa"/><use transform="matrix(0.06172839506172839,0,0,0.06172839506172839,48.148148148148145,0)" xlink:href="#Y"/><use transform="matrix(0.06172839506172839,0,0,0.06172839506172839,60.49382716049382,0)" xlink:href="#ab"/><use transform="matrix(0.06172839506172839,0,0,0.06172839506172839,71.60493827160494,0)" xlink:href="#V"/></g><path fill="#3a414a" d="M240 0l2-218c-23 76-54 145-80 218h-23L58-218 59 0H30v-248h44l77 211c21-75 51-140 76-211h43V0h-30" id="ac"/><path fill="#3a414a" d="M177-190C167-65 218 103 67 71c-23-6-38-20-44-43l32-5c15 47 100 32 89-28v-30C133-14 115 1 83 1 29 1 15-40 15-95c0-56 16-97 71-98 29-1 48 16 59 35 1-10 0-23 2-32h30zM94-22c36 0 50-32 50-73 0-42-14-75-50-75-39 0-46 34-46 75s6 73 46 73" id="ad"/><g id="c"><use transform="matrix(0.06172839506172839,0,0,0.06172839506172839,0,0)" xlink:href="#ac"/><use transform="matrix(0.06172839506172839,0,0,0.06172839506172839,18.456790123456788,0)" xlink:href="#aa"/><use transform="matrix(0.06172839506172839,0,0,0.06172839506172839,30.80246913580247,0)" xlink:href="#Y"/><use transform="matrix(0.06172839506172839,0,0,0.06172839506172839,43.148148148148145,0)" xlink:href="#aa"/><use transform="matrix(0.06172839506172839,0,0,0.06172839506172839,55.49382716049382,0)" xlink:href="#ad"/><use transform="matrix(0.06172839506172839,0,0,0.06172839506172839,67.8395061728395,0)" xlink:href="#V"/><use transform="matrix(0.06172839506172839,0,0,0.06172839506172839,80.18518518518519,0)" xlink:href="#W"/></g><path fill="#3a414a" d="M87 75C49 33 22-17 22-94c0-76 28-126 65-167h31c-38 41-64 92-64 168S80 34 118 75H87" id="ae"/><path fill="#3a414a" d="M63-220v92h138v28H63V0H30v-248h175v28H63" id="af"/><path fill="#3a414a" d="M24 0v-261h32V0H24" id="ag"/><path fill="#3a414a" d="M143 0L79-87 56-68V0H24v-261h32v163l83-92h37l-77 82L181 0h-38" id="ah"/><path fill="#3a414a" d="M33-261c38 41 65 92 65 168S71 34 33 75H2C39 34 66-17 66-93S39-220 2-261h31" id="ai"/><g id="d"><use transform="matrix(0.06172839506172839,0,0,0.06172839506172839,0,0)" xlink:href="#ae"/><use transform="matrix(0.06172839506172839,0,0,0.06172839506172839,7.345679012345679,0)" xlink:href="#af"/><use transform="matrix(0.06172839506172839,0,0,0.06172839506172839,20.864197530864196,0)" xlink:href="#ag"/><use transform="matrix(0.06172839506172839,0,0,0.06172839506172839,25.74074074074074,0)" xlink:href="#aa"/><use transform="matrix(0.06172839506172839,0,0,0.06172839506172839,38.08641975308642,0)" xlink:href="#U"/><use transform="matrix(0.06172839506172839,0,0,0.06172839506172839,49.19753086419753,0)" xlink:href="#ah"/><use transform="matrix(0.06172839506172839,0,0,0.06172839506172839,60.308641975308646,0)" xlink:href="#ai"/></g><path fill="#3a414a" d="M194 0L95-120 63-95V0H30v-248h33v124l119-124h40L117-140 236 0h-42" id="aj"/><path fill="#3a414a" d="M84 4C-5 8 30-112 23-190h32v120c0 31 7 50 39 49 72-2 45-101 50-169h31l1 190h-30c-1-10 1-25-2-33-11 22-28 36-60 37" id="ak"/><path fill="#3a414a" d="M115-194c53 0 69 39 70 98 0 66-23 100-70 100C84 3 66-7 56-30L54 0H23l1-261h32v101c10-23 28-34 59-34zm-8 174c40 0 45-34 45-75 0-40-5-75-45-74-42 0-51 32-51 76 0 43 10 73 51 73" id="al"/><g id="e"><use transform="matrix(0.06172839506172839,0,0,0.06172839506172839,0,0)" xlink:href="#aj"/><use transform="matrix(0.06172839506172839,0,0,0.06172839506172839,14.814814814814813,0)" xlink:href="#ak"/><use transform="matrix(0.06172839506172839,0,0,0.06172839506172839,27.160493827160494,0)" xlink:href="#al"/><use transform="matrix(0.06172839506172839,0,0,0.06172839506172839,39.50617283950617,0)" xlink:href="#V"/><use transform="matrix(0.06172839506172839,0,0,0.06172839506172839,51.85185185185185,0)" xlink:href="#W"/><use transform="matrix(0.06172839506172839,0,0,0.06172839506172839,59.197530864197525,0)" xlink:href="#Y"/><use transform="matrix(0.06172839506172839,0,0,0.06172839506172839,71.5432098765432,0)" xlink:href="#V"/><use transform="matrix(0.06172839506172839,0,0,0.06172839506172839,83.88888888888889,0)" xlink:href="#Z"/><use transform="matrix(0.06172839506172839,0,0,0.06172839506172839,90.06172839506172,0)" xlink:href="#V"/><use transform="matrix(0.06172839506172839,0,0,0.06172839506172839,102.4074074074074,0)" xlink:href="#U"/></g><path fill="#3a414a" d="M205 0l-28-72H64L36 0H1l101-248h38L239 0h-34zm-38-99l-47-123c-12 45-31 82-46 123h93" id="am"/><path fill="#3a414a" d="M30-248c87 1 191-15 191 75 0 78-77 80-158 76V0H30v-248zm33 125c57 0 124 11 124-50 0-59-68-47-124-48v98" id="an"/><g id="f"><use transform="matrix(0.06172839506172839,0,0,0.06172839506172839,0,0)" xlink:href="#am"/><use transform="matrix(0.06172839506172839,0,0,0.06172839506172839,14.814814814814813,0)" xlink:href="#an"/><use transform="matrix(0.06172839506172839,0,0,0.06172839506172839,29.629629629629626,0)" xlink:href="#X"/></g><path fill="#3a414a" d="M212-179c-10-28-35-45-73-45-59 0-87 40-87 99 0 60 29 101 89 101 43 0 62-24 78-52l27 14C228-24 195 4 139 4 59 4 22-46 18-125c-6-104 99-153 187-111 19 9 31 26 39 46" id="ao"/><path fill="#3a414a" d="M106-169C34-169 62-67 57 0H25v-261h32l-1 103c12-21 28-36 61-36 89 0 53 116 60 194h-32v-121c2-32-8-49-39-48" id="ap"/><g id="g"><use transform="matrix(0.06172839506172839,0,0,0.06172839506172839,0,0)" xlink:href="#ao"/><use transform="matrix(0.06172839506172839,0,0,0.06172839506172839,15.987654320987653,0)" xlink:href="#ap"/><use transform="matrix(0.06172839506172839,0,0,0.06172839506172839,28.333333333333332,0)" xlink:href="#aa"/><use transform="matrix(0.06172839506172839,0,0,0.06172839506172839,40.67901234567901,0)" xlink:href="#ag"/><use transform="matrix(0.06172839506172839,0,0,0.06172839506172839,45.55555555555556,0)" xlink:href="#ag"/><use transform="matrix(0.06172839506172839,0,0,0.06172839506172839,50.4320987654321,0)" xlink:href="#V"/><use transform="matrix(0.06172839506172839,0,0,0.06172839506172839,62.77777777777778,0)" xlink:href="#Y"/><use transform="matrix(0.06172839506172839,0,0,0.06172839506172839,75.12345679012346,0)" xlink:href="#ad"/><use transform="matrix(0.06172839506172839,0,0,0.06172839506172839,87.46913580246914,0)" xlink:href="#V"/></g><path fill="#3a414a" d="M100-194c62-1 85 37 85 99 1 63-27 99-86 99S16-35 15-95c0-66 28-99 85-99zM99-20c44 1 53-31 53-75 0-43-8-75-51-75s-53 32-53 75 10 74 51 75" id="aq"/><path fill="#3a414a" d="M85-194c31 0 48 13 60 33l-1-100h32l1 261h-30c-2-10 0-23-3-31C134-8 116 4 85 4 32 4 16-35 15-94c0-66 23-100 70-100zm9 24c-40 0-46 34-46 75 0 40 6 74 45 74 42 0 51-32 51-76 0-42-9-74-50-73" id="ar"/><g id="h"><use transform="matrix(0.06172839506172839,0,0,0.06172839506172839,0,0)" xlink:href="#an"/><use transform="matrix(0.06172839506172839,0,0,0.06172839506172839,14.814814814814813,0)" xlink:href="#aq"/><use transform="matrix(0.06172839506172839,0,0,0.06172839506172839,27.160493827160494,0)" xlink:href="#ar"/></g><path fill="#3a414a" d="M185-189c-5-48-123-54-124 2 14 75 158 14 163 119 3 78-121 87-175 55-17-10-28-26-33-46l33-7c5 56 141 63 141-1 0-78-155-14-162-118-5-82 145-84 179-34 5 7 8 16 11 25" id="as"/><path fill="#3a414a" d="M108 0H70L1-190h34L89-25l56-165h34" id="at"/><path fill="#3a414a" d="M24-231v-30h32v30H24zM24 0v-190h32V0H24" id="au"/><g id="i"><use transform="matrix(0.06172839506172839,0,0,0.06172839506172839,0,0)" xlink:href="#as"/><use transform="matrix(0.06172839506172839,0,0,0.06172839506172839,14.814814814814813,0)" xlink:href="#V"/><use transform="matrix(0.06172839506172839,0,0,0.06172839506172839,27.160493827160494,0)" xlink:href="#W"/><use transform="matrix(0.06172839506172839,0,0,0.06172839506172839,34.50617283950617,0)" xlink:href="#at"/><use transform="matrix(0.06172839506172839,0,0,0.06172839506172839,45.61728395061728,0)" xlink:href="#au"/><use transform="matrix(0.06172839506172839,0,0,0.06172839506172839,50.49382716049382,0)" xlink:href="#ab"/><use transform="matrix(0.06172839506172839,0,0,0.06172839506172839,61.60493827160494,0)" xlink:href="#V"/></g><path fill="#3a414a" d="M101-234c-31-9-42 10-38 44h38v23H63V0H32v-167H5v-23h27c-7-52 17-82 69-68v24" id="av"/><g id="j"><use transform="matrix(0.06172839506172839,0,0,0.06172839506172839,0,0)" xlink:href="#av"/><use transform="matrix(0.06172839506172839,0,0,0.06172839506172839,6.172839506172839,0)" xlink:href="#aq"/><use transform="matrix(0.06172839506172839,0,0,0.06172839506172839,18.51851851851852,0)" xlink:href="#W"/></g><g id="k"><use transform="matrix(0.06172839506172839,0,0,0.06172839506172839,0,0)" xlink:href="#ao"/><use transform="matrix(0.06172839506172839,0,0,0.06172839506172839,15.987654320987653,0)" xlink:href="#ap"/><use transform="matrix(0.06172839506172839,0,0,0.06172839506172839,28.333333333333332,0)" xlink:href="#aa"/><use transform="matrix(0.06172839506172839,0,0,0.06172839506172839,40.67901234567901,0)" xlink:href="#ag"/><use transform="matrix(0.06172839506172839,0,0,0.06172839506172839,45.55555555555556,0)" xlink:href="#ag"/><use transform="matrix(0.06172839506172839,0,0,0.06172839506172839,50.4320987654321,0)" xlink:href="#V"/><use transform="matrix(0.06172839506172839,0,0,0.06172839506172839,62.77777777777778,0)" xlink:href="#Y"/><use transform="matrix(0.06172839506172839,0,0,0.06172839506172839,75.12345679012346,0)" xlink:href="#ad"/><use transform="matrix(0.06172839506172839,0,0,0.06172839506172839,87.46913580246914,0)" xlink:href="#V"/></g><path fill="#3a414a" d="M186 0v-106H76V0H24v-248h52v99h110v-99h50V0h-50" id="aw"/><path fill="#3a414a" d="M136-208V0H84v-208H4v-40h212v40h-80" id="ax"/><path fill="#3a414a" d="M24-248c93 1 206-16 204 79-1 75-69 88-152 82V0H24v-248zm52 121c47 0 100 7 100-41 0-47-54-39-100-39v80" id="ay"/><g id="l"><use transform="matrix(0.049366047715882704,0,0,0.049366047715882704,0,0)" xlink:href="#aw"/><use transform="matrix(0.049366047715882704,0,0,0.049366047715882704,12.78580635841362,0)" xlink:href="#ax"/><use transform="matrix(0.049366047715882704,0,0,0.049366047715882704,23.596970808191934,0)" xlink:href="#ax"/><use transform="matrix(0.049366047715882704,0,0,0.049366047715882704,34.408135257970244,0)" xlink:href="#ay"/></g><path fill="#3a414a" d="M140-251c80 0 125 45 125 126S219 4 139 4C58 4 15-44 15-125s44-126 125-126zm-1 214c52 0 73-35 73-88 0-50-21-86-72-86-52 0-73 35-73 86s22 88 72 88" id="az"/><path fill="#3a414a" d="M169-182c-1-43-94-46-97-3 18 66 151 10 154 114 3 95-165 93-204 36-6-8-10-19-12-30l50-8c3 46 112 56 116 5-17-69-150-10-154-114-4-87 153-88 188-35 5 8 8 18 10 28" id="aA"/><g id="m"><use transform="matrix(0.049366047715882704,0,0,0.049366047715882704,0,0)" xlink:href="#ay"/><use transform="matrix(0.049366047715882704,0,0,0.049366047715882704,11.847851451811849,0)" xlink:href="#az"/><use transform="matrix(0.049366047715882704,0,0,0.049366047715882704,25.670344812259007,0)" xlink:href="#aA"/><use transform="matrix(0.049366047715882704,0,0,0.049366047715882704,37.51819626407085,0)" xlink:href="#ax"/></g><path fill="#3a414a" d="M135-150c-39-12-60 13-60 57V0H25l-1-190h47c2 13-1 29 3 40 6-28 27-53 61-41v41" id="aB"/><path fill="#3a414a" d="M185-48c-13 30-37 53-82 52C43 2 14-33 14-96s30-98 90-98c62 0 83 45 84 108H66c0 31 8 55 39 56 18 0 30-7 34-22zm-45-69c5-46-57-63-70-21-2 6-4 13-4 21h74" id="aC"/><path fill="#3a414a" d="M84 4C32 4 15-41 15-95c0-55 18-99 73-99 29 0 47 12 58 34l2-30h48l-1 265h-49V-32C136-9 114 4 84 4zm21-34c32 0 41-29 41-66 0-36-9-64-40-64-33 0-39 30-40 65 0 43 13 65 39 65" id="aD"/><path fill="#3a414a" d="M85 4C-2 5 27-109 22-190h50c7 57-23 150 33 157 60-5 35-97 40-157h50l1 190h-47c-2-12 1-28-3-38-12 25-28 42-61 42" id="aE"/><path fill="#3a414a" d="M137-138c1-29-70-34-71-4 15 46 118 7 119 86 1 83-164 76-172 9l43-7c4 19 20 25 44 25 33 8 57-30 24-41C81-84 22-81 20-136c-2-80 154-74 161-7" id="aF"/><path fill="#3a414a" d="M115-3C79 11 28 4 28-45v-112H4v-33h27l15-45h31v45h36v33H77v99c-1 23 16 31 38 25v30" id="aG"/><g id="n"><use transform="matrix(0.049366047715882704,0,0,0.049366047715882704,0,0)" xlink:href="#aB"/><use transform="matrix(0.049366047715882704,0,0,0.049366047715882704,6.911246680223578,0)" xlink:href="#aC"/><use transform="matrix(0.049366047715882704,0,0,0.049366047715882704,16.78445622340012,0)" xlink:href="#aD"/><use transform="matrix(0.049366047715882704,0,0,0.049366047715882704,27.59562067317843,0)" xlink:href="#aE"/><use transform="matrix(0.049366047715882704,0,0,0.049366047715882704,38.40678512295674,0)" xlink:href="#aC"/><use transform="matrix(0.049366047715882704,0,0,0.049366047715882704,48.279994666133284,0)" xlink:href="#aF"/><use transform="matrix(0.049366047715882704,0,0,0.049366047715882704,58.15320420930983,0)" xlink:href="#aG"/></g><path fill="#3a414a" d="M67-125c0 54 23 88 75 88 28 0 53-7 68-21v-34h-60v-39h108v91C232-14 192 4 140 4 58 4 20-42 15-125 8-236 126-280 215-234c19 10 29 26 37 47l-47 15c-11-23-29-39-63-39-53 1-75 33-75 86" id="aH"/><path fill="#3a414a" d="M135-194c87-1 58 113 63 194h-50c-7-57 23-157-34-157-59 0-34 97-39 157H25l-1-190h47c2 12-1 28 3 38 12-26 28-41 61-42" id="aI"/><path fill="#3a414a" d="M133-34C117-15 103 5 69 4 32 3 11-16 11-54c-1-60 55-63 116-61 1-26-3-47-28-47-18 1-26 9-28 27l-52-2c7-38 36-58 82-57s74 22 75 68l1 82c-1 14 12 18 25 15v27c-30 8-71 5-69-32zm-48 3c29 0 43-24 42-57-32 0-66-3-65 30 0 17 8 27 23 27" id="aJ"/><g id="o"><use transform="matrix(0.049366047715882704,0,0,0.049366047715882704,0,0)" xlink:href="#aH"/><use transform="matrix(0.049366047715882704,0,0,0.049366047715882704,13.822493360447156,0)" xlink:href="#aC"/><use transform="matrix(0.049366047715882704,0,0,0.049366047715882704,23.695702903623697,0)" xlink:href="#aI"/><use transform="matrix(0.049366047715882704,0,0,0.049366047715882704,34.50686735340201,0)" xlink:href="#aC"/><use transform="matrix(0.049366047715882704,0,0,0.049366047715882704,44.38007689657855,0)" xlink:href="#aB"/><use transform="matrix(0.049366047715882704,0,0,0.049366047715882704,51.29132357680213,0)" xlink:href="#aJ"/><use transform="matrix(0.049366047715882704,0,0,0.049366047715882704,61.16453311997867,0)" xlink:href="#aG"/><use transform="matrix(0.049366047715882704,0,0,0.049366047715882704,67.03909279816871,0)" xlink:href="#aC"/></g><path fill="#3a414a" d="M25-224v-37h50v37H25zM25 0v-190h50V0H25" id="aK"/><g id="p"><use transform="matrix(0.049366047715882704,0,0,0.049366047715882704,0,0)" xlink:href="#aE"/><use transform="matrix(0.049366047715882704,0,0,0.049366047715882704,10.811164449778312,0)" xlink:href="#aI"/><use transform="matrix(0.049366047715882704,0,0,0.049366047715882704,21.622328899556624,0)" xlink:href="#aK"/><use transform="matrix(0.049366047715882704,0,0,0.049366047715882704,26.558933671144896,0)" xlink:href="#aD"/><use transform="matrix(0.049366047715882704,0,0,0.049366047715882704,37.37009812092321,0)" xlink:href="#aE"/><use transform="matrix(0.049366047715882704,0,0,0.049366047715882704,48.18126257070152,0)" xlink:href="#aC"/></g><path fill="#3a414a" d="M121-226c-27-7-43 5-38 36h38v33H83V0H34v-157H6v-33h28c-9-59 32-81 87-68v32" id="aL"/><path fill="#3a414a" d="M25 0v-261h50V0H25" id="aM"/><path fill="#3a414a" d="M195-6C206 82 75 100 31 46c-4-6-6-13-8-21l49-6c3 16 16 24 34 25 40 0 42-37 40-79-11 22-30 35-61 35-53 0-70-43-70-97 0-56 18-96 73-97 30 0 46 14 59 34l2-30h47zm-90-29c32 0 41-27 41-63 0-35-9-62-40-62-32 0-39 29-40 63 0 36 9 62 39 62" id="aN"/><path fill="#3a414a" d="M76-54c-1 42 2 86-19 110H24C36 42 46 24 48 0H25v-54h51" id="aO"/><g id="q"><use transform="matrix(0.049366047715882704,0,0,0.049366047715882704,0,0)" xlink:href="#aL"/><use transform="matrix(0.049366047715882704,0,0,0.049366047715882704,5.8745596781900415,0)" xlink:href="#aM"/><use transform="matrix(0.049366047715882704,0,0,0.049366047715882704,10.811164449778312,0)" xlink:href="#aJ"/><use transform="matrix(0.049366047715882704,0,0,0.049366047715882704,20.684373992954853,0)" xlink:href="#aN"/><use transform="matrix(0.049366047715882704,0,0,0.049366047715882704,31.495538442733164,0)" xlink:href="#aO"/></g><path fill="#3a414a" d="M135-194c53 0 70 44 70 98 0 56-19 98-73 100-31 1-45-17-59-34 3 33 2 69 2 105H25l-1-265h48c2 10 0 23 3 31 11-24 29-35 60-35zM114-30c33 0 39-31 40-66 0-38-9-64-40-64-56 0-55 130 0 130" id="aP"/><path fill="#3a414a" d="M110-194c64 0 96 36 96 99 0 64-35 99-97 99-61 0-95-36-95-99 0-62 34-99 96-99zm-1 164c35 0 45-28 45-65 0-40-10-65-43-65-34 0-45 26-45 65 0 36 10 65 43 65" id="aQ"/><path fill="#3a414a" d="M88-194c31-1 46 15 58 34l-1-101h50l1 261h-48c-2-10 0-23-3-31C134-8 116 4 84 4 32 4 16-41 15-95c0-56 19-97 73-99zm17 164c33 0 40-30 41-66 1-37-9-64-41-64s-38 30-39 65c0 43 13 65 39 65" id="aR"/><g id="r"><use transform="matrix(0.049366047715882704,0,0,0.049366047715882704,0,0)" xlink:href="#aP"/><use transform="matrix(0.049366047715882704,0,0,0.049366047715882704,10.811164449778312,0)" xlink:href="#aQ"/><use transform="matrix(0.049366047715882704,0,0,0.049366047715882704,21.622328899556624,0)" xlink:href="#aR"/></g><path fill="#3a414a" d="M220-157c-53 9-28 100-34 157h-49v-107c1-27-5-49-29-50C55-147 81-57 75 0H25l-1-190h47c2 12-1 28 3 38 10-53 101-56 108 0 13-22 24-43 59-42 82 1 51 116 57 194h-49v-107c-1-25-5-48-29-50" id="aS"/><g id="s"><use transform="matrix(0.049366047715882704,0,0,0.049366047715882704,0,0)" xlink:href="#aI"/><use transform="matrix(0.049366047715882704,0,0,0.049366047715882704,10.811164449778312,0)" xlink:href="#aJ"/><use transform="matrix(0.049366047715882704,0,0,0.049366047715882704,20.684373992954853,0)" xlink:href="#aS"/><use transform="matrix(0.049366047715882704,0,0,0.049366047715882704,36.48150926203732,0)" xlink:href="#aC"/><use transform="matrix(0.049366047715882704,0,0,0.049366047715882704,46.354718805213864,0)" xlink:href="#aO"/></g><g id="t"><use transform="matrix(0.049366047715882704,0,0,0.049366047715882704,0,0)" xlink:href="#aJ"/><use transform="matrix(0.049366047715882704,0,0,0.049366047715882704,9.873209543176541,0)" xlink:href="#aI"/><use transform="matrix(0.049366047715882704,0,0,0.049366047715882704,20.684373992954853,0)" xlink:href="#aR"/></g><path fill="#3a414a" d="M190-63c-7 42-38 67-86 67-59 0-84-38-90-98-12-110 154-137 174-36l-49 2c-2-19-15-32-35-32-30 0-35 28-38 64-6 74 65 87 74 30" id="aT"/><g id="u"><use transform="matrix(0.049366047715882704,0,0,0.049366047715882704,0,0)" xlink:href="#aA"/><use transform="matrix(0.049366047715882704,0,0,0.049366047715882704,11.847851451811849,0)" xlink:href="#aC"/><use transform="matrix(0.049366047715882704,0,0,0.049366047715882704,21.72106099498839,0)" xlink:href="#aT"/><use transform="matrix(0.049366047715882704,0,0,0.049366047715882704,31.594270538164935,0)" xlink:href="#aB"/><use transform="matrix(0.049366047715882704,0,0,0.049366047715882704,38.50551721838851,0)" xlink:href="#aC"/><use transform="matrix(0.049366047715882704,0,0,0.049366047715882704,48.378726761565055,0)" xlink:href="#aG"/></g><path fill="#3a414a" d="M67-125c0 53 21 87 73 88 37 1 54-22 65-47l45 17C233-25 199 4 140 4 58 4 20-42 15-125 8-235 124-281 211-232c18 10 29 29 36 50l-46 12c-8-25-30-41-62-41-52 0-71 34-72 86" id="aU"/><g id="v"><use transform="matrix(0.049366047715882704,0,0,0.049366047715882704,0,0)" xlink:href="#aU"/><use transform="matrix(0.049366047715882704,0,0,0.049366047715882704,12.78580635841362,0)" xlink:href="#aB"/><use transform="matrix(0.049366047715882704,0,0,0.049366047715882704,19.697053038637197,0)" xlink:href="#aC"/><use transform="matrix(0.049366047715882704,0,0,0.049366047715882704,29.570262581813733,0)" xlink:href="#aJ"/><use transform="matrix(0.049366047715882704,0,0,0.049366047715882704,39.44347212499028,0)" xlink:href="#aG"/><use transform="matrix(0.049366047715882704,0,0,0.049366047715882704,45.31803180318032,0)" xlink:href="#aC"/></g><g id="w"><use transform="matrix(0.049366047715882704,0,0,0.049366047715882704,0,0)" xlink:href="#ay"/><use transform="matrix(0.049366047715882704,0,0,0.049366047715882704,11.847851451811849,0)" xlink:href="#aQ"/><use transform="matrix(0.049366047715882704,0,0,0.049366047715882704,22.65901590159016,0)" xlink:href="#aR"/></g><path fill="#3a414a" d="M128 0H69L1-190h53L99-40l48-150h52" id="aV"/><g id="x"><use transform="matrix(0.049366047715882704,0,0,0.049366047715882704,0,0)" xlink:href="#aA"/><use transform="matrix(0.049366047715882704,0,0,0.049366047715882704,11.847851451811849,0)" xlink:href="#aC"/><use transform="matrix(0.049366047715882704,0,0,0.049366047715882704,21.72106099498839,0)" xlink:href="#aB"/><use transform="matrix(0.049366047715882704,0,0,0.049366047715882704,28.63230767521197,0)" xlink:href="#aV"/><use transform="matrix(0.049366047715882704,0,0,0.049366047715882704,38.50551721838851,0)" xlink:href="#aK"/><use transform="matrix(0.049366047715882704,0,0,0.049366047715882704,43.44212198997678,0)" xlink:href="#aT"/><use transform="matrix(0.049366047715882704,0,0,0.049366047715882704,53.31533153315333,0)" xlink:href="#aC"/></g><g id="y"><use transform="matrix(0.049366047715882704,0,0,0.049366047715882704,0,0)" xlink:href="#ay"/><use transform="matrix(0.049366047715882704,0,0,0.049366047715882704,11.847851451811849,0)" xlink:href="#aQ"/><use transform="matrix(0.049366047715882704,0,0,0.049366047715882704,22.65901590159016,0)" xlink:href="#aR"/></g><g id="z"><use transform="matrix(0.049366047715882704,0,0,0.049366047715882704,0,0)" xlink:href="#aA"/><use transform="matrix(0.049366047715882704,0,0,0.049366047715882704,11.847851451811849,0)" xlink:href="#aC"/><use transform="matrix(0.049366047715882704,0,0,0.049366047715882704,21.72106099498839,0)" xlink:href="#aB"/><use transform="matrix(0.049366047715882704,0,0,0.049366047715882704,28.63230767521197,0)" xlink:href="#aV"/><use transform="matrix(0.049366047715882704,0,0,0.049366047715882704,38.50551721838851,0)" xlink:href="#aK"/><use transform="matrix(0.049366047715882704,0,0,0.049366047715882704,43.44212198997678,0)" xlink:href="#aT"/><use transform="matrix(0.049366047715882704,0,0,0.049366047715882704,53.31533153315333,0)" xlink:href="#aC"/></g><g id="A"><use transform="matrix(0.049366047715882704,0,0,0.049366047715882704,0,0)" xlink:href="#ay"/><use transform="matrix(0.049366047715882704,0,0,0.049366047715882704,11.847851451811849,0)" xlink:href="#aQ"/><use transform="matrix(0.049366047715882704,0,0,0.049366047715882704,22.65901590159016,0)" xlink:href="#aR"/></g><g id="B"><use transform="matrix(0.049366047715882704,0,0,0.049366047715882704,0,0)" xlink:href="#aJ"/><use transform="matrix(0.049366047715882704,0,0,0.049366047715882704,9.873209543176541,0)" xlink:href="#aI"/><use transform="matrix(0.049366047715882704,0,0,0.049366047715882704,20.684373992954853,0)" xlink:href="#aR"/></g><g id="C"><use transform="matrix(0.049366047715882704,0,0,0.049366047715882704,0,0)" xlink:href="#aA"/><use transform="matrix(0.049366047715882704,0,0,0.049366047715882704,11.847851451811849,0)" xlink:href="#aC"/><use transform="matrix(0.049366047715882704,0,0,0.049366047715882704,21.72106099498839,0)" xlink:href="#aB"/><use transform="matrix(0.049366047715882704,0,0,0.049366047715882704,28.63230767521197,0)" xlink:href="#aV"/><use transform="matrix(0.049366047715882704,0,0,0.049366047715882704,38.50551721838851,0)" xlink:href="#aK"/><use transform="matrix(0.049366047715882704,0,0,0.049366047715882704,43.44212198997678,0)" xlink:href="#aT"/><use transform="matrix(0.049366047715882704,0,0,0.049366047715882704,53.31533153315333,0)" xlink:href="#aC"/></g><g id="D"><use transform="matrix(0.049366047715882704,0,0,0.049366047715882704,0,0)" xlink:href="#aT"/><use transform="matrix(0.049366047715882704,0,0,0.049366047715882704,9.873209543176541,0)" xlink:href="#aB"/><use transform="matrix(0.049366047715882704,0,0,0.049366047715882704,16.78445622340012,0)" xlink:href="#aC"/><use transform="matrix(0.049366047715882704,0,0,0.049366047715882704,26.657665766576667,0)" xlink:href="#aJ"/><use transform="matrix(0.049366047715882704,0,0,0.049366047715882704,36.530875309753206,0)" xlink:href="#aG"/><use transform="matrix(0.049366047715882704,0,0,0.049366047715882704,42.405434987943245,0)" xlink:href="#aC"/><use transform="matrix(0.049366047715882704,0,0,0.049366047715882704,52.27864453111978,0)" xlink:href="#aR"/></g><path fill="#3a414a" d="M240-174c0 40-23 61-54 70L253 0h-59l-57-94H76V0H24v-248c93 4 217-23 216 74zM76-134c48-2 112 12 112-38 0-48-66-32-112-35v73" id="aW"/><g id="E"><use transform="matrix(0.049366047715882704,0,0,0.049366047715882704,0,0)" xlink:href="#aW"/><use transform="matrix(0.049366047715882704,0,0,0.049366047715882704,12.78580635841362,0)" xlink:href="#aC"/><use transform="matrix(0.049366047715882704,0,0,0.049366047715882704,22.65901590159016,0)" xlink:href="#aG"/><use transform="matrix(0.049366047715882704,0,0,0.049366047715882704,28.5335755797802,0)" xlink:href="#aE"/><use transform="matrix(0.049366047715882704,0,0,0.049366047715882704,39.344740029558515,0)" xlink:href="#aB"/><use transform="matrix(0.049366047715882704,0,0,0.049366047715882704,46.25598670978209,0)" xlink:href="#aI"/></g><g id="F"><use transform="matrix(0.049366047715882704,0,0,0.049366047715882704,0,0)" xlink:href="#aF"/><use transform="matrix(0.049366047715882704,0,0,0.049366047715882704,9.873209543176541,0)" xlink:href="#aE"/><use transform="matrix(0.049366047715882704,0,0,0.049366047715882704,20.684373992954853,0)" xlink:href="#aT"/><use transform="matrix(0.049366047715882704,0,0,0.049366047715882704,30.5575835361314,0)" xlink:href="#aT"/><use transform="matrix(0.049366047715882704,0,0,0.049366047715882704,40.43079307930794,0)" xlink:href="#aC"/><use transform="matrix(0.049366047715882704,0,0,0.049366047715882704,50.30400262248448,0)" xlink:href="#aF"/><use transform="matrix(0.049366047715882704,0,0,0.049366047715882704,60.177212165661025,0)" xlink:href="#aF"/></g><g id="G"><use transform="matrix(0.049366047715882704,0,0,0.049366047715882704,0,0)" xlink:href="#aS"/><use transform="matrix(0.049366047715882704,0,0,0.049366047715882704,15.797135269082466,0)" xlink:href="#aC"/><use transform="matrix(0.049366047715882704,0,0,0.049366047715882704,25.670344812259007,0)" xlink:href="#aF"/><use transform="matrix(0.049366047715882704,0,0,0.049366047715882704,35.543554355435546,0)" xlink:href="#aF"/><use transform="matrix(0.049366047715882704,0,0,0.049366047715882704,45.41676389861209,0)" xlink:href="#aJ"/><use transform="matrix(0.049366047715882704,0,0,0.049366047715882704,55.289973441788625,0)" xlink:href="#aN"/><use transform="matrix(0.049366047715882704,0,0,0.049366047715882704,66.10113789156695,0)" xlink:href="#aC"/></g><g id="H"><use transform="matrix(0.049366047715882704,0,0,0.049366047715882704,0,0)" xlink:href="#ay"/><use transform="matrix(0.049366047715882704,0,0,0.049366047715882704,11.847851451811849,0)" xlink:href="#aQ"/><use transform="matrix(0.049366047715882704,0,0,0.049366047715882704,22.65901590159016,0)" xlink:href="#aM"/><use transform="matrix(0.049366047715882704,0,0,0.049366047715882704,27.59562067317843,0)" xlink:href="#aM"/></g><g id="I"><use transform="matrix(0.049366047715882704,0,0,0.049366047715882704,0,0)" xlink:href="#aL"/><use transform="matrix(0.049366047715882704,0,0,0.049366047715882704,5.8745596781900415,0)" xlink:href="#aQ"/><use transform="matrix(0.049366047715882704,0,0,0.049366047715882704,16.685724127968353,0)" xlink:href="#aB"/></g><path fill="#3a414a" d="M24 0v-248h52v208h133V0H24" id="aX"/><path fill="#3a414a" d="M182-130c37 4 62 22 62 59C244 23 116-4 24 0v-248c84 5 203-23 205 63 0 31-19 50-47 55zM76-148c40-3 101 13 101-30 0-44-60-28-101-31v61zm0 110c48-3 116 14 116-37 0-48-69-32-116-35v72" id="aY"/><g id="J"><use transform="matrix(0.049366047715882704,0,0,0.049366047715882704,0,0)" xlink:href="#aX"/><use transform="matrix(0.049366047715882704,0,0,0.049366047715882704,10.811164449778312,0)" xlink:href="#aQ"/><use transform="matrix(0.049366047715882704,0,0,0.049366047715882704,21.622328899556624,0)" xlink:href="#aJ"/><use transform="matrix(0.049366047715882704,0,0,0.049366047715882704,31.495538442733164,0)" xlink:href="#aR"/><use transform="matrix(0.049366047715882704,0,0,0.049366047715882704,42.306702892511474,0)" xlink:href="#aY"/><use transform="matrix(0.049366047715882704,0,0,0.049366047715882704,55.09250925092508,0)" xlink:href="#aJ"/><use transform="matrix(0.049366047715882704,0,0,0.049366047715882704,64.96571879410163,0)" xlink:href="#aM"/><use transform="matrix(0.049366047715882704,0,0,0.049366047715882704,69.9023235656899,0)" xlink:href="#aJ"/><use transform="matrix(0.049366047715882704,0,0,0.049366047715882704,79.77553310886644,0)" xlink:href="#aI"/><use transform="matrix(0.049366047715882704,0,0,0.049366047715882704,90.58669755864476,0)" xlink:href="#aT"/><use transform="matrix(0.049366047715882704,0,0,0.049366047715882704,100.4599071018213,0)" xlink:href="#aC"/><use transform="matrix(0.049366047715882704,0,0,0.049366047715882704,110.33311664499784,0)" xlink:href="#aB"/></g><path fill="#3a414a" d="M24 0v-248h52V0H24" id="aZ"/><g id="K"><use transform="matrix(0.049366047715882704,0,0,0.049366047715882704,0,0)" xlink:href="#aZ"/><use transform="matrix(0.049366047715882704,0,0,0.049366047715882704,4.936604771588271,0)" xlink:href="#ay"/></g><g id="L"><use transform="matrix(0.049366047715882704,0,0,0.049366047715882704,0,0)" xlink:href="#aX"/><use transform="matrix(0.049366047715882704,0,0,0.049366047715882704,10.811164449778312,0)" xlink:href="#aQ"/><use transform="matrix(0.049366047715882704,0,0,0.049366047715882704,21.622328899556624,0)" xlink:href="#aJ"/><use transform="matrix(0.049366047715882704,0,0,0.049366047715882704,31.495538442733164,0)" xlink:href="#aR"/><use transform="matrix(0.049366047715882704,0,0,0.049366047715882704,42.306702892511474,0)" xlink:href="#aY"/><use transform="matrix(0.049366047715882704,0,0,0.049366047715882704,55.09250925092508,0)" xlink:href="#aJ"/><use transform="matrix(0.049366047715882704,0,0,0.049366047715882704,64.96571879410163,0)" xlink:href="#aM"/><use transform="matrix(0.049366047715882704,0,0,0.049366047715882704,69.9023235656899,0)" xlink:href="#aJ"/><use transform="matrix(0.049366047715882704,0,0,0.049366047715882704,79.77553310886644,0)" xlink:href="#aI"/><use transform="matrix(0.049366047715882704,0,0,0.049366047715882704,90.58669755864476,0)" xlink:href="#aT"/><use transform="matrix(0.049366047715882704,0,0,0.049366047715882704,100.4599071018213,0)" xlink:href="#aC"/><use transform="matrix(0.049366047715882704,0,0,0.049366047715882704,110.33311664499784,0)" xlink:href="#aB"/></g><g id="M"><use transform="matrix(0.049366047715882704,0,0,0.049366047715882704,0,0)" xlink:href="#aA"/><use transform="matrix(0.049366047715882704,0,0,0.049366047715882704,11.847851451811849,0)" xlink:href="#aC"/><use transform="matrix(0.049366047715882704,0,0,0.049366047715882704,21.72106099498839,0)" xlink:href="#aG"/></g><g id="N"><use transform="matrix(0.049366047715882704,0,0,0.049366047715882704,0,0)" xlink:href="#aE"/><use transform="matrix(0.049366047715882704,0,0,0.049366047715882704,10.811164449778312,0)" xlink:href="#aP"/></g><g id="O"><use transform="matrix(0.049366047715882704,0,0,0.049366047715882704,0,0)" xlink:href="#aP"/><use transform="matrix(0.049366047715882704,0,0,0.049366047715882704,10.811164449778312,0)" xlink:href="#aQ"/><use transform="matrix(0.049366047715882704,0,0,0.049366047715882704,21.622328899556624,0)" xlink:href="#aR"/></g><g id="P"><use transform="matrix(0.049366047715882704,0,0,0.049366047715882704,0,0)" xlink:href="#aF"/><use transform="matrix(0.049366047715882704,0,0,0.049366047715882704,9.873209543176541,0)" xlink:href="#aG"/><use transform="matrix(0.049366047715882704,0,0,0.049366047715882704,15.747769221366582,0)" xlink:href="#aB"/><use transform="matrix(0.049366047715882704,0,0,0.049366047715882704,22.65901590159016,0)" xlink:href="#aE"/><use transform="matrix(0.049366047715882704,0,0,0.049366047715882704,33.47018035136847,0)" xlink:href="#aT"/><use transform="matrix(0.049366047715882704,0,0,0.049366047715882704,43.34338989454501,0)" xlink:href="#aG"/><use transform="matrix(0.049366047715882704,0,0,0.049366047715882704,49.21794957273505,0)" xlink:href="#aE"/><use transform="matrix(0.049366047715882704,0,0,0.049366047715882704,60.029114022513355,0)" xlink:href="#aB"/><use transform="matrix(0.049366047715882704,0,0,0.049366047715882704,66.94036070273694,0)" xlink:href="#aC"/></g><g id="Q"><use transform="matrix(0.049366047715882704,0,0,0.049366047715882704,0,0)" xlink:href="#aR"/><use transform="matrix(0.049366047715882704,0,0,0.049366047715882704,10.811164449778312,0)" xlink:href="#aC"/><use transform="matrix(0.049366047715882704,0,0,0.049366047715882704,20.684373992954853,0)" xlink:href="#aG"/><use transform="matrix(0.049366047715882704,0,0,0.049366047715882704,26.558933671144896,0)" xlink:href="#aJ"/><use transform="matrix(0.049366047715882704,0,0,0.049366047715882704,36.432143214321435,0)" xlink:href="#aK"/><use transform="matrix(0.049366047715882704,0,0,0.049366047715882704,41.36874798590971,0)" xlink:href="#aM"/><use transform="matrix(0.049366047715882704,0,0,0.049366047715882704,46.30535275749798,0)" xlink:href="#aF"/></g><g id="R"><use transform="matrix(0.049366047715882704,0,0,0.049366047715882704,0,0)" xlink:href="#aF"/><use transform="matrix(0.049366047715882704,0,0,0.049366047715882704,9.873209543176541,0)" xlink:href="#aC"/><use transform="matrix(0.049366047715882704,0,0,0.049366047715882704,19.746419086353082,0)" xlink:href="#aB"/><use transform="matrix(0.049366047715882704,0,0,0.049366047715882704,26.65766576657666,0)" xlink:href="#aV"/><use transform="matrix(0.049366047715882704,0,0,0.049366047715882704,36.5308753097532,0)" xlink:href="#aK"/><use transform="matrix(0.049366047715882704,0,0,0.049366047715882704,41.46748008134147,0)" xlink:href="#aT"/><use transform="matrix(0.049366047715882704,0,0,0.049366047715882704,51.34068962451801,0)" xlink:href="#aC"/></g><g id="S"><use transform="matrix(0.049366047715882704,0,0,0.049366047715882704,0,0)" xlink:href="#aR"/><use transform="matrix(0.049366047715882704,0,0,0.049366047715882704,10.811164449778312,0)" xlink:href="#aC"/><use transform="matrix(0.049366047715882704,0,0,0.049366047715882704,20.684373992954853,0)" xlink:href="#aG"/><use transform="matrix(0.049366047715882704,0,0,0.049366047715882704,26.558933671144896,0)" xlink:href="#aJ"/><use transform="matrix(0.049366047715882704,0,0,0.049366047715882704,36.432143214321435,0)" xlink:href="#aK"/><use transform="matrix(0.049366047715882704,0,0,0.049366047715882704,41.36874798590971,0)" xlink:href="#aM"/><use transform="matrix(0.049366047715882704,0,0,0.049366047715882704,46.30535275749798,0)" xlink:href="#aF"/></g></defs></g></svg>