<svg xmlns="http://www.w3.org/2000/svg" xmlns:xlink="http://www.w3.org/1999/xlink" xmlns:lucid="lucid" width="1470" height="903"><g transform="translate(-918 -1337)" lucid:page-tab-id="0_0"><path d="M-500 0h3000v2500H-500z" fill="#fff"/><path d="M999.66 1441a6 6 0 0 1 6-6h108a6 6 0 0 1 6 6v88a6 6 0 0 1-6 6h-108a6 6 0 0 1-6-6z" stroke="#febed9" stroke-width="2" fill="#fff0f0"/><use xlink:href="#a" transform="matrix(1,0,0,1,999.6614892250146,1435) translate(21.36302469135802 55.27777777777778)"/><path d="M1059.66 1536.5v4.97m0 4.97v9.93m0 4.97v9.94m0 4.97v9.94m0 4.96v9.93m0 4.96v9.94m0 4.97v9.94m0 4.97v9.94m0 4.98v9.94m0 4.97v9.92m0 4.97v9.93m0 4.97v9.94m0 4.97v9.94m0 4.97v9.95m0 4.97v9.94m0 4.96v9.94m0 4.97v9.94m0 4.97v9.93m0 4.97v9.94m0 4.97v9.94m0 4.96v9.93m0 4.96v9.94m0 4.97v9.94m0 4.97v9.94m0 4.98v9.94m0 4.97v9.92m0 4.97v9.93m0 4.97v9.94m0 4.97v9.94m0 4.97v9.95m0 4.97v9.94m0 4.96v9.94m0 4.97v4.97" stroke="#3a414a" fill="none"/><path d="M1060.14 1536.5h-.95v-.5h.94zM1060.14 2014h-.95v-.5h.94z" stroke="#3a414a" stroke-width=".05" fill="#3a414a"/><path d="M1323.65 1536.5v4.97m0 4.97v9.93m0 4.97v9.94m0 4.97v9.94m0 4.96v9.93m0 4.96v9.94m0 4.97v9.94m0 4.97v9.94m0 4.98v9.94m0 4.97v9.92m0 4.97v9.93m0 4.97v9.94m0 4.97v9.94m0 4.97v9.95m0 4.97v9.94m0 4.96v9.94m0 4.97v9.94m0 4.97v9.93m0 4.97v9.94m0 4.97v9.94m0 4.96v9.93m0 4.96v9.94m0 4.97v9.94m0 4.97v9.94m0 4.98v9.94m0 4.97v9.92m0 4.97v9.93m0 4.97v9.94m0 4.97v9.94m0 4.97v9.95m0 4.97v9.94m0 4.96v9.94m0 4.97v4.97" stroke="#3a414a" fill="none"/><path d="M1324.13 1536.5h-.95v-.5h.95zM1324.13 2014h-.95v-.5h.95z" stroke="#3a414a" stroke-width=".05" fill="#3a414a"/><path d="M1608.46 1536.5v4.97m0 4.97v9.93m0 4.97v9.94m0 4.97v9.94m0 4.96v9.93m0 4.96v9.94m0 4.97v9.94m0 4.97v9.94m0 4.98v9.94m0 4.97v9.92m0 4.97v9.93m0 4.97v9.94m0 4.97v9.94m0 4.97v9.95m0 4.97v9.94m0 4.96v9.94m0 4.97v9.94m0 4.97v9.93m0 4.97v9.94m0 4.97v9.94m0 4.96v9.93m0 4.96v9.94m0 4.97v9.94m0 4.97v9.94m0 4.98v9.94m0 4.97v9.92m0 4.97v9.93m0 4.97v9.94m0 4.97v9.94m0 4.97v9.95m0 4.97v9.94m0 4.96v9.94m0 4.97v4.97" stroke="#3a414a" fill="none"/><path d="M1608.94 1536.5h-.95v-.5h.94zM1608.94 2014h-.95v-.5h.94z" stroke="#3a414a" stroke-width=".05" fill="#3a414a"/><path d="M1901.24 1536.5v4.97m0 4.97v9.93m0 4.97v9.94m0 4.97v9.94m0 4.96v9.93m0 4.96v9.94m0 4.97v9.94m0 4.97v9.94m0 4.98v9.94m0 4.97v9.92m0 4.97v9.93m0 4.97v9.94m0 4.97v9.94m0 4.97v9.95m0 4.97v9.94m0 4.96v9.94m0 4.97v9.94m0 4.97v9.93m0 4.97v9.94m0 4.97v9.94m0 4.96v9.93m0 4.96v9.94m0 4.97v9.94m0 4.97v9.94m0 4.98v9.94m0 4.97v9.92m0 4.97v9.93m0 4.97v9.94m0 4.97v9.94m0 4.97v9.95m0 4.97v9.94m0 4.96v9.94m0 4.97v4.97" stroke="#3a414a" fill="none"/><path d="M1901.7 1536.5h-.94v-.5h.95zM1901.7 2014h-.94v-.5h.95z" stroke="#3a414a" stroke-width=".05" fill="#3a414a"/><path d="M999.66 2021a6 6 0 0 1 6-6h108a6 6 0 0 1 6 6v88a6 6 0 0 1-6 6h-108a6 6 0 0 1-6-6z" stroke="#febed9" stroke-width="2" fill="#fff0f0"/><use xlink:href="#a" transform="matrix(1,0,0,1,999.6614892250146,2015) translate(21.36302469135802 55.27777777777778)"/><path d="M1239.66 1441a6 6 0 0 1 6-6h156a6 6 0 0 1 6 6v88a6 6 0 0 1-6 6h-156a6 6 0 0 1-6-6z" stroke="#febed9" stroke-width="2" fill="#fff0f0"/><use xlink:href="#b" transform="matrix(1,0,0,1,1239.6614892250145,1435) translate(19.221049382716053 39.65277777777778)"/><use xlink:href="#c" transform="matrix(1,0,0,1,1239.6614892250145,1435) translate(61.196358024691364 39.65277777777778)"/><use xlink:href="#d" transform="matrix(1,0,0,1,1239.6614892250145,1435) translate(42.77043209876542 66.31944444444446)"/><path d="M1239.66 2021a6 6 0 0 1 6-6h156a6 6 0 0 1 6 6v88a6 6 0 0 1-6 6h-156a6 6 0 0 1-6-6z" stroke="#febed9" stroke-width="2" fill="#fff0f0"/><use xlink:href="#b" transform="matrix(1,0,0,1,1239.6614892250145,2015) translate(19.221049382716053 39.65277777777778)"/><use xlink:href="#c" transform="matrix(1,0,0,1,1239.6614892250145,2015) translate(61.196358024691364 39.65277777777778)"/><use xlink:href="#d" transform="matrix(1,0,0,1,1239.6614892250145,2015) translate(42.77043209876542 66.31944444444446)"/><path d="M1527.65 1441a6 6 0 0 1 6-6h149.63a6 6 0 0 1 6 6v88a6 6 0 0 1-6 6h-149.63a6 6 0 0 1-6-6z" stroke="#febed9" stroke-width="2" fill="#fff0f0"/><use xlink:href="#e" transform="matrix(1,0,0,1,1527.6491435460023,1435) translate(19.400061728395066 55.27777777777778)"/><use xlink:href="#f" transform="matrix(1,0,0,1,1527.6491435460023,1435) translate(78.53586419753087 55.27777777777778)"/><path d="M1527.65 2021a6 6 0 0 1 6-6h149.63a6 6 0 0 1 6 6v88a6 6 0 0 1-6 6h-149.63a6 6 0 0 1-6-6z" stroke="#febed9" stroke-width="2" fill="#fff0f0"/><use xlink:href="#e" transform="matrix(1,0,0,1,1527.6491435460023,2015) translate(19.400061728395066 55.27777777777778)"/><use xlink:href="#f" transform="matrix(1,0,0,1,1527.6491435460023,2015) translate(78.53586419753087 55.27777777777778)"/><path d="M1809.28 1441a6 6 0 0 1 6-6h171.9a6 6 0 0 1 6 6v88a6 6 0 0 1-6 6h-171.9a6 6 0 0 1-6-6z" stroke="#febed9" stroke-width="2" fill="#fff0f0"/><use xlink:href="#g" transform="matrix(1,0,0,1,1809.278773175632,1435) translate(42.097592592592584 39.65277777777778)"/><use xlink:href="#h" transform="matrix(1,0,0,1,1809.278773175632,1435) translate(43.94944444444443 66.31944444444446)"/><path d="M1809.28 2021a6 6 0 0 1 6-6h171.9a6 6 0 0 1 6 6v88a6 6 0 0 1-6 6h-171.9a6 6 0 0 1-6-6z" stroke="#febed9" stroke-width="2" fill="#fff0f0"/><use xlink:href="#g" transform="matrix(1,0,0,1,1809.278773175632,2015) translate(42.097592592592584 39.65277777777778)"/><use xlink:href="#h" transform="matrix(1,0,0,1,1809.278773175632,2015) translate(43.94944444444443 66.31944444444446)"/><path d="M1060.16 1595.75h247.1M1060.17 1595.75h-.5" stroke="#3a414a" fill="none"/><path d="M1322.04 1595.75l-14.27 4.63v-9.27z" stroke="#3a414a" fill="#3a414a"/><use xlink:href="#i" transform="matrix(1,0,0,1,1096.0610514034536,1549.0976972734777) translate(46.014156471202696 14.217421742174219)"/><use xlink:href="#j" transform="matrix(1,0,0,1,1096.0610514034536,1549.0976972734777) translate(96.86118561856188 14.217421742174219)"/><use xlink:href="#k" transform="matrix(1,0,0,1,1096.0610514034536,1549.0976972734777) translate(0.0049999999999954525 35.543554355435546)"/><path d="M1324.15 1655.5h267.93M1324.17 1655.5h-.52" stroke="#3a414a" fill="none"/><path d="M1606.85 1655.5l-14.27 4.63v-9.27z" stroke="#3a414a" fill="#3a414a"/><use xlink:href="#i" transform="matrix(1,0,0,1,1378.5089517490458,1630.1738423867387) translate(0 14.217421742174219)"/><use xlink:href="#l" transform="matrix(1,0,0,1,1378.5089517490458,1630.1738423867387) translate(50.84702914735919 14.217421742174219)"/><use xlink:href="#m" transform="matrix(1,0,0,1,1378.5089517490458,1630.1738423867387) translate(104.11299463279661 14.217421742174219)"/><path d="M1608.96 1715.25h275.9M1608.98 1715.25h-.52" stroke="#3a414a" fill="none"/><path d="M1899.62 1715.25l-14.27 4.63v-9.27z" stroke="#3a414a" fill="#3a414a"/><use xlink:href="#n" transform="matrix(1,0,0,1,1657.5245977580903,1668.5977222734775) translate(0 14.217421742174219)"/><use xlink:href="#o" transform="matrix(1,0,0,1,1657.5245977580903,1668.5977222734775) translate(100.16371081552599 14.217421742174219)"/><use xlink:href="#p" transform="matrix(1,0,0,1,1657.5245977580903,1668.5977222734775) translate(0 35.543554355435546)"/><use xlink:href="#q" transform="matrix(1,0,0,1,1657.5245977580903,1668.5977222734775) translate(21.622328899556624 35.543554355435546)"/><use xlink:href="#r" transform="matrix(1,0,0,1,1657.5245977580903,1668.5977222734775) translate(92.61070551499594 35.543554355435546)"/><path d="M1901.74 1755.08h119.5v39.84h-103.62M1901.75 1755.08h-.5" stroke="#3a414a" fill="none"/><path d="M1902.85 1794.92l14.27-4.64v9.27z" stroke="#3a414a" fill="#3a414a"/><g><use xlink:href="#s" transform="matrix(1,0,0,1,2029.2355632990889,1764.3369336933692) translate(0 14.217421742174219)"/><use xlink:href="#t" transform="matrix(1,0,0,1,2029.2355632990889,1764.3369336933692) translate(82.83622806725117 14.217421742174219)"/><use xlink:href="#u" transform="matrix(1,0,0,1,2029.2355632990889,1764.3369336933692) translate(171.5470158126924 14.217421742174219)"/><use xlink:href="#v" transform="matrix(1,0,0,1,2029.2355632990889,1764.3369336933692) translate(207.97915902701382 14.217421742174219)"/><use xlink:href="#w" transform="matrix(1,0,0,1,2029.2355632990889,1764.3369336933692) translate(273.98156482314903 14.217421742174219)"/></g><path d="M1900.74 1854.67h-275.9M1900.72 1854.67h.52" stroke="#3a414a" fill="none"/><path d="M1610.08 1854.67l14.27-4.64v9.27z" stroke="#3a414a" fill="#3a414a"/><g><use xlink:href="#n" transform="matrix(1,0,0,1,1647.6267051910556,1829.340550720072) translate(0 14.217421742174219)"/><use xlink:href="#x" transform="matrix(1,0,0,1,1647.6267051910556,1829.340550720072) translate(100.16371081552599 14.217421742174219)"/><use xlink:href="#w" transform="matrix(1,0,0,1,1647.6267051910556,1829.340550720072) translate(166.16611661166115 14.217421742174219)"/></g><path d="M1607.96 1914.42h-267.92M1607.95 1914.42h.5" stroke="#3a414a" fill="none"/><path d="M1325.27 1914.42l14.27-4.64v9.27z" stroke="#3a414a" fill="#3a414a"/><g><use xlink:href="#i" transform="matrix(1,0,0,1,1354.418320463694,1889.0905632200715) translate(0 14.217421742174219)"/><use xlink:href="#y" transform="matrix(1,0,0,1,1354.418320463694,1889.0905632200715) translate(50.84702914735919 14.217421742174219)"/><use xlink:href="#z" transform="matrix(1,0,0,1,1354.418320463694,1889.0905632200715) translate(134.62121212121212 14.217421742174219)"/><use xlink:href="#w" transform="matrix(1,0,0,1,1354.418320463694,1889.0905632200715) translate(175.0026391528042 14.217421742174219)"/></g><path d="M1323.15 1974.17h-247.1M1323.14 1974.17h.5" stroke="#3a414a" fill="none"/><path d="M1061.28 1974.17l14.27-4.64v9.27z" stroke="#3a414a" fill="#3a414a"/><g><use xlink:href="#A" transform="matrix(1,0,0,1,1096.5547118806146,1948.8405757200715) translate(0 14.217421742174219)"/><use xlink:href="#B" transform="matrix(1,0,0,1,1096.5547118806146,1948.8405757200715) translate(77.8996232956629 14.217421742174219)"/><use xlink:href="#C" transform="matrix(1,0,0,1,1096.5547118806146,1948.8405757200715) translate(131.11622273338446 14.217421742174219)"/><use xlink:href="#D" transform="matrix(1,0,0,1,1096.5547118806146,1948.8405757200715) translate(152.7385516329411 14.217421742174219)"/></g><defs><path fill="#3a414a" d="M266 0h-40l-56-210L115 0H75L2-248h35L96-30l15-64 43-154h32l59 218 59-218h35" id="E"/><path fill="#3a414a" d="M100-194c63 0 86 42 84 106H49c0 40 14 67 53 68 26 1 43-12 49-29l28 8c-11 28-37 45-77 45C44 4 14-33 15-96c1-61 26-98 85-98zm52 81c6-60-76-77-97-28-3 7-6 17-6 28h103" id="F"/><path fill="#3a414a" d="M115-194c53 0 69 39 70 98 0 66-23 100-70 100C84 3 66-7 56-30L54 0H23l1-261h32v101c10-23 28-34 59-34zm-8 174c40 0 45-34 45-75 0-40-5-75-45-74-42 0-51 32-51 76 0 43 10 73 51 73" id="G"/><path fill="#3a414a" d="M140-251c81 0 123 46 123 126C263-46 219 4 140 4 59 4 17-45 17-125s42-126 123-126zm0 227c63 0 89-41 89-101s-29-99-89-99c-61 0-89 39-89 99S79-25 140-24" id="H"/><path fill="#3a414a" d="M185-189c-5-48-123-54-124 2 14 75 158 14 163 119 3 78-121 87-175 55-17-10-28-26-33-46l33-7c5 56 141 63 141-1 0-78-155-14-162-118-5-82 145-84 179-34 5 7 8 16 11 25" id="I"/><g id="a"><use transform="matrix(0.06172839506172839,0,0,0.06172839506172839,0,0)" xlink:href="#E"/><use transform="matrix(0.06172839506172839,0,0,0.06172839506172839,20.493827160493826,0)" xlink:href="#F"/><use transform="matrix(0.06172839506172839,0,0,0.06172839506172839,32.839506172839506,0)" xlink:href="#G"/><use transform="matrix(0.06172839506172839,0,0,0.06172839506172839,45.18518518518518,0)" xlink:href="#H"/><use transform="matrix(0.06172839506172839,0,0,0.06172839506172839,62.46913580246913,0)" xlink:href="#I"/></g><path fill="#3a414a" d="M205 0l-28-72H64L36 0H1l101-248h38L239 0h-34zm-38-99l-47-123c-12 45-31 82-46 123h93" id="J"/><path fill="#3a414a" d="M30-248c87 1 191-15 191 75 0 78-77 80-158 76V0H30v-248zm33 125c57 0 124 11 124-50 0-59-68-47-124-48v98" id="K"/><path fill="#3a414a" d="M33 0v-248h34V0H33" id="L"/><g id="b"><use transform="matrix(0.06172839506172839,0,0,0.06172839506172839,0,0)" xlink:href="#J"/><use transform="matrix(0.06172839506172839,0,0,0.06172839506172839,14.814814814814813,0)" xlink:href="#K"/><use transform="matrix(0.06172839506172839,0,0,0.06172839506172839,29.629629629629626,0)" xlink:href="#L"/></g><path fill="#3a414a" d="M143 4C61 4 22-44 18-125c-5-107 100-154 193-111 17 8 29 25 37 43l-32 9c-13-25-37-40-76-40-61 0-88 39-88 99 0 61 29 100 91 101 35 0 62-11 79-27v-45h-74v-28h105v86C228-13 192 4 143 4" id="M"/><path fill="#3a414a" d="M141-36C126-15 110 5 73 4 37 3 15-17 15-53c-1-64 63-63 125-63 3-35-9-54-41-54-24 1-41 7-42 31l-33-3c5-37 33-52 76-52 45 0 72 20 72 64v82c-1 20 7 32 28 27v20c-31 9-61-2-59-35zM48-53c0 20 12 33 32 33 41-3 63-29 60-74-43 2-92-5-92 41" id="N"/><path fill="#3a414a" d="M59-47c-2 24 18 29 38 22v24C64 9 27 4 27-40v-127H5v-23h24l9-43h21v43h35v23H59v120" id="O"/><path fill="#3a414a" d="M206 0h-36l-40-164L89 0H53L-1-190h32L70-26l43-164h34l41 164 42-164h31" id="P"/><path fill="#3a414a" d="M179-190L93 31C79 59 56 82 12 73V49c39 6 53-20 64-50L1-190h34L92-34l54-156h33" id="Q"/><g id="c"><use transform="matrix(0.06172839506172839,0,0,0.06172839506172839,0,0)" xlink:href="#M"/><use transform="matrix(0.06172839506172839,0,0,0.06172839506172839,17.28395061728395,0)" xlink:href="#N"/><use transform="matrix(0.06172839506172839,0,0,0.06172839506172839,29.629629629629626,0)" xlink:href="#O"/><use transform="matrix(0.06172839506172839,0,0,0.06172839506172839,35.80246913580247,0)" xlink:href="#F"/><use transform="matrix(0.06172839506172839,0,0,0.06172839506172839,48.148148148148145,0)" xlink:href="#P"/><use transform="matrix(0.06172839506172839,0,0,0.06172839506172839,64.1358024691358,0)" xlink:href="#N"/><use transform="matrix(0.06172839506172839,0,0,0.06172839506172839,76.48148148148148,0)" xlink:href="#Q"/></g><path fill="#3a414a" d="M87 75C49 33 22-17 22-94c0-76 28-126 65-167h31c-38 41-64 92-64 168S80 34 118 75H87" id="R"/><path fill="#3a414a" d="M190 0L58-211 59 0H30v-248h39L202-35l-2-213h31V0h-41" id="S"/><path fill="#3a414a" d="M141 0L90-78 38 0H4l68-98-65-92h35l48 74 47-74h35l-64 92 68 98h-35" id="T"/><path fill="#3a414a" d="M33 0v-38h34V0H33" id="U"/><path fill="#3a414a" d="M24-231v-30h32v30H24zM-9 49c24 4 33-6 33-30v-209h32V24c2 40-23 58-65 49V49" id="V"/><path fill="#3a414a" d="M135-143c-3-34-86-38-87 0 15 53 115 12 119 90S17 21 10-45l28-5c4 36 97 45 98 0-10-56-113-15-118-90-4-57 82-63 122-42 12 7 21 19 24 35" id="W"/><path fill="#3a414a" d="M33-261c38 41 65 92 65 168S71 34 33 75H2C39 34 66-17 66-93S39-220 2-261h31" id="X"/><g id="d"><use transform="matrix(0.06172839506172839,0,0,0.06172839506172839,0,0)" xlink:href="#R"/><use transform="matrix(0.06172839506172839,0,0,0.06172839506172839,7.345679012345679,0)" xlink:href="#S"/><use transform="matrix(0.06172839506172839,0,0,0.06172839506172839,23.333333333333332,0)" xlink:href="#F"/><use transform="matrix(0.06172839506172839,0,0,0.06172839506172839,35.67901234567901,0)" xlink:href="#T"/><use transform="matrix(0.06172839506172839,0,0,0.06172839506172839,46.79012345679013,0)" xlink:href="#O"/><use transform="matrix(0.06172839506172839,0,0,0.06172839506172839,52.96296296296297,0)" xlink:href="#U"/><use transform="matrix(0.06172839506172839,0,0,0.06172839506172839,59.13580246913581,0)" xlink:href="#V"/><use transform="matrix(0.06172839506172839,0,0,0.06172839506172839,64.01234567901236,0)" xlink:href="#W"/><use transform="matrix(0.06172839506172839,0,0,0.06172839506172839,75.12345679012347,0)" xlink:href="#X"/></g><path fill="#3a414a" d="M63-220v92h138v28H63V0H30v-248h175v28H63" id="Y"/><path fill="#3a414a" d="M24 0v-261h32V0H24" id="Z"/><path fill="#3a414a" d="M143 0L79-87 56-68V0H24v-261h32v163l83-92h37l-77 82L181 0h-38" id="aa"/><g id="e"><use transform="matrix(0.06172839506172839,0,0,0.06172839506172839,0,0)" xlink:href="#Y"/><use transform="matrix(0.06172839506172839,0,0,0.06172839506172839,13.518518518518517,0)" xlink:href="#Z"/><use transform="matrix(0.06172839506172839,0,0,0.06172839506172839,18.39506172839506,0)" xlink:href="#N"/><use transform="matrix(0.06172839506172839,0,0,0.06172839506172839,30.74074074074074,0)" xlink:href="#W"/><use transform="matrix(0.06172839506172839,0,0,0.06172839506172839,41.85185185185185,0)" xlink:href="#aa"/></g><path fill="#3a414a" d="M160-131c35 5 61 23 61 61C221 17 115-2 30 0v-248c76 3 177-17 177 60 0 33-19 50-47 57zm-97-11c50-1 110 9 110-42 0-47-63-36-110-37v79zm0 115c55-2 124 14 124-45 0-56-70-42-124-44v89" id="ab"/><path fill="#3a414a" d="M114-163C36-179 61-72 57 0H25l-1-190h30c1 12-1 29 2 39 6-27 23-49 58-41v29" id="ac"/><path fill="#3a414a" d="M24-231v-30h32v30H24zM24 0v-190h32V0H24" id="ad"/><path fill="#3a414a" d="M85-194c31 0 48 13 60 33l-1-100h32l1 261h-30c-2-10 0-23-3-31C134-8 116 4 85 4 32 4 16-35 15-94c0-66 23-100 70-100zm9 24c-40 0-46 34-46 75 0 40 6 74 45 74 42 0 51-32 51-76 0-42-9-74-50-73" id="ae"/><path fill="#3a414a" d="M177-190C167-65 218 103 67 71c-23-6-38-20-44-43l32-5c15 47 100 32 89-28v-30C133-14 115 1 83 1 29 1 15-40 15-95c0-56 16-97 71-98 29-1 48 16 59 35 1-10 0-23 2-32h30zM94-22c36 0 50-32 50-73 0-42-14-75-50-75-39 0-46 34-46 75s6 73 46 73" id="af"/><g id="f"><use transform="matrix(0.06172839506172839,0,0,0.06172839506172839,0,0)" xlink:href="#ab"/><use transform="matrix(0.06172839506172839,0,0,0.06172839506172839,14.814814814814813,0)" xlink:href="#ac"/><use transform="matrix(0.06172839506172839,0,0,0.06172839506172839,22.160493827160494,0)" xlink:href="#ad"/><use transform="matrix(0.06172839506172839,0,0,0.06172839506172839,27.037037037037038,0)" xlink:href="#ae"/><use transform="matrix(0.06172839506172839,0,0,0.06172839506172839,39.382716049382715,0)" xlink:href="#af"/><use transform="matrix(0.06172839506172839,0,0,0.06172839506172839,51.72839506172839,0)" xlink:href="#F"/></g><path fill="#3a414a" d="M212-179c-10-28-35-45-73-45-59 0-87 40-87 99 0 60 29 101 89 101 43 0 62-24 78-52l27 14C228-24 195 4 139 4 59 4 22-46 18-125c-6-104 99-153 187-111 19 9 31 26 39 46" id="ag"/><path fill="#3a414a" d="M106-169C34-169 62-67 57 0H25v-261h32l-1 103c12-21 28-36 61-36 89 0 53 116 60 194h-32v-121c2-32-8-49-39-48" id="ah"/><path fill="#3a414a" d="M117-194c89-4 53 116 60 194h-32v-121c0-31-8-49-39-48C34-167 62-67 57 0H25l-1-190h30c1 10-1 24 2 32 11-22 29-35 61-36" id="ai"/><g id="g"><use transform="matrix(0.06172839506172839,0,0,0.06172839506172839,0,0)" xlink:href="#ag"/><use transform="matrix(0.06172839506172839,0,0,0.06172839506172839,15.987654320987653,0)" xlink:href="#ah"/><use transform="matrix(0.06172839506172839,0,0,0.06172839506172839,28.333333333333332,0)" xlink:href="#N"/><use transform="matrix(0.06172839506172839,0,0,0.06172839506172839,40.67901234567901,0)" xlink:href="#Z"/><use transform="matrix(0.06172839506172839,0,0,0.06172839506172839,45.55555555555556,0)" xlink:href="#Z"/><use transform="matrix(0.06172839506172839,0,0,0.06172839506172839,50.4320987654321,0)" xlink:href="#F"/><use transform="matrix(0.06172839506172839,0,0,0.06172839506172839,62.77777777777778,0)" xlink:href="#ai"/><use transform="matrix(0.06172839506172839,0,0,0.06172839506172839,75.12345679012346,0)" xlink:href="#af"/><use transform="matrix(0.06172839506172839,0,0,0.06172839506172839,87.46913580246914,0)" xlink:href="#F"/></g><path fill="#3a414a" d="M100-194c62-1 85 37 85 99 1 63-27 99-86 99S16-35 15-95c0-66 28-99 85-99zM99-20c44 1 53-31 53-75 0-43-8-75-51-75s-53 32-53 75 10 74 51 75" id="aj"/><g id="h"><use transform="matrix(0.06172839506172839,0,0,0.06172839506172839,0,0)" xlink:href="#ag"/><use transform="matrix(0.06172839506172839,0,0,0.06172839506172839,15.987654320987653,0)" xlink:href="#aj"/><use transform="matrix(0.06172839506172839,0,0,0.06172839506172839,28.333333333333332,0)" xlink:href="#ai"/><use transform="matrix(0.06172839506172839,0,0,0.06172839506172839,40.67901234567901,0)" xlink:href="#O"/><use transform="matrix(0.06172839506172839,0,0,0.06172839506172839,46.851851851851855,0)" xlink:href="#N"/><use transform="matrix(0.06172839506172839,0,0,0.06172839506172839,59.19753086419753,0)" xlink:href="#ad"/><use transform="matrix(0.06172839506172839,0,0,0.06172839506172839,64.07407407407408,0)" xlink:href="#ai"/><use transform="matrix(0.06172839506172839,0,0,0.06172839506172839,76.41975308641976,0)" xlink:href="#F"/><use transform="matrix(0.06172839506172839,0,0,0.06172839506172839,88.76543209876544,0)" xlink:href="#ac"/></g><path fill="#3a414a" d="M186 0v-106H76V0H24v-248h52v99h110v-99h50V0h-50" id="ak"/><path fill="#3a414a" d="M136-208V0H84v-208H4v-40h212v40h-80" id="al"/><path fill="#3a414a" d="M24-248c93 1 206-16 204 79-1 75-69 88-152 82V0H24v-248zm52 121c47 0 100 7 100-41 0-47-54-39-100-39v80" id="am"/><g id="i"><use transform="matrix(0.049366047715882704,0,0,0.049366047715882704,0,0)" xlink:href="#ak"/><use transform="matrix(0.049366047715882704,0,0,0.049366047715882704,12.78580635841362,0)" xlink:href="#al"/><use transform="matrix(0.049366047715882704,0,0,0.049366047715882704,23.596970808191934,0)" xlink:href="#al"/><use transform="matrix(0.049366047715882704,0,0,0.049366047715882704,34.408135257970244,0)" xlink:href="#am"/></g><path fill="#3a414a" d="M140-251c80 0 125 45 125 126S219 4 139 4C58 4 15-44 15-125s44-126 125-126zm-1 214c52 0 73-35 73-88 0-50-21-86-72-86-52 0-73 35-73 86s22 88 72 88" id="an"/><path fill="#3a414a" d="M169-182c-1-43-94-46-97-3 18 66 151 10 154 114 3 95-165 93-204 36-6-8-10-19-12-30l50-8c3 46 112 56 116 5-17-69-150-10-154-114-4-87 153-88 188-35 5 8 8 18 10 28" id="ao"/><g id="j"><use transform="matrix(0.049366047715882704,0,0,0.049366047715882704,0,0)" xlink:href="#am"/><use transform="matrix(0.049366047715882704,0,0,0.049366047715882704,11.847851451811849,0)" xlink:href="#an"/><use transform="matrix(0.049366047715882704,0,0,0.049366047715882704,25.670344812259007,0)" xlink:href="#ao"/><use transform="matrix(0.049366047715882704,0,0,0.049366047715882704,37.51819626407085,0)" xlink:href="#al"/></g><path fill="#3a414a" d="M4 7l51-268h42L46 7H4" id="ap"/><path fill="#3a414a" d="M133-34C117-15 103 5 69 4 32 3 11-16 11-54c-1-60 55-63 116-61 1-26-3-47-28-47-18 1-26 9-28 27l-52-2c7-38 36-58 82-57s74 22 75 68l1 82c-1 14 12 18 25 15v27c-30 8-71 5-69-32zm-48 3c29 0 43-24 42-57-32 0-66-3-65 30 0 17 8 27 23 27" id="aq"/><path fill="#3a414a" d="M135-194c53 0 70 44 70 98 0 56-19 98-73 100-31 1-45-17-59-34 3 33 2 69 2 105H25l-1-265h48c2 10 0 23 3 31 11-24 29-35 60-35zM114-30c33 0 39-31 40-66 0-38-9-64-40-64-56 0-55 130 0 130" id="ar"/><path fill="#3a414a" d="M25-224v-37h50v37H25zM25 0v-190h50V0H25" id="as"/><path fill="#3a414a" d="M185-48c-13 30-37 53-82 52C43 2 14-33 14-96s30-98 90-98c62 0 83 45 84 108H66c0 31 8 55 39 56 18 0 30-7 34-22zm-45-69c5-46-57-63-70-21-2 6-4 13-4 21h74" id="at"/><path fill="#3a414a" d="M144 0l-44-69L55 0H2l70-98-66-92h53l41 62 40-62h54l-67 91 71 99h-54" id="au"/><path fill="#3a414a" d="M190-63c-7 42-38 67-86 67-59 0-84-38-90-98-12-110 154-137 174-36l-49 2c-2-19-15-32-35-32-30 0-35 28-38 64-6 74 65 87 74 30" id="av"/><path fill="#3a414a" d="M85 4C-2 5 27-109 22-190h50c7 57-23 150 33 157 60-5 35-97 40-157h50l1 190h-47c-2-12 1-28-3-38-12 25-28 42-61 42" id="aw"/><path fill="#3a414a" d="M115-3C79 11 28 4 28-45v-112H4v-33h27l15-45h31v45h36v33H77v99c-1 23 16 31 38 25v30" id="ax"/><path fill="#3a414a" d="M14-72v-43h91v43H14" id="ay"/><path fill="#3a414a" d="M110-194c64 0 96 36 96 99 0 64-35 99-97 99-61 0-95-36-95-99 0-62 34-99 96-99zm-1 164c35 0 45-28 45-65 0-40-10-65-43-65-34 0-45 26-45 65 0 36 10 65 43 65" id="az"/><path fill="#3a414a" d="M220-157c-53 9-28 100-34 157h-49v-107c1-27-5-49-29-50C55-147 81-57 75 0H25l-1-190h47c2 12-1 28 3 38 10-53 101-56 108 0 13-22 24-43 59-42 82 1 51 116 57 194h-49v-107c-1-25-5-48-29-50" id="aA"/><path fill="#3a414a" d="M135-194c87-1 58 113 63 194h-50c-7-57 23-157-34-157-59 0-34 97-39 157H25l-1-190h47c2 12-1 28 3 38 12-26 28-41 61-42" id="aB"/><path fill="#3a414a" d="M88-194c31-1 46 15 58 34l-1-101h50l1 261h-48c-2-10 0-23-3-31C134-8 116 4 84 4 32 4 16-41 15-95c0-56 19-97 73-99zm17 164c33 0 40-30 41-66 1-37-9-64-41-64s-38 30-39 65c0 43 13 65 39 65" id="aC"/><g id="k"><use transform="matrix(0.049366047715882704,0,0,0.049366047715882704,0,0)" xlink:href="#ap"/><use transform="matrix(0.049366047715882704,0,0,0.049366047715882704,4.936604771588271,0)" xlink:href="#aq"/><use transform="matrix(0.049366047715882704,0,0,0.049366047715882704,14.809814314764811,0)" xlink:href="#ar"/><use transform="matrix(0.049366047715882704,0,0,0.049366047715882704,25.620978764543125,0)" xlink:href="#as"/><use transform="matrix(0.049366047715882704,0,0,0.049366047715882704,30.5575835361314,0)" xlink:href="#ap"/><use transform="matrix(0.049366047715882704,0,0,0.049366047715882704,35.49418830771967,0)" xlink:href="#at"/><use transform="matrix(0.049366047715882704,0,0,0.049366047715882704,45.36739785089621,0)" xlink:href="#au"/><use transform="matrix(0.049366047715882704,0,0,0.049366047715882704,55.240607394072754,0)" xlink:href="#at"/><use transform="matrix(0.049366047715882704,0,0,0.049366047715882704,65.1138169372493,0)" xlink:href="#av"/><use transform="matrix(0.049366047715882704,0,0,0.049366047715882704,74.98702648042584,0)" xlink:href="#aw"/><use transform="matrix(0.049366047715882704,0,0,0.049366047715882704,85.79819093020416,0)" xlink:href="#ax"/><use transform="matrix(0.049366047715882704,0,0,0.049366047715882704,91.6727506083942,0)" xlink:href="#at"/><use transform="matrix(0.049366047715882704,0,0,0.049366047715882704,101.54596015157074,0)" xlink:href="#ay"/><use transform="matrix(0.049366047715882704,0,0,0.049366047715882704,107.42051982976079,0)" xlink:href="#av"/><use transform="matrix(0.049366047715882704,0,0,0.049366047715882704,117.29372937293732,0)" xlink:href="#az"/><use transform="matrix(0.049366047715882704,0,0,0.049366047715882704,128.10489382271564,0)" xlink:href="#aA"/><use transform="matrix(0.049366047715882704,0,0,0.049366047715882704,143.9020290917981,0)" xlink:href="#aA"/><use transform="matrix(0.049366047715882704,0,0,0.049366047715882704,159.6991643608806,0)" xlink:href="#aq"/><use transform="matrix(0.049366047715882704,0,0,0.049366047715882704,169.57237390405712,0)" xlink:href="#aB"/><use transform="matrix(0.049366047715882704,0,0,0.049366047715882704,180.38353835383543,0)" xlink:href="#aC"/></g><g id="l"><use transform="matrix(0.049366047715882704,0,0,0.049366047715882704,0,0)" xlink:href="#am"/><use transform="matrix(0.049366047715882704,0,0,0.049366047715882704,11.847851451811849,0)" xlink:href="#an"/><use transform="matrix(0.049366047715882704,0,0,0.049366047715882704,25.670344812259007,0)" xlink:href="#ao"/><use transform="matrix(0.049366047715882704,0,0,0.049366047715882704,37.51819626407085,0)" xlink:href="#al"/></g><g id="m"><use transform="matrix(0.049366047715882704,0,0,0.049366047715882704,0,0)" xlink:href="#ap"/><use transform="matrix(0.049366047715882704,0,0,0.049366047715882704,4.936604771588271,0)" xlink:href="#at"/><use transform="matrix(0.049366047715882704,0,0,0.049366047715882704,14.809814314764811,0)" xlink:href="#au"/><use transform="matrix(0.049366047715882704,0,0,0.049366047715882704,24.68302385794135,0)" xlink:href="#at"/><use transform="matrix(0.049366047715882704,0,0,0.049366047715882704,34.55623340111789,0)" xlink:href="#av"/><use transform="matrix(0.049366047715882704,0,0,0.049366047715882704,44.429442944294436,0)" xlink:href="#aw"/><use transform="matrix(0.049366047715882704,0,0,0.049366047715882704,55.24060739407275,0)" xlink:href="#ax"/><use transform="matrix(0.049366047715882704,0,0,0.049366047715882704,61.115167072262786,0)" xlink:href="#at"/></g><path fill="#3a414a" d="M275 0h-61l-44-196L126 0H64L0-248h53L97-49l45-199h58l43 199 44-199h52" id="aD"/><path fill="#3a414a" d="M135-194c52 0 70 43 70 98 0 56-19 99-73 100-30 1-46-15-58-35L72 0H24l1-261h50v104c11-23 29-37 60-37zM114-30c31 0 40-27 40-66 0-37-7-63-39-63s-41 28-41 65c0 36 8 64 40 64" id="aE"/><path fill="#3a414a" d="M147 0L96-86 75-71V0H25v-261h50v150l67-79h53l-66 74L201 0h-54" id="aF"/><g id="n"><use transform="matrix(0.049366047715882704,0,0,0.049366047715882704,0,0)" xlink:href="#aD"/><use transform="matrix(0.049366047715882704,0,0,0.049366047715882704,16.389527841673054,0)" xlink:href="#at"/><use transform="matrix(0.049366047715882704,0,0,0.049366047715882704,26.262737384849594,0)" xlink:href="#aE"/><use transform="matrix(0.049366047715882704,0,0,0.049366047715882704,37.073901834627904,0)" xlink:href="#ao"/><use transform="matrix(0.049366047715882704,0,0,0.049366047715882704,48.92175328643975,0)" xlink:href="#az"/><use transform="matrix(0.049366047715882704,0,0,0.049366047715882704,59.73291773621806,0)" xlink:href="#av"/><use transform="matrix(0.049366047715882704,0,0,0.049366047715882704,69.6061272793946,0)" xlink:href="#aF"/><use transform="matrix(0.049366047715882704,0,0,0.049366047715882704,79.47933682257114,0)" xlink:href="#at"/><use transform="matrix(0.049366047715882704,0,0,0.049366047715882704,89.35254636574768,0)" xlink:href="#ax"/></g><g id="o"><use transform="matrix(0.049366047715882704,0,0,0.049366047715882704,0,0)" xlink:href="#av"/><use transform="matrix(0.049366047715882704,0,0,0.049366047715882704,9.873209543176541,0)" xlink:href="#az"/><use transform="matrix(0.049366047715882704,0,0,0.049366047715882704,20.684373992954853,0)" xlink:href="#aB"/><use transform="matrix(0.049366047715882704,0,0,0.049366047715882704,31.495538442733164,0)" xlink:href="#aB"/><use transform="matrix(0.049366047715882704,0,0,0.049366047715882704,42.306702892511474,0)" xlink:href="#at"/><use transform="matrix(0.049366047715882704,0,0,0.049366047715882704,52.17991243568802,0)" xlink:href="#av"/><use transform="matrix(0.049366047715882704,0,0,0.049366047715882704,62.05312197886456,0)" xlink:href="#ax"/><use transform="matrix(0.049366047715882704,0,0,0.049366047715882704,67.9276816570546,0)" xlink:href="#as"/><use transform="matrix(0.049366047715882704,0,0,0.049366047715882704,72.86428642864287,0)" xlink:href="#az"/><use transform="matrix(0.049366047715882704,0,0,0.049366047715882704,83.67545087842119,0)" xlink:href="#aB"/></g><g id="p"><use transform="matrix(0.049366047715882704,0,0,0.049366047715882704,0,0)" xlink:href="#ax"/><use transform="matrix(0.049366047715882704,0,0,0.049366047715882704,5.8745596781900415,0)" xlink:href="#az"/></g><g id="q"><use transform="matrix(0.049366047715882704,0,0,0.049366047715882704,0,0)" xlink:href="#at"/><use transform="matrix(0.049366047715882704,0,0,0.049366047715882704,9.873209543176541,0)" xlink:href="#au"/><use transform="matrix(0.049366047715882704,0,0,0.049366047715882704,19.746419086353082,0)" xlink:href="#at"/><use transform="matrix(0.049366047715882704,0,0,0.049366047715882704,29.619628629529622,0)" xlink:href="#av"/><use transform="matrix(0.049366047715882704,0,0,0.049366047715882704,39.492838172706165,0)" xlink:href="#aw"/><use transform="matrix(0.049366047715882704,0,0,0.049366047715882704,50.304002622484475,0)" xlink:href="#ax"/><use transform="matrix(0.049366047715882704,0,0,0.049366047715882704,56.178562300674514,0)" xlink:href="#at"/></g><path fill="#3a414a" d="M137-138c1-29-70-34-71-4 15 46 118 7 119 86 1 83-164 76-172 9l43-7c4 19 20 25 44 25 33 8 57-30 24-41C81-84 22-81 20-136c-2-80 154-74 161-7" id="aG"/><g id="r"><use transform="matrix(0.049366047715882704,0,0,0.049366047715882704,0,0)" xlink:href="#av"/><use transform="matrix(0.049366047715882704,0,0,0.049366047715882704,9.873209543176541,0)" xlink:href="#az"/><use transform="matrix(0.049366047715882704,0,0,0.049366047715882704,20.684373992954853,0)" xlink:href="#aA"/><use transform="matrix(0.049366047715882704,0,0,0.049366047715882704,36.48150926203732,0)" xlink:href="#aA"/><use transform="matrix(0.049366047715882704,0,0,0.049366047715882704,52.27864453111978,0)" xlink:href="#aq"/><use transform="matrix(0.049366047715882704,0,0,0.049366047715882704,62.15185407429634,0)" xlink:href="#aB"/><use transform="matrix(0.049366047715882704,0,0,0.049366047715882704,72.96301852407464,0)" xlink:href="#aC"/><use transform="matrix(0.049366047715882704,0,0,0.049366047715882704,83.77418297385296,0)" xlink:href="#aG"/></g><path fill="#3a414a" d="M24 0v-248h195v40H76v63h132v40H76v65h150V0H24" id="aH"/><g id="s"><use transform="matrix(0.049366047715882704,0,0,0.049366047715882704,0,0)" xlink:href="#aH"/><use transform="matrix(0.049366047715882704,0,0,0.049366047715882704,11.847851451811849,0)" xlink:href="#au"/><use transform="matrix(0.049366047715882704,0,0,0.049366047715882704,21.72106099498839,0)" xlink:href="#at"/><use transform="matrix(0.049366047715882704,0,0,0.049366047715882704,31.594270538164935,0)" xlink:href="#av"/><use transform="matrix(0.049366047715882704,0,0,0.049366047715882704,41.46748008134148,0)" xlink:href="#aw"/><use transform="matrix(0.049366047715882704,0,0,0.049366047715882704,52.27864453111978,0)" xlink:href="#ax"/><use transform="matrix(0.049366047715882704,0,0,0.049366047715882704,58.15320420930983,0)" xlink:href="#at"/><use transform="matrix(0.049366047715882704,0,0,0.049366047715882704,68.02641375248636,0)" xlink:href="#aG"/></g><g id="t"><use transform="matrix(0.049366047715882704,0,0,0.049366047715882704,0,0)" xlink:href="#av"/><use transform="matrix(0.049366047715882704,0,0,0.049366047715882704,9.873209543176541,0)" xlink:href="#az"/><use transform="matrix(0.049366047715882704,0,0,0.049366047715882704,20.684373992954853,0)" xlink:href="#aA"/><use transform="matrix(0.049366047715882704,0,0,0.049366047715882704,36.48150926203732,0)" xlink:href="#aA"/><use transform="matrix(0.049366047715882704,0,0,0.049366047715882704,52.27864453111978,0)" xlink:href="#aq"/><use transform="matrix(0.049366047715882704,0,0,0.049366047715882704,62.15185407429634,0)" xlink:href="#aB"/><use transform="matrix(0.049366047715882704,0,0,0.049366047715882704,72.96301852407464,0)" xlink:href="#aC"/></g><g id="u"><use transform="matrix(0.049366047715882704,0,0,0.049366047715882704,0,0)" xlink:href="#aq"/><use transform="matrix(0.049366047715882704,0,0,0.049366047715882704,9.873209543176541,0)" xlink:href="#aB"/><use transform="matrix(0.049366047715882704,0,0,0.049366047715882704,20.684373992954853,0)" xlink:href="#aC"/></g><path fill="#3a414a" d="M135-150c-39-12-60 13-60 57V0H25l-1-190h47c2 13-1 29 3 40 6-28 27-53 61-41v41" id="aI"/><g id="v"><use transform="matrix(0.049366047715882704,0,0,0.049366047715882704,0,0)" xlink:href="#aI"/><use transform="matrix(0.049366047715882704,0,0,0.049366047715882704,6.911246680223578,0)" xlink:href="#at"/><use transform="matrix(0.049366047715882704,0,0,0.049366047715882704,16.78445622340012,0)" xlink:href="#ax"/><use transform="matrix(0.049366047715882704,0,0,0.049366047715882704,22.659015901590163,0)" xlink:href="#aw"/><use transform="matrix(0.049366047715882704,0,0,0.049366047715882704,33.47018035136848,0)" xlink:href="#aI"/><use transform="matrix(0.049366047715882704,0,0,0.049366047715882704,40.381427031592054,0)" xlink:href="#aB"/><use transform="matrix(0.049366047715882704,0,0,0.049366047715882704,51.192591481370364,0)" xlink:href="#aG"/></g><path fill="#3a414a" d="M25 0v-261h50V0H25" id="aJ"/><g id="w"><use transform="matrix(0.049366047715882704,0,0,0.049366047715882704,0,0)" xlink:href="#aI"/><use transform="matrix(0.049366047715882704,0,0,0.049366047715882704,6.911246680223578,0)" xlink:href="#at"/><use transform="matrix(0.049366047715882704,0,0,0.049366047715882704,16.78445622340012,0)" xlink:href="#aG"/><use transform="matrix(0.049366047715882704,0,0,0.049366047715882704,26.657665766576667,0)" xlink:href="#aw"/><use transform="matrix(0.049366047715882704,0,0,0.049366047715882704,37.468830216354974,0)" xlink:href="#aJ"/><use transform="matrix(0.049366047715882704,0,0,0.049366047715882704,42.405434987943245,0)" xlink:href="#ax"/></g><g id="x"><use transform="matrix(0.049366047715882704,0,0,0.049366047715882704,0,0)" xlink:href="#aI"/><use transform="matrix(0.049366047715882704,0,0,0.049366047715882704,6.911246680223578,0)" xlink:href="#at"/><use transform="matrix(0.049366047715882704,0,0,0.049366047715882704,16.78445622340012,0)" xlink:href="#ax"/><use transform="matrix(0.049366047715882704,0,0,0.049366047715882704,22.659015901590163,0)" xlink:href="#aw"/><use transform="matrix(0.049366047715882704,0,0,0.049366047715882704,33.47018035136848,0)" xlink:href="#aI"/><use transform="matrix(0.049366047715882704,0,0,0.049366047715882704,40.381427031592054,0)" xlink:href="#aB"/><use transform="matrix(0.049366047715882704,0,0,0.049366047715882704,51.192591481370364,0)" xlink:href="#aG"/></g><g id="y"><use transform="matrix(0.049366047715882704,0,0,0.049366047715882704,0,0)" xlink:href="#aI"/><use transform="matrix(0.049366047715882704,0,0,0.049366047715882704,6.911246680223578,0)" xlink:href="#at"/><use transform="matrix(0.049366047715882704,0,0,0.049366047715882704,16.78445622340012,0)" xlink:href="#aG"/><use transform="matrix(0.049366047715882704,0,0,0.049366047715882704,26.657665766576667,0)" xlink:href="#ar"/><use transform="matrix(0.049366047715882704,0,0,0.049366047715882704,37.468830216354974,0)" xlink:href="#az"/><use transform="matrix(0.049366047715882704,0,0,0.049366047715882704,48.279994666133284,0)" xlink:href="#aB"/><use transform="matrix(0.049366047715882704,0,0,0.049366047715882704,59.091159115911594,0)" xlink:href="#aG"/><use transform="matrix(0.049366047715882704,0,0,0.049366047715882704,68.96436865908814,0)" xlink:href="#at"/></g><path fill="#3a414a" d="M231 0h-52l-39-155L100 0H48L-1-190h46L77-45c9-52 24-97 36-145h53l37 145 32-145h46" id="aK"/><path fill="#3a414a" d="M114-157C55-157 80-60 75 0H25v-261h50l-1 109c12-26 28-41 61-42 86-1 58 113 63 194h-50c-7-57 23-157-34-157" id="aL"/><g id="z"><use transform="matrix(0.049366047715882704,0,0,0.049366047715882704,0,0)" xlink:href="#aK"/><use transform="matrix(0.049366047715882704,0,0,0.049366047715882704,13.822493360447156,0)" xlink:href="#as"/><use transform="matrix(0.049366047715882704,0,0,0.049366047715882704,18.759098132035426,0)" xlink:href="#ax"/><use transform="matrix(0.049366047715882704,0,0,0.049366047715882704,24.63365781022547,0)" xlink:href="#aL"/></g><path fill="#3a414a" d="M24-248c120-7 223 5 221 122C244-46 201 0 124 0H24v-248zM76-40c74 7 117-18 117-86 0-67-45-88-117-82v168" id="aM"/><path fill="#3a414a" d="M123 10C108 53 80 86 19 72V37c35 8 53-11 59-39L3-190h52l48 148c12-52 28-100 44-148h51" id="aN"/><g id="A"><use transform="matrix(0.049366047715882704,0,0,0.049366047715882704,0,0)" xlink:href="#aM"/><use transform="matrix(0.049366047715882704,0,0,0.049366047715882704,12.78580635841362,0)" xlink:href="#as"/><use transform="matrix(0.049366047715882704,0,0,0.049366047715882704,17.72241113000189,0)" xlink:href="#aG"/><use transform="matrix(0.049366047715882704,0,0,0.049366047715882704,27.59562067317843,0)" xlink:href="#ar"/><use transform="matrix(0.049366047715882704,0,0,0.049366047715882704,38.40678512295674,0)" xlink:href="#aJ"/><use transform="matrix(0.049366047715882704,0,0,0.049366047715882704,43.34338989454501,0)" xlink:href="#aq"/><use transform="matrix(0.049366047715882704,0,0,0.049366047715882704,53.216599437721555,0)" xlink:href="#aN"/><use transform="matrix(0.049366047715882704,0,0,0.049366047715882704,63.0898089808981,0)" xlink:href="#aG"/></g><g id="B"><use transform="matrix(0.049366047715882704,0,0,0.049366047715882704,0,0)" xlink:href="#aI"/><use transform="matrix(0.049366047715882704,0,0,0.049366047715882704,6.911246680223578,0)" xlink:href="#at"/><use transform="matrix(0.049366047715882704,0,0,0.049366047715882704,16.78445622340012,0)" xlink:href="#aG"/><use transform="matrix(0.049366047715882704,0,0,0.049366047715882704,26.657665766576667,0)" xlink:href="#aw"/><use transform="matrix(0.049366047715882704,0,0,0.049366047715882704,37.468830216354974,0)" xlink:href="#aJ"/><use transform="matrix(0.049366047715882704,0,0,0.049366047715882704,42.405434987943245,0)" xlink:href="#ax"/></g><g id="C"><use transform="matrix(0.049366047715882704,0,0,0.049366047715882704,0,0)" xlink:href="#ax"/><use transform="matrix(0.049366047715882704,0,0,0.049366047715882704,5.8745596781900415,0)" xlink:href="#az"/></g><g id="D"><use transform="matrix(0.049366047715882704,0,0,0.049366047715882704,0,0)" xlink:href="#aw"/><use transform="matrix(0.049366047715882704,0,0,0.049366047715882704,10.811164449778312,0)" xlink:href="#aG"/><use transform="matrix(0.049366047715882704,0,0,0.049366047715882704,20.684373992954853,0)" xlink:href="#at"/><use transform="matrix(0.049366047715882704,0,0,0.049366047715882704,30.5575835361314,0)" xlink:href="#aI"/></g></defs></g></svg>